<?xml version="1.0" encoding="UTF-8" standalone="no"?>
<!DOCTYPE svg PUBLIC "-//W3C//DTD SVG 1.1//EN"
 "http://www.w3.org/Graphics/SVG/1.1/DTD/svg11.dtd">
<!-- Generated by graphviz version 2.43.0 (0)
 -->
<!-- Title: G Pages: 1 -->
<svg width="1289pt" height="1184pt"
 viewBox="0.00 0.00 1288.77 1183.90" xmlns="http://www.w3.org/2000/svg" xmlns:xlink="http://www.w3.org/1999/xlink">
<g id="graph0" class="graph" transform="scale(1 1) rotate(0) translate(4 1179.9)">
<title>G</title><style>.edge>path:hover{stroke-width:8}</style>
<polygon fill="white" stroke="transparent" points="-4,4 -4,-1179.9 1284.77,-1179.9 1284.77,4 -4,4"/>
<!-- eko -->
<g id="node1" class="node">
<title>eko</title><style>.edge>path:hover{stroke-width:8}</style>
<ellipse fill="#ef0606" stroke="black" cx="675.13" cy="-18" rx="27" ry="18"/>
<text text-anchor="middle" x="675.13" y="-15.5" font-family="Helvetica,sans-Serif" font-size="10.00" fill="#ffffff">eko</text>
</g>
<!-- eko_anomalous_dimensions -->
<g id="node2" class="node">
<title>eko_anomalous_dimensions</title><style>.edge>path:hover{stroke-width:8}</style>
<ellipse fill="#af1313" stroke="black" cx="362.13" cy="-598.94" rx="93.18" ry="21.43"/>
<text text-anchor="middle" x="362.13" y="-601.94" font-family="Helvetica,sans-Serif" font-size="10.00" fill="#ffffff">eko.</text>
<text text-anchor="middle" x="362.13" y="-590.94" font-family="Helvetica,sans-Serif" font-size="10.00" fill="#ffffff">anomalous_dimensions</text>
</g>
<!-- eko_kernels_singlet -->
<g id="node14" class="node">
<title>eko_kernels_singlet</title><style>.edge>path:hover{stroke-width:8}</style>
<ellipse fill="#8a2e2e" stroke="black" cx="640.13" cy="-410.97" rx="38.78" ry="28.98"/>
<text text-anchor="middle" x="640.13" y="-419.47" font-family="Helvetica,sans-Serif" font-size="10.00" fill="#ffffff">eko.</text>
<text text-anchor="middle" x="640.13" y="-408.47" font-family="Helvetica,sans-Serif" font-size="10.00" fill="#ffffff">kernels.</text>
<text text-anchor="middle" x="640.13" y="-397.47" font-family="Helvetica,sans-Serif" font-size="10.00" fill="#ffffff">singlet</text>
</g>
<!-- eko_anomalous_dimensions&#45;&gt;eko_kernels_singlet -->
<g id="edge1" class="edge">
<title>eko_anomalous_dimensions&#45;&gt;eko_kernels_singlet</title><style>.edge>path:hover{stroke-width:8}</style>
<path fill="none" stroke="black" d="M375.84,-577.91C390.43,-557.73 415.1,-526.7 442.13,-505.96"/>
</g>
<!-- eko_operator -->
<g id="node17" class="node">
<title>eko_operator</title><style>.edge>path:hover{stroke-width:8}</style>
<ellipse fill="#821717" stroke="black" cx="675.13" cy="-234" rx="45.83" ry="18"/>
<text text-anchor="middle" x="675.13" y="-231.5" font-family="Helvetica,sans-Serif" font-size="10.00" fill="#ffffff">eko.operator</text>
</g>
<!-- eko_anomalous_dimensions&#45;&gt;eko_operator -->
<g id="edge2" class="edge">
<title>eko_anomalous_dimensions&#45;&gt;eko_operator</title><style>.edge>path:hover{stroke-width:8}</style>
<path fill="none" stroke="black" d="M354.27,-577.73C347.23,-555.82 340.93,-521.87 362.13,-505.96"/>
</g>
<!-- eko_anomalous_dimensions_harmonics -->
<g id="node3" class="node">
<title>eko_anomalous_dimensions_harmonics</title><style>.edge>path:hover{stroke-width:8}</style>
<ellipse fill="#b42d2d" stroke="black" cx="308.13" cy="-786.91" rx="95.42" ry="28.98"/>
<text text-anchor="middle" x="308.13" y="-795.41" font-family="Helvetica,sans-Serif" font-size="10.00" fill="#ffffff">eko.</text>
<text text-anchor="middle" x="308.13" y="-784.41" font-family="Helvetica,sans-Serif" font-size="10.00" fill="#ffffff">anomalous_dimensions.</text>
<text text-anchor="middle" x="308.13" y="-773.41" font-family="Helvetica,sans-Serif" font-size="10.00" fill="#ffffff">harmonics</text>
</g>
<!-- eko_anomalous_dimensions_harmonics&#45;&gt;eko_anomalous_dimensions -->
<g id="edge3" class="edge">
<title>eko_anomalous_dimensions_harmonics&#45;&gt;eko_anomalous_dimensions</title><style>.edge>path:hover{stroke-width:8}</style>
<path fill="none" stroke="black" d="M242.57,-765.73C208.85,-751.05 176.44,-727.75 185.13,-693.92"/>
</g>
<!-- eko_anomalous_dimensions_nlo -->
<g id="node5" class="node">
<title>eko_anomalous_dimensions_nlo</title><style>.edge>path:hover{stroke-width:8}</style>
<ellipse fill="#993333" stroke="black" cx="308.13" cy="-692.92" rx="95.42" ry="28.98"/>
<text text-anchor="middle" x="308.13" y="-701.42" font-family="Helvetica,sans-Serif" font-size="10.00" fill="#ffffff">eko.</text>
<text text-anchor="middle" x="308.13" y="-690.42" font-family="Helvetica,sans-Serif" font-size="10.00" fill="#ffffff">anomalous_dimensions.</text>
<text text-anchor="middle" x="308.13" y="-679.42" font-family="Helvetica,sans-Serif" font-size="10.00" fill="#ffffff">nlo</text>
</g>
<!-- eko_anomalous_dimensions_harmonics&#45;&gt;eko_anomalous_dimensions_nlo -->
<g id="edge4" class="edge">
<title>eko_anomalous_dimensions_harmonics&#45;&gt;eko_anomalous_dimensions_nlo</title><style>.edge>path:hover{stroke-width:8}</style>
<path fill="none" stroke="black" d="M308.13,-757.81C308.13,-749.77 308.13,-740.87 308.13,-732.32"/>
<polygon fill="#b42d2d" stroke="black" points="311.63,-732.16 308.13,-722.16 304.63,-732.16 311.63,-732.16"/>
</g>
<!-- eko_anomalous_dimensions_lo -->
<g id="node4" class="node">
<title>eko_anomalous_dimensions_lo</title><style>.edge>path:hover{stroke-width:8}</style>
<ellipse fill="#a83838" stroke="black" cx="554.13" cy="-786.91" rx="95.42" ry="28.98"/>
<text text-anchor="middle" x="554.13" y="-795.41" font-family="Helvetica,sans-Serif" font-size="10.00" fill="#ffffff">eko.</text>
<text text-anchor="middle" x="554.13" y="-784.41" font-family="Helvetica,sans-Serif" font-size="10.00" fill="#ffffff">anomalous_dimensions.</text>
<text text-anchor="middle" x="554.13" y="-773.41" font-family="Helvetica,sans-Serif" font-size="10.00" fill="#ffffff">lo</text>
</g>
<!-- eko_anomalous_dimensions_lo&#45;&gt;eko_anomalous_dimensions -->
<g id="edge5" class="edge">
<title>eko_anomalous_dimensions_lo&#45;&gt;eko_anomalous_dimensions</title><style>.edge>path:hover{stroke-width:8}</style>
<path fill="none" stroke="black" d="M516.42,-760.08C501.17,-748.99 483.76,-735.48 469.13,-721.91 437.09,-692.18 404.57,-653.66 383.93,-627.95"/>
<polygon fill="#a83838" stroke="black" points="386.63,-625.72 377.66,-620.07 381.15,-630.08 386.63,-625.72"/>
</g>
<!-- eko_anomalous_dimensions_nlo&#45;&gt;eko_anomalous_dimensions -->
<g id="edge6" class="edge">
<title>eko_anomalous_dimensions_nlo&#45;&gt;eko_anomalous_dimensions</title><style>.edge>path:hover{stroke-width:8}</style>
<path fill="none" stroke="black" d="M324.34,-664.32C330.9,-653.13 338.5,-640.2 345.14,-628.88"/>
<polygon fill="#993333" stroke="black" points="348.19,-630.6 350.23,-620.21 342.15,-627.06 348.19,-630.6"/>
</g>
<!-- eko_basis_rotation -->
<g id="node6" class="node">
<title>eko_basis_rotation</title><style>.edge>path:hover{stroke-width:8}</style>
<ellipse fill="#c04040" stroke="black" cx="165.13" cy="-504.96" rx="60.62" ry="21.43"/>
<text text-anchor="middle" x="165.13" y="-507.96" font-family="Helvetica,sans-Serif" font-size="10.00" fill="#ffffff">eko.</text>
<text text-anchor="middle" x="165.13" y="-496.96" font-family="Helvetica,sans-Serif" font-size="10.00" fill="#ffffff">basis_rotation</text>
</g>
<!-- eko_output -->
<g id="node21" class="node">
<title>eko_output</title><style>.edge>path:hover{stroke-width:8}</style>
<ellipse fill="#8a2e2e" stroke="black" cx="675.13" cy="-162" rx="40.06" ry="18"/>
<text text-anchor="middle" x="675.13" y="-159.5" font-family="Helvetica,sans-Serif" font-size="10.00" fill="#ffffff">eko.output</text>
</g>
<!-- eko_basis_rotation&#45;&gt;eko_output -->
<g id="edge7" class="edge">
<title>eko_basis_rotation&#45;&gt;eko_output</title><style>.edge>path:hover{stroke-width:8}</style>
<path fill="none" stroke="black" d="M169.22,-483.51C172.93,-464.88 178.5,-436.6 183.13,-411.97"/>
<path fill="none" stroke="black" d="M183.13,-409.97C185.92,-395.2 193.16,-394.05 202.13,-381.98 224,-352.57 237.43,-350.61 254.13,-317.99"/>
<path fill="none" stroke="black" d="M254.13,-315.99C255.83,-312.69 290.52,-260.94 309.13,-235"/>
<path fill="none" stroke="black" d="M309.13,-233C345.4,-182.45 533.77,-168.35 625.22,-164.46"/>
<polygon fill="#c04040" stroke="black" points="625.49,-167.95 635.34,-164.05 625.21,-160.95 625.49,-167.95"/>
</g>
<!-- eko_beta -->
<g id="node7" class="node">
<title>eko_beta</title><style>.edge>path:hover{stroke-width:8}</style>
<ellipse fill="#df0b0b" stroke="black" cx="804.13" cy="-869.9" rx="34.96" ry="18"/>
<text text-anchor="middle" x="804.13" y="-867.4" font-family="Helvetica,sans-Serif" font-size="10.00" fill="#ffffff">eko.beta</text>
</g>
<!-- eko_kernels_evolution_integrals -->
<g id="node12" class="node">
<title>eko_kernels_evolution_integrals</title><style>.edge>path:hover{stroke-width:8}</style>
<ellipse fill="#b42d2d" stroke="black" cx="761.13" cy="-692.92" rx="77.56" ry="28.98"/>
<text text-anchor="middle" x="761.13" y="-701.42" font-family="Helvetica,sans-Serif" font-size="10.00" fill="#ffffff">eko.</text>
<text text-anchor="middle" x="761.13" y="-690.42" font-family="Helvetica,sans-Serif" font-size="10.00" fill="#ffffff">kernels.</text>
<text text-anchor="middle" x="761.13" y="-679.42" font-family="Helvetica,sans-Serif" font-size="10.00" fill="#ffffff">evolution_integrals</text>
</g>
<!-- eko_beta&#45;&gt;eko_kernels_evolution_integrals -->
<g id="edge8" class="edge">
<title>eko_beta&#45;&gt;eko_kernels_evolution_integrals</title><style>.edge>path:hover{stroke-width:8}</style>
<path fill="none" stroke="black" d="M829.13,-785.91C822.28,-764.44 808.15,-743.94 794.54,-727.76"/>
<polygon fill="#df0b0b" stroke="black" points="797.14,-725.42 787.93,-720.18 791.86,-730.02 797.14,-725.42"/>
</g>
<!-- eko_kernels_non_singlet -->
<g id="node13" class="node">
<title>eko_kernels_non_singlet</title><style>.edge>path:hover{stroke-width:8}</style>
<ellipse fill="#913030" stroke="black" cx="825.13" cy="-598.94" rx="51.74" ry="28.98"/>
<text text-anchor="middle" x="825.13" y="-607.44" font-family="Helvetica,sans-Serif" font-size="10.00" fill="#ffffff">eko.</text>
<text text-anchor="middle" x="825.13" y="-596.44" font-family="Helvetica,sans-Serif" font-size="10.00" fill="#ffffff">kernels.</text>
<text text-anchor="middle" x="825.13" y="-585.44" font-family="Helvetica,sans-Serif" font-size="10.00" fill="#ffffff">non_singlet</text>
</g>
<!-- eko_beta&#45;&gt;eko_kernels_non_singlet -->
<g id="edge9" class="edge">
<title>eko_beta&#45;&gt;eko_kernels_non_singlet</title><style>.edge>path:hover{stroke-width:8}</style>
<path fill="none" stroke="black" d="M815.06,-852.73C824.74,-836.37 836.29,-810.34 829.13,-787.91"/>
<path fill="none" stroke="black" d="M829.13,-785.91C806.48,-714.9 719.31,-781.19 674.13,-721.91 658.51,-701.42 659.9,-685.41 674.13,-663.93 696.79,-629.73 721.36,-643.94 759.13,-627.93 764.29,-625.75 769.67,-623.46 775.04,-621.19"/>
<polygon fill="#df0b0b" stroke="black" points="776.81,-624.24 784.65,-617.11 774.07,-617.8 776.81,-624.24"/>
</g>
<!-- eko_beta&#45;&gt;eko_kernels_singlet -->
<g id="edge10" class="edge">
<title>eko_beta&#45;&gt;eko_kernels_singlet</title><style>.edge>path:hover{stroke-width:8}</style>
<path fill="none" stroke="black" d="M792.67,-852.74C785.3,-842.29 775.56,-828.35 767.13,-815.9 749.87,-790.38 754.75,-775.04 729.13,-757.91 658.05,-710.38 594.65,-787.79 540.13,-721.91 523.7,-702.06 529.94,-687.6 540.13,-663.93 580.54,-570.09 684.95,-605.69 707.13,-505.96"/>
<path fill="none" stroke="black" d="M707.13,-503.96C712.76,-478.65 695.01,-455.11 676.37,-438.18"/>
<polygon fill="#df0b0b" stroke="black" points="678.26,-435.2 668.39,-431.35 673.71,-440.51 678.26,-435.2"/>
</g>
<!-- eko_beta&#45;&gt;eko_operator -->
<g id="edge11" class="edge">
<title>eko_beta&#45;&gt;eko_operator</title><style>.edge>path:hover{stroke-width:8}</style>
<path fill="none" stroke="black" d="M707.13,-503.96C716.01,-464.05 733.95,-442.83 707.13,-411.97"/>
<path fill="none" stroke="black" d="M707.13,-409.97C697.27,-398.62 697.08,-394.07 688.13,-381.98 675.91,-365.47 671.36,-362.5 659.13,-345.98 650.19,-333.9 631.66,-330.41 640.13,-317.99"/>
</g>
<!-- eko_strong_coupling -->
<g id="node23" class="node">
<title>eko_strong_coupling</title><style>.edge>path:hover{stroke-width:8}</style>
<ellipse fill="#913030" stroke="black" cx="1037.13" cy="-786.91" rx="66.44" ry="21.43"/>
<text text-anchor="middle" x="1037.13" y="-789.91" font-family="Helvetica,sans-Serif" font-size="10.00" fill="#ffffff">eko.</text>
<text text-anchor="middle" x="1037.13" y="-778.91" font-family="Helvetica,sans-Serif" font-size="10.00" fill="#ffffff">strong_coupling</text>
</g>
<!-- eko_beta&#45;&gt;eko_strong_coupling -->
<g id="edge12" class="edge">
<title>eko_beta&#45;&gt;eko_strong_coupling</title><style>.edge>path:hover{stroke-width:8}</style>
<path fill="none" stroke="black" d="M832.24,-859.13C869.72,-846.1 936.81,-822.78 983.99,-806.38"/>
<polygon fill="#df0b0b" stroke="black" points="985.14,-809.68 993.44,-803.09 982.84,-803.07 985.14,-809.68"/>
</g>
<!-- eko_constants -->
<g id="node8" class="node">
<title>eko_constants</title><style>.edge>path:hover{stroke-width:8}</style>
<ellipse fill="#e72222" stroke="black" cx="804.13" cy="-941.9" rx="49.4" ry="18"/>
<text text-anchor="middle" x="804.13" y="-939.4" font-family="Helvetica,sans-Serif" font-size="10.00" fill="#ffffff">eko.constants</text>
</g>
<!-- eko_constants&#45;&gt;eko_anomalous_dimensions_lo -->
<g id="edge13" class="edge">
<title>eko_constants&#45;&gt;eko_anomalous_dimensions_lo</title><style>.edge>path:hover{stroke-width:8}</style>
<path fill="none" stroke="black" d="M783.79,-925.29C765.63,-911.26 738.37,-889.99 715.13,-870.9"/>
<path fill="none" stroke="black" d="M715.13,-868.9C687.53,-846.22 652.51,-827.66 622.2,-814.05"/>
<polygon fill="#e72222" stroke="black" points="623.52,-810.81 612.95,-809.99 620.7,-817.22 623.52,-810.81"/>
</g>
<!-- eko_constants&#45;&gt;eko_anomalous_dimensions_nlo -->
<g id="edge14" class="edge">
<title>eko_constants&#45;&gt;eko_anomalous_dimensions_nlo</title><style>.edge>path:hover{stroke-width:8}</style>
<path fill="none" stroke="black" d="M715.13,-868.9C684.41,-843.66 704.9,-816.36 677.13,-787.91"/>
</g>
<!-- eko_constants&#45;&gt;eko_beta -->
<g id="edge15" class="edge">
<title>eko_constants&#45;&gt;eko_beta</title><style>.edge>path:hover{stroke-width:8}</style>
<path fill="none" stroke="black" d="M804.13,-923.59C804.13,-915.88 804.13,-906.61 804.13,-898.01"/>
<polygon fill="#e72222" stroke="black" points="807.63,-898 804.13,-888 800.63,-898 807.63,-898"/>
</g>
<!-- eko_constants&#45;&gt;eko_strong_coupling -->
<g id="edge16" class="edge">
<title>eko_constants&#45;&gt;eko_strong_coupling</title><style>.edge>path:hover{stroke-width:8}</style>
<path fill="none" stroke="black" d="M826.54,-925.83C841.99,-915.35 862.95,-900.97 881.13,-887.9 902.79,-872.33 906.96,-866.72 929.13,-851.9 950.76,-837.44 975.69,-822.56 996.15,-810.79"/>
<polygon fill="#e72222" stroke="black" points="997.97,-813.78 1004.91,-805.78 994.49,-807.7 997.97,-813.78"/>
</g>
<!-- eko_flavours -->
<g id="node9" class="node">
<title>eko_flavours</title><style>.edge>path:hover{stroke-width:8}</style>
<ellipse fill="#c24747" stroke="black" cx="1204.13" cy="-941.9" rx="45.15" ry="18"/>
<text text-anchor="middle" x="1204.13" y="-939.4" font-family="Helvetica,sans-Serif" font-size="10.00" fill="#ffffff">eko.flavours</text>
</g>
<!-- eko_thresholds -->
<g id="node24" class="node">
<title>eko_thresholds</title><style>.edge>path:hover{stroke-width:8}</style>
<ellipse fill="#bc2f2f" stroke="black" cx="1211.13" cy="-869.9" rx="51.61" ry="18"/>
<text text-anchor="middle" x="1211.13" y="-867.4" font-family="Helvetica,sans-Serif" font-size="10.00" fill="#ffffff">eko.thresholds</text>
</g>
<!-- eko_flavours&#45;&gt;eko_thresholds -->
<g id="edge17" class="edge">
<title>eko_flavours&#45;&gt;eko_thresholds</title><style>.edge>path:hover{stroke-width:8}</style>
<path fill="none" stroke="black" d="M1205.86,-923.59C1206.64,-915.88 1207.56,-906.61 1208.42,-898.01"/>
<polygon fill="#c24747" stroke="black" points="1211.91,-898.3 1209.42,-888 1204.95,-897.6 1211.91,-898.3"/>
</g>
<!-- eko_interpolation -->
<g id="node10" class="node">
<title>eko_interpolation</title><style>.edge>path:hover{stroke-width:8}</style>
<ellipse fill="#d02424" stroke="black" cx="1085.13" cy="-316.99" rx="55.72" ry="21.43"/>
<text text-anchor="middle" x="1085.13" y="-319.99" font-family="Helvetica,sans-Serif" font-size="10.00" fill="#ffffff">eko.</text>
<text text-anchor="middle" x="1085.13" y="-308.99" font-family="Helvetica,sans-Serif" font-size="10.00" fill="#ffffff">interpolation</text>
</g>
<!-- eko_interpolation&#45;&gt;eko_operator -->
<g id="edge18" class="edge">
<title>eko_interpolation&#45;&gt;eko_operator</title><style>.edge>path:hover{stroke-width:8}</style>
<path fill="none" stroke="black" d="M1050.41,-300.31C1039.32,-295.79 1026.87,-291.22 1015.13,-288 916.35,-260.93 797.38,-246.34 729.57,-239.67"/>
<polygon fill="#d02424" stroke="black" points="729.83,-236.17 719.54,-238.7 729.16,-243.14 729.83,-236.17"/>
</g>
<!-- eko_interpolation&#45;&gt;eko_output -->
<g id="edge19" class="edge">
<title>eko_interpolation&#45;&gt;eko_output</title><style>.edge>path:hover{stroke-width:8}</style>
<path fill="none" stroke="black" d="M1098.81,-296.12C1108.65,-279.16 1118.52,-254.48 1108.13,-235"/>
<path fill="none" stroke="black" d="M1108.13,-233C1090.16,-199.27 834.05,-175.39 724.38,-166.66"/>
<polygon fill="#d02424" stroke="black" points="724.48,-163.16 714.24,-165.86 723.94,-170.13 724.48,-163.16"/>
</g>
<!-- eko_runner -->
<g id="node22" class="node">
<title>eko_runner</title><style>.edge>path:hover{stroke-width:8}</style>
<ellipse fill="#913030" stroke="black" cx="675.13" cy="-90" rx="40.06" ry="18"/>
<text text-anchor="middle" x="675.13" y="-87.5" font-family="Helvetica,sans-Serif" font-size="10.00" fill="#ffffff">eko.runner</text>
</g>
<!-- eko_interpolation&#45;&gt;eko_runner -->
<g id="edge20" class="edge">
<title>eko_interpolation&#45;&gt;eko_runner</title><style>.edge>path:hover{stroke-width:8}</style>
<path fill="none" stroke="black" d="M1108.13,-233C1093.5,-205.55 1113.33,-193.67 1108.13,-163"/>
</g>
<!-- eko_kernels -->
<g id="node11" class="node">
<title>eko_kernels</title><style>.edge>path:hover{stroke-width:8}</style>
<ellipse fill="#db2f2f" stroke="black" cx="710.13" cy="-316.99" rx="42.27" ry="18"/>
<text text-anchor="middle" x="710.13" y="-314.49" font-family="Helvetica,sans-Serif" font-size="10.00" fill="#ffffff">eko.kernels</text>
</g>
<!-- eko_kernels&#45;&gt;eko_operator -->
<g id="edge21" class="edge">
<title>eko_kernels&#45;&gt;eko_operator</title><style>.edge>path:hover{stroke-width:8}</style>
<path fill="none" stroke="black" d="M702.88,-299.21C698.17,-288.31 691.94,-273.88 686.57,-261.46"/>
<polygon fill="#db2f2f" stroke="black" points="689.68,-259.83 682.5,-252.04 683.25,-262.61 689.68,-259.83"/>
</g>
<!-- eko_kernels_evolution_integrals&#45;&gt;eko_kernels_non_singlet -->
<g id="edge22" class="edge">
<title>eko_kernels_evolution_integrals&#45;&gt;eko_kernels_non_singlet</title><style>.edge>path:hover{stroke-width:8}</style>
<path fill="none" stroke="black" d="M780.34,-664.32C786.83,-654.99 794.16,-644.45 800.99,-634.64"/>
<polygon fill="#b42d2d" stroke="black" points="803.98,-636.46 806.82,-626.26 798.24,-632.47 803.98,-636.46"/>
</g>
<!-- eko_kernels_evolution_integrals&#45;&gt;eko_kernels_singlet -->
<g id="edge23" class="edge">
<title>eko_kernels_evolution_integrals&#45;&gt;eko_kernels_singlet</title><style>.edge>path:hover{stroke-width:8}</style>
<path fill="none" stroke="black" d="M749.89,-663.84C744.09,-645.46 739.32,-621.04 745.13,-599.94"/>
</g>
<!-- eko_kernels_non_singlet&#45;&gt;eko_operator -->
<g id="edge24" class="edge">
<title>eko_kernels_non_singlet&#45;&gt;eko_operator</title><style>.edge>path:hover{stroke-width:8}</style>
<path fill="none" stroke="black" d="M861.77,-578.28C887.77,-561.41 916.24,-535.24 905.13,-505.96"/>
<path fill="none" stroke="black" d="M905.13,-503.96C870.71,-413.23 770.78,-485.22 707.13,-411.97"/>
</g>
<!-- eko_kernels_singlet&#45;&gt;eko_operator -->
<g id="edge25" class="edge">
<title>eko_kernels_singlet&#45;&gt;eko_operator</title><style>.edge>path:hover{stroke-width:8}</style>
<path fill="none" stroke="black" d="M632.45,-382.22C628.73,-362.6 627.44,-336.59 640.13,-317.99"/>
</g>
<!-- eko_kernels_utils -->
<g id="node15" class="node">
<title>eko_kernels_utils</title><style>.edge>path:hover{stroke-width:8}</style>
<ellipse fill="#c43131" stroke="black" cx="588.13" cy="-692.92" rx="38.78" ry="28.98"/>
<text text-anchor="middle" x="588.13" y="-701.42" font-family="Helvetica,sans-Serif" font-size="10.00" fill="#ffffff">eko.</text>
<text text-anchor="middle" x="588.13" y="-690.42" font-family="Helvetica,sans-Serif" font-size="10.00" fill="#ffffff">kernels.</text>
<text text-anchor="middle" x="588.13" y="-679.42" font-family="Helvetica,sans-Serif" font-size="10.00" fill="#ffffff">utils</text>
</g>
<!-- eko_kernels_utils&#45;&gt;eko_kernels_non_singlet -->
<g id="edge26" class="edge">
<title>eko_kernels_utils&#45;&gt;eko_kernels_non_singlet</title><style>.edge>path:hover{stroke-width:8}</style>
<path fill="none" stroke="black" d="M618.49,-674.63C625.78,-670.83 633.63,-667.02 641.13,-663.93 691.83,-643.03 707.6,-646.66 759.13,-627.93 764.6,-625.94 770.28,-623.75 775.9,-621.49"/>
<polygon fill="#c43131" stroke="black" points="777.34,-624.68 785.26,-617.64 774.68,-618.2 777.34,-624.68"/>
</g>
<!-- eko_kernels_utils&#45;&gt;eko_kernels_singlet -->
<g id="edge27" class="edge">
<title>eko_kernels_utils&#45;&gt;eko_kernels_singlet</title><style>.edge>path:hover{stroke-width:8}</style>
<path fill="none" stroke="black" d="M621.97,-678.31C665.43,-659.9 736.34,-626.31 745.13,-599.94"/>
<path fill="none" stroke="black" d="M745.13,-597.94C762.61,-545.53 749.93,-523.12 721.13,-475.97 710.89,-459.19 694.55,-445.04 679.23,-434.35"/>
<polygon fill="#c43131" stroke="black" points="681.12,-431.41 670.86,-428.77 677.24,-437.23 681.12,-431.41"/>
</g>
<!-- eko_mellin -->
<g id="node16" class="node">
<title>eko_mellin</title><style>.edge>path:hover{stroke-width:8}</style>
<ellipse fill="#b83d3d" stroke="black" cx="1011.13" cy="-869.9" rx="40.06" ry="18"/>
<text text-anchor="middle" x="1011.13" y="-867.4" font-family="Helvetica,sans-Serif" font-size="10.00" fill="#ffffff">eko.mellin</text>
</g>
<!-- eko_mellin&#45;&gt;eko_operator -->
<g id="edge28" class="edge">
<title>eko_mellin&#45;&gt;eko_operator</title><style>.edge>path:hover{stroke-width:8}</style>
<path fill="none" stroke="black" d="M991.52,-854.04C980.61,-844.5 968.07,-831.07 962.13,-815.9 952.74,-791.9 948.77,-779.95 962.13,-757.91 980.06,-728.33 1013.2,-751.49 1031.13,-721.91 1044.49,-699.88 1035.63,-689.31 1031.13,-663.93 1012.63,-559.56 967.64,-544.34 949.13,-439.97 944.63,-414.59 940.51,-406.27 949.13,-381.98 961.4,-347.45 1023.62,-346.93 1001.13,-317.99"/>
<path fill="none" stroke="black" d="M1001.13,-315.99C966.92,-274.46 812.61,-250.72 729.14,-240.7"/>
<polygon fill="#b83d3d" stroke="black" points="729.42,-237.21 719.08,-239.52 728.61,-244.16 729.42,-237.21"/>
</g>
<!-- eko_operator&#45;&gt;eko_output -->
<g id="edge29" class="edge">
<title>eko_operator&#45;&gt;eko_output</title><style>.edge>path:hover{stroke-width:8}</style>
<path fill="none" stroke="black" d="M675.13,-215.7C675.13,-207.98 675.13,-198.71 675.13,-190.11"/>
<polygon fill="#821717" stroke="black" points="678.63,-190.1 675.13,-180.1 671.63,-190.1 678.63,-190.1"/>
</g>
<!-- eko_operator&#45;&gt;eko_runner -->
<g id="edge30" class="edge">
<title>eko_operator&#45;&gt;eko_runner</title><style>.edge>path:hover{stroke-width:8}</style>
<path fill="none" stroke="black" d="M720.21,-230.38C832.38,-223.27 1114.66,-201.53 1108.13,-163"/>
<path fill="none" stroke="black" d="M1108.13,-161C1101.73,-123.19 837.25,-101.54 724.85,-94.03"/>
<polygon fill="#821717" stroke="black" points="724.98,-90.53 714.78,-93.37 724.53,-97.52 724.98,-90.53"/>
</g>
<!-- eko_operator_grid -->
<g id="node18" class="node">
<title>eko_operator_grid</title><style>.edge>path:hover{stroke-width:8}</style>
<ellipse fill="#b03a3a" stroke="black" cx="43.13" cy="-504.96" rx="43.27" ry="28.98"/>
<text text-anchor="middle" x="43.13" y="-513.46" font-family="Helvetica,sans-Serif" font-size="10.00" fill="#ffffff">eko.</text>
<text text-anchor="middle" x="43.13" y="-502.46" font-family="Helvetica,sans-Serif" font-size="10.00" fill="#ffffff">operator.</text>
<text text-anchor="middle" x="43.13" y="-491.46" font-family="Helvetica,sans-Serif" font-size="10.00" fill="#ffffff">grid</text>
</g>
<!-- eko_operator_grid&#45;&gt;eko_runner -->
<g id="edge31" class="edge">
<title>eko_operator_grid&#45;&gt;eko_runner</title><style>.edge>path:hover{stroke-width:8}</style>
<path fill="none" stroke="black" d="M55.48,-476.87C70.57,-441.22 94.13,-376.24 94.13,-317.99 94.13,-317.99 94.13,-317.99 94.13,-233 94.13,-124.1 484.17,-98.33 625.1,-92.57"/>
<polygon fill="#b03a3a" stroke="black" points="625.34,-96.06 635.2,-92.17 625.07,-89.06 625.34,-96.06"/>
</g>
<!-- eko_operator_member -->
<g id="node19" class="node">
<title>eko_operator_member</title><style>.edge>path:hover{stroke-width:8}</style>
<ellipse fill="#d92626" stroke="black" cx="254.13" cy="-410.97" rx="43.27" ry="28.98"/>
<text text-anchor="middle" x="254.13" y="-419.47" font-family="Helvetica,sans-Serif" font-size="10.00" fill="#ffffff">eko.</text>
<text text-anchor="middle" x="254.13" y="-408.47" font-family="Helvetica,sans-Serif" font-size="10.00" fill="#ffffff">operator.</text>
<text text-anchor="middle" x="254.13" y="-397.47" font-family="Helvetica,sans-Serif" font-size="10.00" fill="#ffffff">member</text>
</g>
<!-- eko_operator_member&#45;&gt;eko_operator -->
<g id="edge32" class="edge">
<title>eko_operator_member&#45;&gt;eko_operator</title><style>.edge>path:hover{stroke-width:8}</style>
<path fill="none" stroke="black" d="M296.93,-406.77C389.15,-398.85 601.45,-374.68 640.13,-317.99"/>
<path fill="none" stroke="black" d="M640.13,-315.99C651.57,-299.23 660.55,-278.12 666.54,-261.66"/>
<polygon fill="#d92626" stroke="black" points="669.89,-262.68 669.89,-252.09 663.29,-260.37 669.89,-262.68"/>
</g>
<!-- eko_operator_physical -->
<g id="node20" class="node">
<title>eko_operator_physical</title><style>.edge>path:hover{stroke-width:8}</style>
<ellipse fill="#cc3333" stroke="black" cx="397.13" cy="-316.99" rx="43.27" ry="28.98"/>
<text text-anchor="middle" x="397.13" y="-325.49" font-family="Helvetica,sans-Serif" font-size="10.00" fill="#ffffff">eko.</text>
<text text-anchor="middle" x="397.13" y="-314.49" font-family="Helvetica,sans-Serif" font-size="10.00" fill="#ffffff">operator.</text>
<text text-anchor="middle" x="397.13" y="-303.49" font-family="Helvetica,sans-Serif" font-size="10.00" fill="#ffffff">physical</text>
</g>
<!-- eko_operator_member&#45;&gt;eko_operator_physical -->
<g id="edge33" class="edge">
<title>eko_operator_member&#45;&gt;eko_operator_physical</title><style>.edge>path:hover{stroke-width:8}</style>
<path fill="none" stroke="black" d="M284.81,-390.24C306.2,-376.48 334.93,-358 357.98,-343.18"/>
<polygon fill="#d92626" stroke="black" points="359.99,-346.04 366.51,-337.69 356.2,-340.16 359.99,-346.04"/>
</g>
<!-- eko_operator_member&#45;&gt;eko_output -->
<g id="edge34" class="edge">
<title>eko_operator_member&#45;&gt;eko_output</title><style>.edge>path:hover{stroke-width:8}</style>
<path fill="none" stroke="black" d="M247.79,-382.28C244.89,-363.17 244.02,-337.75 254.13,-317.99"/>
</g>
<!-- eko_operator_physical&#45;&gt;eko_operator -->
<g id="edge35" class="edge">
<title>eko_operator_physical&#45;&gt;eko_operator</title><style>.edge>path:hover{stroke-width:8}</style>
<path fill="none" stroke="black" d="M436.37,-304.56C487.24,-289.74 575.77,-263.95 629.56,-248.28"/>
<polygon fill="#cc3333" stroke="black" points="630.56,-251.63 639.18,-245.47 628.6,-244.91 630.56,-251.63"/>
</g>
<!-- eko_operator_physical&#45;&gt;eko_output -->
<g id="edge36" class="edge">
<title>eko_operator_physical&#45;&gt;eko_output</title><style>.edge>path:hover{stroke-width:8}</style>
<path fill="none" stroke="black" d="M366.02,-296.6C336.94,-277.29 299.36,-248.62 309.13,-235"/>
</g>
<!-- eko_output&#45;&gt;eko_runner -->
<g id="edge37" class="edge">
<title>eko_output&#45;&gt;eko_runner</title><style>.edge>path:hover{stroke-width:8}</style>
<path fill="none" stroke="black" d="M675.13,-143.7C675.13,-135.98 675.13,-126.71 675.13,-118.11"/>
<polygon fill="#8a2e2e" stroke="black" points="678.63,-118.1 675.13,-108.1 671.63,-118.1 678.63,-118.1"/>
</g>
<!-- eko_runner&#45;&gt;eko -->
<g id="edge38" class="edge">
<title>eko_runner&#45;&gt;eko</title><style>.edge>path:hover{stroke-width:8}</style>
<path fill="none" stroke="black" d="M675.13,-71.7C675.13,-63.98 675.13,-54.71 675.13,-46.11"/>
<polygon fill="#913030" stroke="black" points="678.63,-46.1 675.13,-36.1 671.63,-46.1 678.63,-46.1"/>
</g>
<!-- eko_strong_coupling&#45;&gt;eko_runner -->
<g id="edge39" class="edge">
<title>eko_strong_coupling&#45;&gt;eko_runner</title><style>.edge>path:hover{stroke-width:8}</style>
<path fill="none" stroke="black" d="M1050.81,-766.06C1080.28,-721.86 1148.72,-610.92 1169.13,-505.96"/>
<path fill="none" stroke="black" d="M1169.13,-503.96C1176.75,-407.91 1169.84,-382.32 1150.13,-288 1138.15,-230.63 1117.92,-220.78 1108.13,-163"/>
</g>
<!-- eko_thresholds&#45;&gt;eko_runner -->
<g id="edge40" class="edge">
<title>eko_thresholds&#45;&gt;eko_runner</title><style>.edge>path:hover{stroke-width:8}</style>
<path fill="none" stroke="black" d="M1206.74,-851.93C1193.87,-800.16 1157.82,-639.63 1169.13,-505.96"/>
</g>
<!-- eko_thresholds&#45;&gt;eko_strong_coupling -->
<g id="edge41" class="edge">
<title>eko_thresholds&#45;&gt;eko_strong_coupling</title><style>.edge>path:hover{stroke-width:8}</style>
<path fill="none" stroke="black" d="M1181.22,-854.97C1154.1,-842.35 1113.73,-823.56 1082.61,-809.07"/>
<polygon fill="#bc2f2f" stroke="black" points="1083.82,-805.77 1073.28,-804.73 1080.86,-812.12 1083.82,-805.77"/>
</g>
<!-- numba -->
<g id="node25" class="node">
<title>numba</title><style>.edge>path:hover{stroke-width:8}</style>
<ellipse fill="#c0ef06" stroke="black" cx="633.13" cy="-1013.9" rx="29.37" ry="18"/>
<text text-anchor="middle" x="633.13" y="-1011.4" font-family="Helvetica,sans-Serif" font-size="10.00" fill="#000000">numba</text>
</g>
<!-- numba&#45;&gt;eko_anomalous_dimensions -->
<g id="edge42" class="edge">
<title>numba&#45;&gt;eko_anomalous_dimensions</title><style>.edge>path:hover{stroke-width:8}</style>
<path fill="none" stroke="black" d="M677.13,-868.9C674.65,-844.66 688,-840.06 691.13,-815.9 694.45,-790.34 707.3,-777.98 691.13,-757.91 644.05,-699.46 595.39,-750.86 526.13,-721.91 505.09,-713.12 500.69,-708.47 483.13,-693.92"/>
<path fill="none" stroke="black" d="M483.13,-691.92C470,-680.68 469.35,-675.07 456.13,-663.93 439.43,-649.84 419.59,-635.97 402.46,-624.77"/>
<polygon fill="#c0ef06" stroke="black" points="404.07,-621.64 393.77,-619.16 400.28,-627.53 404.07,-621.64"/>
</g>
<!-- numba&#45;&gt;eko_anomalous_dimensions_harmonics -->
<g id="edge43" class="edge">
<title>numba&#45;&gt;eko_anomalous_dimensions_harmonics</title><style>.edge>path:hover{stroke-width:8}</style>
<path fill="none" stroke="black" d="M607.23,-1005.06C557.62,-988.67 449.19,-945.95 393.13,-870.9"/>
</g>
<!-- numba&#45;&gt;eko_anomalous_dimensions_lo -->
<g id="edge44" class="edge">
<title>numba&#45;&gt;eko_anomalous_dimensions_lo</title><style>.edge>path:hover{stroke-width:8}</style>
<path fill="none" stroke="black" d="M643.46,-996.63C658.78,-970.61 684.91,-917.74 677.13,-870.9"/>
<path fill="none" stroke="black" d="M677.13,-868.9C674.45,-842.74 654.06,-824.52 630.64,-812.09"/>
<polygon fill="#c0ef06" stroke="black" points="632.06,-808.89 621.54,-807.61 628.96,-815.17 632.06,-808.89"/>
</g>
<!-- numba&#45;&gt;eko_anomalous_dimensions_nlo -->
<g id="edge45" class="edge">
<title>numba&#45;&gt;eko_anomalous_dimensions_nlo</title><style>.edge>path:hover{stroke-width:8}</style>
<path fill="none" stroke="black" d="M677.13,-868.9C673.46,-833.09 702.28,-813.67 677.13,-787.91"/>
<path fill="none" stroke="black" d="M677.13,-785.91C666.63,-775.14 670.73,-766.12 658.13,-757.91 652.66,-754.35 501.67,-727.57 399.82,-709.8"/>
<polygon fill="#c0ef06" stroke="black" points="400.27,-706.32 389.81,-708.06 399.07,-713.22 400.27,-706.32"/>
</g>
<!-- numba&#45;&gt;eko_beta -->
<g id="edge46" class="edge">
<title>numba&#45;&gt;eko_beta</title><style>.edge>path:hover{stroke-width:8}</style>
<path fill="none" stroke="black" d="M662.2,-1010.25C727.62,-1003.61 883,-983.76 912.13,-942.9"/>
<path fill="none" stroke="black" d="M912.13,-940.9C922.74,-926.01 875.67,-901.56 840.32,-885.85"/>
<polygon fill="#c0ef06" stroke="black" points="841.28,-882.45 830.72,-881.67 838.49,-888.87 841.28,-882.45"/>
</g>
<!-- numba&#45;&gt;eko_interpolation -->
<g id="edge47" class="edge">
<title>numba&#45;&gt;eko_interpolation</title><style>.edge>path:hover{stroke-width:8}</style>
<path fill="none" stroke="black" d="M905.13,-785.91C910.25,-691.28 1100.7,-506.27 1110.13,-411.97"/>
<path fill="none" stroke="black" d="M1110.13,-409.97C1109.65,-388.68 1103.33,-365.54 1097.17,-347.8"/>
<polygon fill="#c0ef06" stroke="black" points="1100.32,-346.22 1093.6,-338.03 1093.74,-348.62 1100.32,-346.22"/>
</g>
<!-- numba&#45;&gt;eko_kernels_evolution_integrals -->
<g id="edge48" class="edge">
<title>numba&#45;&gt;eko_kernels_evolution_integrals</title><style>.edge>path:hover{stroke-width:8}</style>
<path fill="none" stroke="black" d="M867.13,-868.9C850.07,-837.2 876.27,-822.72 867.13,-787.91"/>
<path fill="none" stroke="black" d="M867.13,-785.91C860,-758.74 837.8,-737.39 815.55,-722.12"/>
<polygon fill="#c0ef06" stroke="black" points="817.33,-719.11 807.05,-716.57 813.5,-724.97 817.33,-719.11"/>
</g>
<!-- numba&#45;&gt;eko_kernels_non_singlet -->
<g id="edge49" class="edge">
<title>numba&#45;&gt;eko_kernels_non_singlet</title><style>.edge>path:hover{stroke-width:8}</style>
<path fill="none" stroke="black" d="M867.13,-785.91C853.2,-732.84 861.7,-717.09 848.13,-663.93 845.86,-655.04 842.85,-645.64 839.76,-636.88"/>
<polygon fill="#c0ef06" stroke="black" points="842.98,-635.49 836.26,-627.3 836.4,-637.89 842.98,-635.49"/>
</g>
<!-- numba&#45;&gt;eko_kernels_singlet -->
<g id="edge50" class="edge">
<title>numba&#45;&gt;eko_kernels_singlet</title><style>.edge>path:hover{stroke-width:8}</style>
<path fill="none" stroke="black" d="M483.13,-691.92C441.46,-656.24 477.33,-623.2 464.13,-569.95 456.9,-540.76 418.27,-524.26 442.13,-505.96"/>
</g>
<!-- numba&#45;&gt;eko_kernels_utils -->
<g id="edge51" class="edge">
<title>numba&#45;&gt;eko_kernels_utils</title><style>.edge>path:hover{stroke-width:8}</style>
<path fill="none" stroke="black" d="M912.13,-940.9C933.6,-910.78 884.67,-903.46 867.13,-870.9"/>
<path fill="none" stroke="black" d="M867.13,-868.9C851.49,-839.84 837.23,-840.41 815.13,-815.9 792.73,-791.05 794.53,-777.12 767.13,-757.91 755.79,-749.96 682.3,-724.91 633.08,-708.61"/>
<polygon fill="#c0ef06" stroke="black" points="633.88,-705.18 623.28,-705.37 631.68,-711.83 633.88,-705.18"/>
</g>
<!-- numba&#45;&gt;eko_mellin -->
<g id="edge52" class="edge">
<title>numba&#45;&gt;eko_mellin</title><style>.edge>path:hover{stroke-width:8}</style>
<path fill="none" stroke="black" d="M912.13,-940.9C928.28,-918.25 954.13,-900.33 975.37,-888.3"/>
<polygon fill="#c0ef06" stroke="black" points="977.04,-891.37 984.14,-883.5 973.69,-885.22 977.04,-891.37"/>
</g>
<!-- numba&#45;&gt;eko_operator -->
<g id="edge53" class="edge">
<title>numba&#45;&gt;eko_operator</title><style>.edge>path:hover{stroke-width:8}</style>
<path fill="none" stroke="black" d="M912.13,-940.9C931.88,-913.19 930.96,-902.67 943.13,-870.9"/>
<path fill="none" stroke="black" d="M943.13,-868.9C957.36,-831.77 909.8,-827.39 905.13,-787.91"/>
<path fill="none" stroke="black" d="M905.13,-785.91C890.55,-662.34 949.27,-622.29 905.13,-505.96"/>
</g>
<!-- numba&#45;&gt;eko_strong_coupling -->
<g id="edge54" class="edge">
<title>numba&#45;&gt;eko_strong_coupling</title><style>.edge>path:hover{stroke-width:8}</style>
<path fill="none" stroke="black" d="M943.13,-868.9C952.58,-844.26 974.51,-824.65 994.81,-810.91"/>
<polygon fill="#c0ef06" stroke="black" points="996.87,-813.74 1003.37,-805.38 993.07,-807.86 996.87,-813.74"/>
</g>
<!-- numpy -->
<g id="node26" class="node">
<title>numpy</title><style>.edge>path:hover{stroke-width:8}</style>
<ellipse fill="#06f967" stroke="black" cx="589.13" cy="-1157.9" rx="29.37" ry="18"/>
<text text-anchor="middle" x="589.13" y="-1155.4" font-family="Helvetica,sans-Serif" font-size="10.00" fill="#000000">numpy</text>
</g>
<!-- numpy&#45;&gt;eko_anomalous_dimensions -->
<g id="edge55" class="edge">
<title>numpy&#45;&gt;eko_anomalous_dimensions</title><style>.edge>path:hover{stroke-width:8}</style>
<path fill="none" stroke="black" d="M223.13,-1012.9C145.44,-947.71 167.26,-887.73 185.13,-787.91"/>
<path fill="none" stroke="black" d="M185.13,-785.91C200.04,-747.84 174.96,-733.52 185.13,-693.92"/>
<path fill="none" stroke="black" d="M185.13,-691.92C188.88,-677.36 192.44,-673.38 204.13,-663.93 229.67,-643.29 262.76,-628.52 292.05,-618.41"/>
<polygon fill="#06f967" stroke="black" points="293.43,-621.64 301.82,-615.16 291.22,-615 293.43,-621.64"/>
</g>
<!-- numpy&#45;&gt;eko_anomalous_dimensions_harmonics -->
<g id="edge56" class="edge">
<title>numpy&#45;&gt;eko_anomalous_dimensions_harmonics</title><style>.edge>path:hover{stroke-width:8}</style>
<path fill="none" stroke="black" d="M447.13,-1084.9C395.25,-1050.99 352.64,-1083.38 318.13,-1031.9 309.23,-1018.61 310.78,-1010.1 318.13,-995.9 336.9,-959.65 388.77,-983.48 393.13,-942.9"/>
<path fill="none" stroke="black" d="M393.13,-940.9C395.35,-909.86 412.15,-895.52 393.13,-870.9"/>
<path fill="none" stroke="black" d="M393.13,-868.9C379.98,-851.86 363.22,-835.1 348.06,-821.28"/>
<polygon fill="#06f967" stroke="black" points="350.09,-818.4 340.3,-814.34 345.42,-823.62 350.09,-818.4"/>
</g>
<!-- numpy&#45;&gt;eko_anomalous_dimensions_lo -->
<g id="edge57" class="edge">
<title>numpy&#45;&gt;eko_anomalous_dimensions_lo</title><style>.edge>path:hover{stroke-width:8}</style>
<path fill="none" stroke="black" d="M447.13,-1084.9C441.6,-1080.94 508.99,-904.54 539.53,-825.51"/>
<polygon fill="#06f967" stroke="black" points="542.9,-826.52 543.24,-815.93 536.37,-823.99 542.9,-826.52"/>
</g>
<!-- numpy&#45;&gt;eko_anomalous_dimensions_nlo -->
<g id="edge58" class="edge">
<title>numpy&#45;&gt;eko_anomalous_dimensions_nlo</title><style>.edge>path:hover{stroke-width:8}</style>
<path fill="none" stroke="black" d="M185.13,-785.91C190.39,-756.56 214.52,-735.3 240.03,-720.66"/>
<polygon fill="#06f967" stroke="black" points="241.96,-723.6 249.09,-715.76 238.63,-717.44 241.96,-723.6"/>
</g>
<!-- numpy&#45;&gt;eko_basis_rotation -->
<g id="edge59" class="edge">
<title>numpy&#45;&gt;eko_basis_rotation</title><style>.edge>path:hover{stroke-width:8}</style>
<path fill="none" stroke="black" d="M165.13,-597.94C171.97,-578.27 171.84,-554.77 170.07,-536.45"/>
<polygon fill="#06f967" stroke="black" points="173.52,-535.85 168.88,-526.33 166.57,-536.67 173.52,-535.85"/>
</g>
<!-- numpy&#45;&gt;eko_interpolation -->
<g id="edge60" class="edge">
<title>numpy&#45;&gt;eko_interpolation</title><style>.edge>path:hover{stroke-width:8}</style>
<path fill="none" stroke="black" d="M1110.13,-503.96C1101.63,-463.97 1111.06,-452.84 1110.13,-411.97"/>
</g>
<!-- numpy&#45;&gt;eko_kernels_evolution_integrals -->
<g id="edge61" class="edge">
<title>numpy&#45;&gt;eko_kernels_evolution_integrals</title><style>.edge>path:hover{stroke-width:8}</style>
<path fill="none" stroke="black" d="M1131.13,-868.9C1121.96,-834.09 1149.57,-818.82 1131.13,-787.91"/>
<path fill="none" stroke="black" d="M1131.13,-785.91C1123.43,-772.99 1124.73,-766.12 1112.13,-757.91 1089.89,-743.42 940.03,-719.64 843.45,-705.51"/>
<polygon fill="#06f967" stroke="black" points="843.81,-702.03 833.41,-704.05 842.8,-708.96 843.81,-702.03"/>
</g>
<!-- numpy&#45;&gt;eko_kernels_non_singlet -->
<g id="edge62" class="edge">
<title>numpy&#45;&gt;eko_kernels_non_singlet</title><style>.edge>path:hover{stroke-width:8}</style>
<path fill="none" stroke="black" d="M1131.13,-785.91C1123.43,-772.99 1123.25,-768.04 1112.13,-757.91 1040.89,-693.02 938.23,-644.82 876.95,-619.65"/>
<polygon fill="#06f967" stroke="black" points="878.06,-616.33 867.48,-615.81 875.43,-622.81 878.06,-616.33"/>
</g>
<!-- numpy&#45;&gt;eko_kernels_singlet -->
<g id="edge63" class="edge">
<title>numpy&#45;&gt;eko_kernels_singlet</title><style>.edge>path:hover{stroke-width:8}</style>
<path fill="none" stroke="black" d="M147.13,-940.9C77.61,-838.76 112.27,-772.56 171.13,-663.93 183.5,-641.11 199.02,-646.52 217.13,-627.93 239.52,-604.95 233.96,-588.51 260.13,-569.95 330.08,-520.35 373.23,-556.98 442.13,-505.96"/>
<path fill="none" stroke="black" d="M442.13,-503.96C498.82,-462.15 523.73,-470.65 587.13,-439.97 591.42,-437.89 595.86,-435.67 600.27,-433.41"/>
<polygon fill="#06f967" stroke="black" points="601.95,-436.48 609.21,-428.77 598.72,-430.27 601.95,-436.48"/>
</g>
<!-- numpy&#45;&gt;eko_kernels_utils -->
<g id="edge64" class="edge">
<title>numpy&#45;&gt;eko_kernels_utils</title><style>.edge>path:hover{stroke-width:8}</style>
<path fill="none" stroke="black" d="M447.13,-1084.9C416.95,-1064.67 430.44,-788.45 450.13,-757.91 460.93,-741.18 506.9,-721.95 542.86,-708.98"/>
<polygon fill="#06f967" stroke="black" points="544.44,-712.13 552.7,-705.49 542.1,-705.53 544.44,-712.13"/>
</g>
<!-- numpy&#45;&gt;eko_mellin -->
<g id="edge65" class="edge">
<title>numpy&#45;&gt;eko_mellin</title><style>.edge>path:hover{stroke-width:8}</style>
<path fill="none" stroke="black" d="M618.82,-1156.73C757.22,-1155.27 1330.14,-1141.62 1277.13,-1014.9"/>
<path fill="none" stroke="black" d="M1277.13,-1012.9C1273.9,-951.82 1201.87,-992.52 1150.13,-959.9 1140.55,-953.85 1140.04,-949.91 1131.13,-942.9"/>
<path fill="none" stroke="black" d="M1131.13,-940.9C1104.75,-920.12 1071.58,-901.24 1046.8,-888.34"/>
<polygon fill="#06f967" stroke="black" points="1048.24,-885.14 1037.74,-883.69 1045.05,-891.37 1048.24,-885.14"/>
</g>
<!-- numpy&#45;&gt;eko_operator -->
<g id="edge66" class="edge">
<title>numpy&#45;&gt;eko_operator</title><style>.edge>path:hover{stroke-width:8}</style>
<path fill="none" stroke="black" d="M1131.13,-785.91C1069.15,-677.62 1136.1,-628 1110.13,-505.96"/>
<path fill="none" stroke="black" d="M1110.13,-503.96C1103.23,-444.52 1086.4,-431.72 1053.13,-381.98 1041.07,-363.94 1033.6,-363.01 1020.13,-345.98 1010.81,-334.19 1010.69,-329.6 1001.13,-317.99"/>
</g>
<!-- numpy&#45;&gt;eko_operator_grid -->
<g id="edge67" class="edge">
<title>numpy&#45;&gt;eko_operator_grid</title><style>.edge>path:hover{stroke-width:8}</style>
<path fill="none" stroke="black" d="M565.32,-1147.28C536.31,-1135.09 486.34,-1112.56 447.13,-1086.9"/>
<path fill="none" stroke="black" d="M447.13,-1084.9C370.19,-1034.53 330.42,-1070.87 247.13,-1031.9 235.29,-1026.36 234.04,-1022.1 223.13,-1014.9"/>
<path fill="none" stroke="black" d="M223.13,-1012.9C184.81,-987.6 174.89,-979.48 147.13,-942.9"/>
<path fill="none" stroke="black" d="M147.13,-940.9C127.19,-914.61 107.62,-918.44 95.13,-887.9 57.48,-795.75 54.99,-755.02 95.13,-663.93 112.13,-625.36 151.3,-639.76 165.13,-599.94"/>
<path fill="none" stroke="black" d="M165.13,-597.94C168.21,-587.78 119.69,-554.33 82.92,-530.71"/>
<polygon fill="#06f967" stroke="black" points="84.65,-527.66 74.34,-525.23 80.89,-533.56 84.65,-527.66"/>
</g>
<!-- numpy&#45;&gt;eko_operator_member -->
<g id="edge68" class="edge">
<title>numpy&#45;&gt;eko_operator_member</title><style>.edge>path:hover{stroke-width:8}</style>
<path fill="none" stroke="black" d="M254.13,-503.96C257.62,-486.62 258.09,-467.07 257.5,-450.46"/>
<polygon fill="#06f967" stroke="black" points="260.98,-449.85 256.98,-440.03 253.98,-450.19 260.98,-449.85"/>
</g>
<!-- numpy&#45;&gt;eko_output -->
<g id="edge69" class="edge">
<title>numpy&#45;&gt;eko_output</title><style>.edge>path:hover{stroke-width:8}</style>
<path fill="none" stroke="black" d="M165.13,-597.94C169.17,-584.63 169.84,-580.3 179.13,-569.95 208.41,-537.34 245.49,-548.91 254.13,-505.96"/>
<path fill="none" stroke="black" d="M254.13,-503.96C264.32,-453.33 173.58,-462.73 183.13,-411.97"/>
</g>
<!-- numpy&#45;&gt;eko_strong_coupling -->
<g id="edge70" class="edge">
<title>numpy&#45;&gt;eko_strong_coupling</title><style>.edge>path:hover{stroke-width:8}</style>
<path fill="none" stroke="black" d="M1131.13,-940.9C1106.69,-921.65 1139.06,-900.98 1131.13,-870.9"/>
<path fill="none" stroke="black" d="M1131.13,-868.9C1124.43,-843.45 1102.72,-823.84 1081.85,-810.3"/>
<polygon fill="#06f967" stroke="black" points="1083.66,-807.31 1073.31,-805.05 1079.99,-813.27 1083.66,-807.31"/>
</g>
<!-- numpy&#45;&gt;eko_thresholds -->
<g id="edge71" class="edge">
<title>numpy&#45;&gt;eko_thresholds</title><style>.edge>path:hover{stroke-width:8}</style>
<path fill="none" stroke="black" d="M1277.13,-1012.9C1274.99,-972.51 1276.38,-960 1258.13,-923.9 1252.7,-913.14 1244.54,-902.85 1236.53,-894.25"/>
<polygon fill="#06f967" stroke="black" points="1238.8,-891.56 1229.31,-886.86 1233.8,-896.46 1238.8,-891.56"/>
</g>
<!-- scipy -->
<g id="node27" class="node">
<title>scipy</title><style>.edge>path:hover{stroke-width:8}</style>
<ellipse fill="#0663ef" stroke="black" cx="589.13" cy="-1085.9" rx="27" ry="18"/>
<text text-anchor="middle" x="589.13" y="-1083.4" font-family="Helvetica,sans-Serif" font-size="10.00" fill="#ffffff">scipy</text>
</g>
<!-- numpy&#45;&gt;scipy -->
<g id="edge72" class="edge">
<title>numpy&#45;&gt;scipy</title><style>.edge>path:hover{stroke-width:8}</style>
<path fill="none" stroke="black" d="M589.13,-1139.59C589.13,-1131.88 589.13,-1122.61 589.13,-1114.01"/>
<polygon fill="#06f967" stroke="black" points="592.63,-1114 589.13,-1104 585.63,-1114 592.63,-1114"/>
</g>
<!-- scipy&#45;&gt;eko_anomalous_dimensions_harmonics -->
<g id="edge73" class="edge">
<title>scipy&#45;&gt;eko_anomalous_dimensions_harmonics</title><style>.edge>path:hover{stroke-width:8}</style>
<path fill="none" stroke="black" d="M567.51,-1074.82C516.1,-1050.14 390.96,-985.6 393.13,-942.9"/>
</g>
<!-- scipy&#45;&gt;eko_operator -->
<g id="edge74" class="edge">
<title>scipy&#45;&gt;eko_operator</title><style>.edge>path:hover{stroke-width:8}</style>
<path fill="none" stroke="black" d="M563.13,-1080.96C499.3,-1071.15 338.59,-1045.39 318.13,-1031.9 221.2,-967.95 223.48,-919.55 171.13,-815.9 139.98,-754.2 109.63,-726.89 138.13,-663.93 148.13,-641.84 163.23,-646.24 179.13,-627.93 199.34,-604.67 193.63,-589.87 217.13,-569.95 270.87,-524.4 305.8,-548.24 362.13,-505.96"/>
<path fill="none" stroke="black" d="M362.13,-503.96C481.7,-415.64 556.34,-440.77 640.13,-317.99"/>
</g>
<!-- scipy&#45;&gt;eko_strong_coupling -->
<g id="edge75" class="edge">
<title>scipy&#45;&gt;eko_strong_coupling</title><style>.edge>path:hover{stroke-width:8}</style>
<path fill="none" stroke="black" d="M616.04,-1083.82C700.91,-1078.78 963.14,-1050.13 1060.13,-887.9 1073.05,-866.29 1064.69,-838.06 1054.62,-817.1"/>
<polygon fill="#0663ef" stroke="black" points="1057.63,-815.32 1049.93,-808.04 1051.41,-818.53 1057.63,-815.32"/>
</g>
<!-- scipy&#45;&gt;numba -->
<g id="edge76" class="edge">
<title>scipy&#45;&gt;numba</title><style>.edge>path:hover{stroke-width:8}</style>
<path fill="none" stroke="black" d="M599.12,-1069.01C604.55,-1060.37 611.4,-1049.47 617.52,-1039.73"/>
<polygon fill="#0663ef" stroke="black" points="620.52,-1041.53 622.88,-1031.2 614.6,-1037.81 620.52,-1041.53"/>
</g>
<!-- scipy_integrate -->
<g id="node28" class="node">
<title>scipy_integrate</title><style>.edge>path:hover{stroke-width:8}</style>
<ellipse fill="#4c75b3" stroke="black" cx="1001.13" cy="-410.97" rx="43.27" ry="21.43"/>
<text text-anchor="middle" x="1001.13" y="-413.97" font-family="Helvetica,sans-Serif" font-size="10.00" fill="#ffffff">scipy.</text>
<text text-anchor="middle" x="1001.13" y="-402.97" font-family="Helvetica,sans-Serif" font-size="10.00" fill="#ffffff">integrate</text>
</g>
<!-- scipy_integrate&#45;&gt;eko_operator -->
<g id="edge77" class="edge">
<title>scipy_integrate&#45;&gt;eko_operator</title><style>.edge>path:hover{stroke-width:8}</style>
<path fill="none" stroke="black" d="M1007.65,-389.76C1012.84,-369.44 1016.91,-338.29 1001.13,-317.99"/>
</g>
<!-- scipy_special -->
<g id="node29" class="node">
<title>scipy_special</title><style>.edge>path:hover{stroke-width:8}</style>
<ellipse fill="#3d6eb8" stroke="black" cx="373.13" cy="-1013.9" rx="45.83" ry="18"/>
<text text-anchor="middle" x="373.13" y="-1011.4" font-family="Helvetica,sans-Serif" font-size="10.00" fill="#ffffff">scipy.special</text>
</g>
<!-- scipy_special&#45;&gt;eko_anomalous_dimensions_harmonics -->
<g id="edge78" class="edge">
<title>scipy_special&#45;&gt;eko_anomalous_dimensions_harmonics</title><style>.edge>path:hover{stroke-width:8}</style>
<path fill="none" stroke="black" d="M380.3,-996.01C385.65,-982.06 392.18,-961.58 393.13,-942.9"/>
</g>
<!-- yaml -->
<g id="node30" class="node">
<title>yaml</title><style>.edge>path:hover{stroke-width:8}</style>
<ellipse fill="#a253b6" stroke="black" cx="309.13" cy="-316.99" rx="27" ry="18"/>
<text text-anchor="middle" x="309.13" y="-314.49" font-family="Helvetica,sans-Serif" font-size="10.00" fill="#ffffff">yaml</text>
</g>
<!-- yaml&#45;&gt;eko_output -->
<g id="edge79" class="edge">
<title>yaml&#45;&gt;eko_output</title><style>.edge>path:hover{stroke-width:8}</style>
<path fill="none" stroke="black" d="M303.84,-299.06C299.43,-281.36 295.77,-253.62 309.13,-235"/>
</g>
</g>
</svg>
