<?xml version="1.0" encoding="UTF-8" standalone="no"?>
<!DOCTYPE svg PUBLIC "-//W3C//DTD SVG 1.1//EN"
 "http://www.w3.org/Graphics/SVG/1.1/DTD/svg11.dtd">
<!-- Generated by graphviz version 2.43.0 (0)
 -->
<!-- Title: G Pages: 1 -->
<svg width="1309pt" height="1256pt"
 viewBox="0.00 0.00 1308.95 1255.73" xmlns="http://www.w3.org/2000/svg" xmlns:xlink="http://www.w3.org/1999/xlink">
<g id="graph0" class="graph" transform="scale(1 1) rotate(0) translate(4 1251.73)">
<title>G</title><style>.edge>path:hover{stroke-width:8}</style>
<polygon fill="white" stroke="transparent" points="-4,4 -4,-1251.73 1304.95,-1251.73 1304.95,4 -4,4"/>
<!-- eko -->
<g id="node1" class="node">
<title>eko</title><style>.edge>path:hover{stroke-width:8}</style>
<ellipse fill="#ef0606" stroke="black" cx="1075.31" cy="-18" rx="27" ry="18"/>
<text text-anchor="middle" x="1075.31" y="-15.5" font-family="Helvetica,sans-Serif" font-size="10.00" fill="#ffffff">eko</text>
</g>
<!-- eko_anomalous_dimensions -->
<g id="node2" class="node">
<title>eko_anomalous_dimensions</title><style>.edge>path:hover{stroke-width:8}</style>
<ellipse fill="#a51d1d" stroke="black" cx="610.31" cy="-664.35" rx="93.18" ry="21.43"/>
<text text-anchor="middle" x="610.31" y="-667.35" font-family="Helvetica,sans-Serif" font-size="10.00" fill="#ffffff">eko.</text>
<text text-anchor="middle" x="610.31" y="-656.35" font-family="Helvetica,sans-Serif" font-size="10.00" fill="#ffffff">anomalous_dimensions</text>
</g>
<!-- eko_kernels_singlet -->
<g id="node14" class="node">
<title>eko_kernels_singlet</title><style>.edge>path:hover{stroke-width:8}</style>
<ellipse fill="#8a2e2e" stroke="black" cx="419.31" cy="-491.94" rx="38.78" ry="28.98"/>
<text text-anchor="middle" x="419.31" y="-500.44" font-family="Helvetica,sans-Serif" font-size="10.00" fill="#ffffff">eko.</text>
<text text-anchor="middle" x="419.31" y="-489.44" font-family="Helvetica,sans-Serif" font-size="10.00" fill="#ffffff">kernels.</text>
<text text-anchor="middle" x="419.31" y="-478.44" font-family="Helvetica,sans-Serif" font-size="10.00" fill="#ffffff">singlet</text>
</g>
<!-- eko_anomalous_dimensions&#45;&gt;eko_kernels_singlet -->
<g id="edge1" class="edge">
<title>eko_anomalous_dimensions&#45;&gt;eko_kernels_singlet</title><style>.edge>path:hover{stroke-width:8}</style>
<path fill="none" stroke="black" d="M548.12,-648.51C512.53,-636.36 471.12,-615.13 451.31,-579.14"/>
</g>
<!-- eko_operator_operator -->
<g id="node20" class="node">
<title>eko_operator_operator</title><style>.edge>path:hover{stroke-width:8}</style>
<ellipse fill="#732626" stroke="black" cx="862.31" cy="-303.97" rx="43.27" ry="28.98"/>
<text text-anchor="middle" x="862.31" y="-312.47" font-family="Helvetica,sans-Serif" font-size="10.00" fill="#ffffff">eko.</text>
<text text-anchor="middle" x="862.31" y="-301.47" font-family="Helvetica,sans-Serif" font-size="10.00" fill="#ffffff">operator.</text>
<text text-anchor="middle" x="862.31" y="-290.47" font-family="Helvetica,sans-Serif" font-size="10.00" fill="#ffffff">operator</text>
</g>
<!-- eko_anomalous_dimensions&#45;&gt;eko_operator_operator -->
<g id="edge2" class="edge">
<title>eko_anomalous_dimensions&#45;&gt;eko_operator_operator</title><style>.edge>path:hover{stroke-width:8}</style>
<path fill="none" stroke="black" d="M606.75,-642.97C601.4,-611.1 591.55,-547.43 588.31,-492.94"/>
</g>
<!-- eko_anomalous_dimensions_lo -->
<g id="node3" class="node">
<title>eko_anomalous_dimensions_lo</title><style>.edge>path:hover{stroke-width:8}</style>
<ellipse fill="#a83838" stroke="black" cx="688.31" cy="-852.31" rx="95.42" ry="28.98"/>
<text text-anchor="middle" x="688.31" y="-860.81" font-family="Helvetica,sans-Serif" font-size="10.00" fill="#ffffff">eko.</text>
<text text-anchor="middle" x="688.31" y="-849.81" font-family="Helvetica,sans-Serif" font-size="10.00" fill="#ffffff">anomalous_dimensions.</text>
<text text-anchor="middle" x="688.31" y="-838.81" font-family="Helvetica,sans-Serif" font-size="10.00" fill="#ffffff">lo</text>
</g>
<!-- eko_anomalous_dimensions_lo&#45;&gt;eko_anomalous_dimensions -->
<g id="edge3" class="edge">
<title>eko_anomalous_dimensions_lo&#45;&gt;eko_anomalous_dimensions</title><style>.edge>path:hover{stroke-width:8}</style>
<path fill="none" stroke="black" d="M676.63,-823.47C662.14,-788.93 637.54,-730.27 622.72,-694.94"/>
<polygon fill="#a83838" stroke="black" points="625.91,-693.5 618.81,-685.63 619.45,-696.2 625.91,-693.5"/>
</g>
<!-- eko_anomalous_dimensions_nlo -->
<g id="node4" class="node">
<title>eko_anomalous_dimensions_nlo</title><style>.edge>path:hover{stroke-width:8}</style>
<ellipse fill="#a13535" stroke="black" cx="771.31" cy="-758.33" rx="95.42" ry="28.98"/>
<text text-anchor="middle" x="771.31" y="-766.83" font-family="Helvetica,sans-Serif" font-size="10.00" fill="#ffffff">eko.</text>
<text text-anchor="middle" x="771.31" y="-755.83" font-family="Helvetica,sans-Serif" font-size="10.00" fill="#ffffff">anomalous_dimensions.</text>
<text text-anchor="middle" x="771.31" y="-744.83" font-family="Helvetica,sans-Serif" font-size="10.00" fill="#ffffff">nlo</text>
</g>
<!-- eko_anomalous_dimensions_nlo&#45;&gt;eko_anomalous_dimensions -->
<g id="edge4" class="edge">
<title>eko_anomalous_dimensions_nlo&#45;&gt;eko_anomalous_dimensions</title><style>.edge>path:hover{stroke-width:8}</style>
<path fill="none" stroke="black" d="M727.74,-732.44C704.31,-719.05 675.55,-702.62 652.36,-689.37"/>
<polygon fill="#a13535" stroke="black" points="653.86,-686.2 643.44,-684.28 650.39,-692.28 653.86,-686.2"/>
</g>
<!-- eko_basis_rotation -->
<g id="node5" class="node">
<title>eko_basis_rotation</title><style>.edge>path:hover{stroke-width:8}</style>
<ellipse fill="#c04040" stroke="black" cx="1202.31" cy="-578.14" rx="60.62" ry="21.43"/>
<text text-anchor="middle" x="1202.31" y="-581.14" font-family="Helvetica,sans-Serif" font-size="10.00" fill="#ffffff">eko.</text>
<text text-anchor="middle" x="1202.31" y="-570.14" font-family="Helvetica,sans-Serif" font-size="10.00" fill="#ffffff">basis_rotation</text>
</g>
<!-- eko_output -->
<g id="node22" class="node">
<title>eko_output</title><style>.edge>path:hover{stroke-width:8}</style>
<ellipse fill="#8a2e2e" stroke="black" cx="1143.31" cy="-209.99" rx="40.06" ry="18"/>
<text text-anchor="middle" x="1143.31" y="-207.49" font-family="Helvetica,sans-Serif" font-size="10.00" fill="#ffffff">eko.output</text>
</g>
<!-- eko_basis_rotation&#45;&gt;eko_output -->
<g id="edge5" class="edge">
<title>eko_basis_rotation&#45;&gt;eko_output</title><style>.edge>path:hover{stroke-width:8}</style>
<path fill="none" stroke="black" d="M1234.36,-559.99C1256.82,-545.63 1284.08,-522.7 1291.31,-492.94"/>
<path fill="none" stroke="black" d="M1291.31,-490.94C1305.43,-432.79 1276.06,-411.83 1234.31,-368.97 1199.81,-333.54 1151.03,-353.81 1143.31,-304.97"/>
</g>
<!-- eko_beta -->
<g id="node6" class="node">
<title>eko_beta</title><style>.edge>path:hover{stroke-width:8}</style>
<ellipse fill="#df0b0b" stroke="black" cx="552.31" cy="-935.31" rx="34.96" ry="18"/>
<text text-anchor="middle" x="552.31" y="-932.81" font-family="Helvetica,sans-Serif" font-size="10.00" fill="#ffffff">eko.beta</text>
</g>
<!-- eko_kernels_evolution_integrals -->
<g id="node12" class="node">
<title>eko_kernels_evolution_integrals</title><style>.edge>path:hover{stroke-width:8}</style>
<ellipse fill="#b42d2d" stroke="black" cx="345.31" cy="-758.33" rx="77.56" ry="28.98"/>
<text text-anchor="middle" x="345.31" y="-766.83" font-family="Helvetica,sans-Serif" font-size="10.00" fill="#ffffff">eko.</text>
<text text-anchor="middle" x="345.31" y="-755.83" font-family="Helvetica,sans-Serif" font-size="10.00" fill="#ffffff">kernels.</text>
<text text-anchor="middle" x="345.31" y="-744.83" font-family="Helvetica,sans-Serif" font-size="10.00" fill="#ffffff">evolution_integrals</text>
</g>
<!-- eko_beta&#45;&gt;eko_kernels_evolution_integrals -->
<g id="edge6" class="edge">
<title>eko_beta&#45;&gt;eko_kernels_evolution_integrals</title><style>.edge>path:hover{stroke-width:8}</style>
<path fill="none" stroke="black" d="M530.92,-920.85C508.94,-906.23 474.72,-881.2 451.31,-853.31"/>
<path fill="none" stroke="black" d="M451.31,-851.31C432.64,-829.07 408.38,-807.6 387.78,-791.01"/>
<polygon fill="#df0b0b" stroke="black" points="389.8,-788.14 379.79,-784.67 385.45,-793.63 389.8,-788.14"/>
</g>
<!-- eko_kernels_non_singlet -->
<g id="node13" class="node">
<title>eko_kernels_non_singlet</title><style>.edge>path:hover{stroke-width:8}</style>
<ellipse fill="#913030" stroke="black" cx="121.31" cy="-664.35" rx="51.74" ry="28.98"/>
<text text-anchor="middle" x="121.31" y="-672.85" font-family="Helvetica,sans-Serif" font-size="10.00" fill="#ffffff">eko.</text>
<text text-anchor="middle" x="121.31" y="-661.85" font-family="Helvetica,sans-Serif" font-size="10.00" fill="#ffffff">kernels.</text>
<text text-anchor="middle" x="121.31" y="-650.85" font-family="Helvetica,sans-Serif" font-size="10.00" fill="#ffffff">non_singlet</text>
</g>
<!-- eko_beta&#45;&gt;eko_kernels_non_singlet -->
<g id="edge7" class="edge">
<title>eko_beta&#45;&gt;eko_kernels_non_singlet</title><style>.edge>path:hover{stroke-width:8}</style>
<path fill="none" stroke="black" d="M451.31,-851.31C416.04,-809.29 470.15,-769.06 432.31,-729.34 398.67,-694.03 262.97,-676.96 182.36,-669.79"/>
<polygon fill="#df0b0b" stroke="black" points="182.59,-666.29 172.33,-668.92 181.99,-673.27 182.59,-666.29"/>
</g>
<!-- eko_beta&#45;&gt;eko_kernels_singlet -->
<g id="edge8" class="edge">
<title>eko_beta&#45;&gt;eko_kernels_singlet</title><style>.edge>path:hover{stroke-width:8}</style>
<path fill="none" stroke="black" d="M549.15,-917.09C541.08,-874.1 518.28,-758.8 489.31,-665.35"/>
<path fill="none" stroke="black" d="M489.31,-663.35C479.41,-623.5 471.11,-615.11 451.31,-579.14"/>
</g>
<!-- eko_beta&#45;&gt;eko_operator_operator -->
<g id="edge9" class="edge">
<title>eko_beta&#45;&gt;eko_operator_operator</title><style>.edge>path:hover{stroke-width:8}</style>
<path fill="none" stroke="black" d="M489.31,-663.35C468.2,-578.34 595.27,-580.25 588.31,-492.94"/>
<path fill="none" stroke="black" d="M588.31,-490.94C578.21,-440.57 490.37,-442.07 518.31,-398.96"/>
</g>
<!-- eko_strong_coupling -->
<g id="node24" class="node">
<title>eko_strong_coupling</title><style>.edge>path:hover{stroke-width:8}</style>
<ellipse fill="#913030" stroke="black" cx="905.31" cy="-852.31" rx="66.44" ry="21.43"/>
<text text-anchor="middle" x="905.31" y="-855.31" font-family="Helvetica,sans-Serif" font-size="10.00" fill="#ffffff">eko.</text>
<text text-anchor="middle" x="905.31" y="-844.31" font-family="Helvetica,sans-Serif" font-size="10.00" fill="#ffffff">strong_coupling</text>
</g>
<!-- eko_beta&#45;&gt;eko_strong_coupling -->
<g id="edge10" class="edge">
<title>eko_beta&#45;&gt;eko_strong_coupling</title><style>.edge>path:hover{stroke-width:8}</style>
<path fill="none" stroke="black" d="M579.56,-924.05C586.58,-921.63 594.17,-919.2 601.31,-917.31 684.79,-895.09 707.91,-899.7 792.31,-881.31 809.64,-877.53 828.37,-873.05 845.51,-868.8"/>
<polygon fill="#df0b0b" stroke="black" points="846.53,-872.15 855.39,-866.33 844.84,-865.36 846.53,-872.15"/>
</g>
<!-- eko_constants -->
<g id="node7" class="node">
<title>eko_constants</title><style>.edge>path:hover{stroke-width:8}</style>
<ellipse fill="#e72222" stroke="black" cx="806.31" cy="-1007.31" rx="49.4" ry="18"/>
<text text-anchor="middle" x="806.31" y="-1004.81" font-family="Helvetica,sans-Serif" font-size="10.00" fill="#ffffff">eko.constants</text>
</g>
<!-- eko_constants&#45;&gt;eko_anomalous_dimensions_lo -->
<g id="edge11" class="edge">
<title>eko_constants&#45;&gt;eko_anomalous_dimensions_lo</title><style>.edge>path:hover{stroke-width:8}</style>
<path fill="none" stroke="black" d="M808.45,-989.07C809.99,-974.91 811.73,-954.33 811.31,-936.31"/>
<path fill="none" stroke="black" d="M811.31,-934.31C810.69,-907.79 790.37,-889.46 766.42,-877.04"/>
<polygon fill="#e72222" stroke="black" points="767.63,-873.74 757.1,-872.57 764.6,-880.05 767.63,-873.74"/>
</g>
<!-- eko_constants&#45;&gt;eko_anomalous_dimensions_nlo -->
<g id="edge12" class="edge">
<title>eko_constants&#45;&gt;eko_anomalous_dimensions_nlo</title><style>.edge>path:hover{stroke-width:8}</style>
<path fill="none" stroke="black" d="M811.31,-934.31C810.18,-886.1 795.81,-832.25 784.61,-797.19"/>
<polygon fill="#e72222" stroke="black" points="787.83,-795.79 781.4,-787.37 781.18,-797.97 787.83,-795.79"/>
</g>
<!-- eko_constants&#45;&gt;eko_beta -->
<g id="edge13" class="edge">
<title>eko_constants&#45;&gt;eko_beta</title><style>.edge>path:hover{stroke-width:8}</style>
<path fill="none" stroke="black" d="M765.59,-996.81C724.03,-986.87 657.79,-970.37 601.31,-953.31 597.49,-952.15 593.53,-950.89 589.58,-949.59"/>
<polygon fill="#e72222" stroke="black" points="590.5,-946.2 579.91,-946.32 588.26,-952.84 590.5,-946.2"/>
</g>
<!-- eko_constants&#45;&gt;eko_strong_coupling -->
<g id="edge14" class="edge">
<title>eko_constants&#45;&gt;eko_strong_coupling</title><style>.edge>path:hover{stroke-width:8}</style>
<path fill="none" stroke="black" d="M811.31,-934.31C810.68,-907.38 833.09,-887.44 856.18,-874.08"/>
<polygon fill="#e72222" stroke="black" points="857.9,-877.13 865.02,-869.28 854.56,-870.98 857.9,-877.13"/>
</g>
<!-- eko_ekomath -->
<g id="node8" class="node">
<title>eko_ekomath</title><style>.edge>path:hover{stroke-width:8}</style>
<ellipse fill="#b42d2d" stroke="black" cx="958.31" cy="-935.31" rx="47.19" ry="18"/>
<text text-anchor="middle" x="958.31" y="-932.81" font-family="Helvetica,sans-Serif" font-size="10.00" fill="#ffffff">eko.ekomath</text>
</g>
<!-- eko_ekomath&#45;&gt;eko_anomalous_dimensions -->
<g id="edge15" class="edge">
<title>eko_ekomath&#45;&gt;eko_anomalous_dimensions</title><style>.edge>path:hover{stroke-width:8}</style>
<path fill="none" stroke="black" d="M981.11,-919.3C993.13,-909.97 1006.72,-896.8 1013.31,-881.31 1023.39,-857.59 1025.36,-846.1 1013.31,-823.32 946.14,-696.31 856.87,-727.49 717.31,-693.34 704.68,-690.25 691.24,-686.83 678.3,-683.48"/>
<polygon fill="#b42d2d" stroke="black" points="679.09,-680.07 668.53,-680.94 677.33,-686.85 679.09,-680.07"/>
</g>
<!-- eko_ekomath&#45;&gt;eko_anomalous_dimensions_nlo -->
<g id="edge16" class="edge">
<title>eko_ekomath&#45;&gt;eko_anomalous_dimensions_nlo</title><style>.edge>path:hover{stroke-width:8}</style>
<path fill="none" stroke="black" d="M976.09,-918.57C992.74,-901.87 1013.15,-874.96 999.31,-853.31"/>
<path fill="none" stroke="black" d="M999.31,-851.31C991.21,-838.65 992.41,-832.25 980.31,-823.32 947.1,-798.81 904.37,-783.58 866.22,-774.16"/>
<polygon fill="#b42d2d" stroke="black" points="866.64,-770.67 856.11,-771.77 865.04,-777.48 866.64,-770.67"/>
</g>
<!-- eko_flavours -->
<g id="node9" class="node">
<title>eko_flavours</title><style>.edge>path:hover{stroke-width:8}</style>
<ellipse fill="#c24747" stroke="black" cx="1106.31" cy="-1007.31" rx="45.15" ry="18"/>
<text text-anchor="middle" x="1106.31" y="-1004.81" font-family="Helvetica,sans-Serif" font-size="10.00" fill="#ffffff">eko.flavours</text>
</g>
<!-- eko_thresholds -->
<g id="node25" class="node">
<title>eko_thresholds</title><style>.edge>path:hover{stroke-width:8}</style>
<ellipse fill="#bc2f2f" stroke="black" cx="1113.31" cy="-935.31" rx="51.61" ry="18"/>
<text text-anchor="middle" x="1113.31" y="-932.81" font-family="Helvetica,sans-Serif" font-size="10.00" fill="#ffffff">eko.thresholds</text>
</g>
<!-- eko_flavours&#45;&gt;eko_thresholds -->
<g id="edge17" class="edge">
<title>eko_flavours&#45;&gt;eko_thresholds</title><style>.edge>path:hover{stroke-width:8}</style>
<path fill="none" stroke="black" d="M1108.04,-989C1108.81,-981.29 1109.74,-972.02 1110.6,-963.42"/>
<polygon fill="#c24747" stroke="black" points="1114.09,-963.71 1111.6,-953.41 1107.12,-963.01 1114.09,-963.71"/>
</g>
<!-- eko_interpolation -->
<g id="node10" class="node">
<title>eko_interpolation</title><style>.edge>path:hover{stroke-width:8}</style>
<ellipse fill="#d02424" stroke="black" cx="937.31" cy="-491.94" rx="55.72" ry="21.43"/>
<text text-anchor="middle" x="937.31" y="-494.94" font-family="Helvetica,sans-Serif" font-size="10.00" fill="#ffffff">eko.</text>
<text text-anchor="middle" x="937.31" y="-483.94" font-family="Helvetica,sans-Serif" font-size="10.00" fill="#ffffff">interpolation</text>
</g>
<!-- eko_interpolation&#45;&gt;eko_operator_operator -->
<g id="edge18" class="edge">
<title>eko_interpolation&#45;&gt;eko_operator_operator</title><style>.edge>path:hover{stroke-width:8}</style>
<path fill="none" stroke="black" d="M881.96,-488.72C759.12,-482.65 477.6,-461.77 518.31,-398.96"/>
</g>
<!-- eko_interpolation&#45;&gt;eko_output -->
<g id="edge19" class="edge">
<title>eko_interpolation&#45;&gt;eko_output</title><style>.edge>path:hover{stroke-width:8}</style>
<path fill="none" stroke="black" d="M1075.31,-302.97C1093.29,-280.7 1112.59,-254.34 1126.01,-235.56"/>
<polygon fill="#d02424" stroke="black" points="1128.97,-237.43 1131.92,-227.26 1123.27,-233.38 1128.97,-237.43"/>
</g>
<!-- eko_runner -->
<g id="node23" class="node">
<title>eko_runner</title><style>.edge>path:hover{stroke-width:8}</style>
<ellipse fill="#913030" stroke="black" cx="1075.31" cy="-90" rx="40.06" ry="18"/>
<text text-anchor="middle" x="1075.31" y="-87.5" font-family="Helvetica,sans-Serif" font-size="10.00" fill="#ffffff">eko.runner</text>
</g>
<!-- eko_interpolation&#45;&gt;eko_runner -->
<g id="edge20" class="edge">
<title>eko_interpolation&#45;&gt;eko_runner</title><style>.edge>path:hover{stroke-width:8}</style>
<path fill="none" stroke="black" d="M949.87,-471.03C965.59,-446.48 993.67,-403.73 1020.31,-368.97 1043.12,-339.2 1051.75,-334.16 1075.31,-304.97"/>
<path fill="none" stroke="black" d="M1075.31,-302.97C1109.6,-241.71 1082.79,-214.81 1075.31,-145"/>
</g>
<!-- eko_kernels -->
<g id="node11" class="node">
<title>eko_kernels</title><style>.edge>path:hover{stroke-width:8}</style>
<ellipse fill="#db2f2f" stroke="black" cx="518.31" cy="-491.94" rx="42.27" ry="18"/>
<text text-anchor="middle" x="518.31" y="-489.44" font-family="Helvetica,sans-Serif" font-size="10.00" fill="#ffffff">eko.kernels</text>
</g>
<!-- eko_kernels&#45;&gt;eko_operator_operator -->
<g id="edge21" class="edge">
<title>eko_kernels&#45;&gt;eko_operator_operator</title><style>.edge>path:hover{stroke-width:8}</style>
<path fill="none" stroke="black" d="M513.14,-473.79C508.28,-454.05 503.72,-421.47 518.31,-398.96"/>
</g>
<!-- eko_kernels_evolution_integrals&#45;&gt;eko_kernels_non_singlet -->
<g id="edge22" class="edge">
<title>eko_kernels_evolution_integrals&#45;&gt;eko_kernels_non_singlet</title><style>.edge>path:hover{stroke-width:8}</style>
<path fill="none" stroke="black" d="M294.2,-736.34C257.45,-721.26 208.15,-701.01 171.59,-686"/>
<polygon fill="#b42d2d" stroke="black" points="172.7,-682.67 162.12,-682.11 170.04,-689.14 172.7,-682.67"/>
</g>
<!-- eko_kernels_evolution_integrals&#45;&gt;eko_kernels_singlet -->
<g id="edge23" class="edge">
<title>eko_kernels_evolution_integrals&#45;&gt;eko_kernels_singlet</title><style>.edge>path:hover{stroke-width:8}</style>
<path fill="none" stroke="black" d="M392.8,-735.27C418.38,-719.96 445.82,-696.67 451.31,-665.35"/>
<path fill="none" stroke="black" d="M451.31,-663.35C457.77,-626.49 469.36,-611.93 451.31,-579.14"/>
<path fill="none" stroke="black" d="M451.31,-577.14C443.14,-562.31 436.16,-544.96 430.82,-529.88"/>
<polygon fill="#b42d2d" stroke="black" points="434.1,-528.67 427.55,-520.34 427.48,-530.93 434.1,-528.67"/>
</g>
<!-- eko_kernels_non_singlet&#45;&gt;eko_operator_operator -->
<g id="edge24" class="edge">
<title>eko_kernels_non_singlet&#45;&gt;eko_operator_operator</title><style>.edge>path:hover{stroke-width:8}</style>
<path fill="none" stroke="black" d="M154.96,-641.85C174.16,-627.04 195.53,-605.33 201.31,-579.14"/>
<path fill="none" stroke="black" d="M201.31,-577.14C209.37,-540.6 168.51,-510.96 201.31,-492.94"/>
</g>
<!-- eko_kernels_singlet&#45;&gt;eko_operator_operator -->
<g id="edge25" class="edge">
<title>eko_kernels_singlet&#45;&gt;eko_operator_operator</title><style>.edge>path:hover{stroke-width:8}</style>
<path fill="none" stroke="black" d="M447.22,-471.2C469.29,-454.29 499.43,-428.1 518.31,-398.96"/>
</g>
<!-- eko_kernels_utils -->
<g id="node15" class="node">
<title>eko_kernels_utils</title><style>.edge>path:hover{stroke-width:8}</style>
<ellipse fill="#c43131" stroke="black" cx="134.31" cy="-758.33" rx="38.78" ry="28.98"/>
<text text-anchor="middle" x="134.31" y="-766.83" font-family="Helvetica,sans-Serif" font-size="10.00" fill="#ffffff">eko.</text>
<text text-anchor="middle" x="134.31" y="-755.83" font-family="Helvetica,sans-Serif" font-size="10.00" fill="#ffffff">kernels.</text>
<text text-anchor="middle" x="134.31" y="-744.83" font-family="Helvetica,sans-Serif" font-size="10.00" fill="#ffffff">utils</text>
</g>
<!-- eko_kernels_utils&#45;&gt;eko_kernels_non_singlet -->
<g id="edge26" class="edge">
<title>eko_kernels_utils&#45;&gt;eko_kernels_non_singlet</title><style>.edge>path:hover{stroke-width:8}</style>
<path fill="none" stroke="black" d="M130.34,-729.23C129.18,-721.03 127.89,-711.93 126.66,-703.23"/>
<polygon fill="#c43131" stroke="black" points="130.12,-702.69 125.26,-693.27 123.19,-703.67 130.12,-702.69"/>
</g>
<!-- eko_kernels_utils&#45;&gt;eko_kernels_singlet -->
<g id="edge27" class="edge">
<title>eko_kernels_utils&#45;&gt;eko_kernels_singlet</title><style>.edge>path:hover{stroke-width:8}</style>
<path fill="none" stroke="black" d="M103.71,-739.9C87.56,-728.86 69.28,-712.96 60.31,-693.34 49.59,-669.9 45.83,-656.68 60.31,-635.36 130.61,-531.84 289.19,-503.56 369.99,-495.84"/>
<polygon fill="#c43131" stroke="black" points="370.73,-499.29 380.38,-494.92 370.11,-492.32 370.73,-499.29"/>
</g>
<!-- eko_mellin -->
<g id="node16" class="node">
<title>eko_mellin</title><style>.edge>path:hover{stroke-width:8}</style>
<ellipse fill="#a83838" stroke="black" cx="171.31" cy="-935.31" rx="40.06" ry="18"/>
<text text-anchor="middle" x="171.31" y="-932.81" font-family="Helvetica,sans-Serif" font-size="10.00" fill="#ffffff">eko.mellin</text>
</g>
<!-- eko_mellin&#45;&gt;eko_operator_operator -->
<g id="edge28" class="edge">
<title>eko_mellin&#45;&gt;eko_operator_operator</title><style>.edge>path:hover{stroke-width:8}</style>
<path fill="none" stroke="black" d="M161.02,-917.83C139.29,-883.02 87.1,-799.43 43.31,-729.34 25.54,-700.9 10.74,-698.06 3.31,-665.35"/>
</g>
<!-- eko_operator -->
<g id="node17" class="node">
<title>eko_operator</title><style>.edge>path:hover{stroke-width:8}</style>
<ellipse fill="#ce3b3b" stroke="black" cx="1217.31" cy="-303.97" rx="45.83" ry="18"/>
<text text-anchor="middle" x="1217.31" y="-301.47" font-family="Helvetica,sans-Serif" font-size="10.00" fill="#ffffff">eko.operator</text>
</g>
<!-- eko_operator&#45;&gt;eko_output -->
<g id="edge29" class="edge">
<title>eko_operator&#45;&gt;eko_output</title><style>.edge>path:hover{stroke-width:8}</style>
<path fill="none" stroke="black" d="M1204.08,-286.53C1192.61,-272.27 1175.85,-251.45 1162.84,-235.27"/>
<polygon fill="#ce3b3b" stroke="black" points="1165.42,-232.89 1156.42,-227.29 1159.97,-237.28 1165.42,-232.89"/>
</g>
<!-- eko_operator&#45;&gt;eko_runner -->
<g id="edge30" class="edge">
<title>eko_operator&#45;&gt;eko_runner</title><style>.edge>path:hover{stroke-width:8}</style>
<path fill="none" stroke="black" d="M1242.85,-288.83C1269.75,-271.91 1306.31,-241.99 1291.31,-210.99"/>
<path fill="none" stroke="black" d="M1291.31,-208.99C1269.5,-163.93 1080.64,-194.78 1075.31,-145"/>
</g>
<!-- eko_operator_grid -->
<g id="node18" class="node">
<title>eko_operator_grid</title><style>.edge>path:hover{stroke-width:8}</style>
<ellipse fill="#b83d3d" stroke="black" cx="1004.31" cy="-209.99" rx="43.27" ry="28.98"/>
<text text-anchor="middle" x="1004.31" y="-218.49" font-family="Helvetica,sans-Serif" font-size="10.00" fill="#ffffff">eko.</text>
<text text-anchor="middle" x="1004.31" y="-207.49" font-family="Helvetica,sans-Serif" font-size="10.00" fill="#ffffff">operator.</text>
<text text-anchor="middle" x="1004.31" y="-196.49" font-family="Helvetica,sans-Serif" font-size="10.00" fill="#ffffff">grid</text>
</g>
<!-- eko_operator_grid&#45;&gt;eko_runner -->
<g id="edge31" class="edge">
<title>eko_operator_grid&#45;&gt;eko_runner</title><style>.edge>path:hover{stroke-width:8}</style>
<path fill="none" stroke="black" d="M1040.22,-193.58C1058.98,-182.86 1077.62,-166.61 1075.31,-145"/>
</g>
<!-- eko_operator_member -->
<g id="node19" class="node">
<title>eko_operator_member</title><style>.edge>path:hover{stroke-width:8}</style>
<ellipse fill="#d92626" stroke="black" cx="1092.31" cy="-491.94" rx="43.27" ry="28.98"/>
<text text-anchor="middle" x="1092.31" y="-500.44" font-family="Helvetica,sans-Serif" font-size="10.00" fill="#ffffff">eko.</text>
<text text-anchor="middle" x="1092.31" y="-489.44" font-family="Helvetica,sans-Serif" font-size="10.00" fill="#ffffff">operator.</text>
<text text-anchor="middle" x="1092.31" y="-478.44" font-family="Helvetica,sans-Serif" font-size="10.00" fill="#ffffff">member</text>
</g>
<!-- eko_operator_member&#45;&gt;eko_operator_operator -->
<g id="edge32" class="edge">
<title>eko_operator_member&#45;&gt;eko_operator_operator</title><style>.edge>path:hover{stroke-width:8}</style>
<path fill="none" stroke="black" d="M1065.02,-468.88C1023.15,-435.02 943.09,-370.29 897.1,-333.11"/>
<polygon fill="#d92626" stroke="black" points="899.18,-330.29 889.2,-326.72 894.78,-335.73 899.18,-330.29"/>
</g>
<!-- eko_operator_physical -->
<g id="node21" class="node">
<title>eko_operator_physical</title><style>.edge>path:hover{stroke-width:8}</style>
<ellipse fill="#cc3333" stroke="black" cx="1072.31" cy="-397.96" rx="43.27" ry="28.98"/>
<text text-anchor="middle" x="1072.31" y="-406.46" font-family="Helvetica,sans-Serif" font-size="10.00" fill="#ffffff">eko.</text>
<text text-anchor="middle" x="1072.31" y="-395.46" font-family="Helvetica,sans-Serif" font-size="10.00" fill="#ffffff">operator.</text>
<text text-anchor="middle" x="1072.31" y="-384.46" font-family="Helvetica,sans-Serif" font-size="10.00" fill="#ffffff">physical</text>
</g>
<!-- eko_operator_member&#45;&gt;eko_operator_physical -->
<g id="edge33" class="edge">
<title>eko_operator_member&#45;&gt;eko_operator_physical</title><style>.edge>path:hover{stroke-width:8}</style>
<path fill="none" stroke="black" d="M1086.2,-462.84C1084.42,-454.64 1082.44,-445.54 1080.54,-436.84"/>
<polygon fill="#d92626" stroke="black" points="1083.93,-435.91 1078.38,-426.88 1077.09,-437.4 1083.93,-435.91"/>
</g>
<!-- eko_operator_member&#45;&gt;eko_output -->
<g id="edge34" class="edge">
<title>eko_operator_member&#45;&gt;eko_output</title><style>.edge>path:hover{stroke-width:8}</style>
<path fill="none" stroke="black" d="M1107.77,-464.63C1113.78,-453.36 1120.19,-439.85 1124.31,-426.95 1141,-374.68 1152.53,-359.06 1143.31,-304.97"/>
</g>
<!-- eko_operator_operator&#45;&gt;eko_operator_grid -->
<g id="edge35" class="edge">
<title>eko_operator_operator&#45;&gt;eko_operator_grid</title><style>.edge>path:hover{stroke-width:8}</style>
<path fill="none" stroke="black" d="M892.77,-283.24C914.02,-269.48 942.54,-251 965.43,-236.18"/>
<polygon fill="#732626" stroke="black" points="967.41,-239.07 973.9,-230.69 963.6,-233.19 967.41,-239.07"/>
</g>
<!-- eko_operator_physical&#45;&gt;eko_operator_operator -->
<g id="edge36" class="edge">
<title>eko_operator_physical&#45;&gt;eko_operator_operator</title><style>.edge>path:hover{stroke-width:8}</style>
<path fill="none" stroke="black" d="M1036.68,-381.35C1000.98,-365.71 945.9,-341.59 907.21,-324.64"/>
<polygon fill="#cc3333" stroke="black" points="908.32,-321.31 897.76,-320.5 905.51,-327.72 908.32,-321.31"/>
</g>
<!-- eko_operator_physical&#45;&gt;eko_output -->
<g id="edge37" class="edge">
<title>eko_operator_physical&#45;&gt;eko_output</title><style>.edge>path:hover{stroke-width:8}</style>
<path fill="none" stroke="black" d="M1102.67,-377.03C1124.14,-360.2 1148.29,-334.21 1143.31,-304.97"/>
<path fill="none" stroke="black" d="M1143.31,-302.97C1139.63,-281.39 1139.89,-256.55 1140.93,-238.12"/>
<polygon fill="#cc3333" stroke="black" points="1144.42,-238.3 1141.6,-228.09 1137.44,-237.83 1144.42,-238.3"/>
</g>
<!-- eko_output&#45;&gt;eko_runner -->
<g id="edge38" class="edge">
<title>eko_output&#45;&gt;eko_runner</title><style>.edge>path:hover{stroke-width:8}</style>
<path fill="none" stroke="black" d="M1117.08,-196.29C1099,-185.56 1077.8,-168.21 1075.31,-145"/>
</g>
<!-- eko_runner&#45;&gt;eko -->
<g id="edge39" class="edge">
<title>eko_runner&#45;&gt;eko</title><style>.edge>path:hover{stroke-width:8}</style>
<path fill="none" stroke="black" d="M1075.31,-71.7C1075.31,-63.98 1075.31,-54.71 1075.31,-46.11"/>
<polygon fill="#913030" stroke="black" points="1078.81,-46.1 1075.31,-36.1 1071.81,-46.1 1078.81,-46.1"/>
</g>
<!-- eko_strong_coupling&#45;&gt;eko_runner -->
<g id="edge40" class="edge">
<title>eko_strong_coupling&#45;&gt;eko_runner</title><style>.edge>path:hover{stroke-width:8}</style>
<path fill="none" stroke="black" d="M900.15,-830.98C886.22,-773.1 850.3,-602.65 872.31,-462.95 881.76,-402.98 897.6,-391.33 914.31,-332.97 933.47,-266.03 904.07,-231.2 952.31,-181 991.78,-139.93 1082.28,-201.53 1075.31,-145"/>
<path fill="none" stroke="black" d="M1075.31,-144C1074.24,-135.75 1073.93,-126.72 1073.97,-118.49"/>
<polygon fill="#913030" stroke="black" points="1077.48,-118.33 1074.2,-108.26 1070.48,-118.18 1077.48,-118.33"/>
</g>
<!-- eko_thresholds&#45;&gt;eko_runner -->
<g id="edge41" class="edge">
<title>eko_thresholds&#45;&gt;eko_runner</title><style>.edge>path:hover{stroke-width:8}</style>
<path fill="none" stroke="black" d="M1113.31,-916.92C1113.31,-885.48 1113.31,-817.05 1113.31,-759.33 1113.31,-759.33 1113.31,-759.33 1113.31,-663.35 1113.31,-615.3 1112.67,-600.78 1132.31,-556.93 1162.32,-489.91 1197.52,-490.5 1234.31,-426.95 1256.88,-387.96 1260.32,-376.4 1272.31,-332.97 1286.91,-280.08 1315.21,-260.38 1291.31,-210.99"/>
</g>
<!-- eko_thresholds&#45;&gt;eko_strong_coupling -->
<g id="edge42" class="edge">
<title>eko_thresholds&#45;&gt;eko_strong_coupling</title><style>.edge>path:hover{stroke-width:8}</style>
<path fill="none" stroke="black" d="M1079.89,-921.29C1046.33,-908.23 994.21,-887.93 955.64,-872.91"/>
<polygon fill="#bc2f2f" stroke="black" points="956.74,-869.58 946.15,-869.22 954.2,-876.11 956.74,-869.58"/>
</g>
<!-- numba -->
<g id="node26" class="node">
<title>numba</title><style>.edge>path:hover{stroke-width:8}</style>
<ellipse fill="#c0ef06" stroke="black" cx="580.31" cy="-1082.52" rx="29.37" ry="18"/>
<text text-anchor="middle" x="580.31" y="-1080.02" font-family="Helvetica,sans-Serif" font-size="10.00" fill="#000000">numba</text>
</g>
<!-- numba&#45;&gt;eko_anomalous_dimensions -->
<g id="edge43" class="edge">
<title>numba&#45;&gt;eko_anomalous_dimensions</title><style>.edge>path:hover{stroke-width:8}</style>
<path fill="none" stroke="black" d="M489.31,-1006.31C444.49,-960.53 579.42,-989.37 615.31,-936.31"/>
<path fill="none" stroke="black" d="M615.31,-934.31C639.01,-899.26 557.2,-894.83 565.31,-853.31"/>
<path fill="none" stroke="black" d="M565.31,-851.31C574.03,-806.65 585.58,-797.54 610.31,-759.33"/>
<path fill="none" stroke="black" d="M610.31,-757.33C621.95,-739.35 621.39,-714.95 618.22,-695.8"/>
<polygon fill="#c0ef06" stroke="black" points="621.61,-694.92 616.25,-685.78 614.74,-696.26 621.61,-694.92"/>
</g>
<!-- numba&#45;&gt;eko_anomalous_dimensions_lo -->
<g id="edge44" class="edge">
<title>numba&#45;&gt;eko_anomalous_dimensions_lo</title><style>.edge>path:hover{stroke-width:8}</style>
<path fill="none" stroke="black" d="M615.31,-934.31C626.4,-917.9 640.62,-901.38 653.56,-887.57"/>
<polygon fill="#c0ef06" stroke="black" points="656.22,-889.85 660.59,-880.2 651.15,-885.02 656.22,-889.85"/>
</g>
<!-- numba&#45;&gt;eko_anomalous_dimensions_nlo -->
<g id="edge45" class="edge">
<title>numba&#45;&gt;eko_anomalous_dimensions_nlo</title><style>.edge>path:hover{stroke-width:8}</style>
<path fill="none" stroke="black" d="M565.31,-851.31C568.19,-836.56 572.36,-832.45 584.31,-823.32 612.73,-801.62 649,-786.99 682.02,-777.26"/>
<polygon fill="#c0ef06" stroke="black" points="683.03,-780.61 691.69,-774.52 681.12,-773.88 683.03,-780.61"/>
</g>
<!-- numba&#45;&gt;eko_beta -->
<g id="edge46" class="edge">
<title>numba&#45;&gt;eko_beta</title><style>.edge>path:hover{stroke-width:8}</style>
<path fill="none" stroke="black" d="M489.31,-1006.31C471.41,-989.58 496.05,-968.45 519.57,-953.8"/>
<polygon fill="#c0ef06" stroke="black" points="521.63,-956.65 528.43,-948.53 518.05,-950.63 521.63,-956.65"/>
</g>
<!-- numba&#45;&gt;eko_ekomath -->
<g id="edge47" class="edge">
<title>numba&#45;&gt;eko_ekomath</title><style>.edge>path:hover{stroke-width:8}</style>
<path fill="none" stroke="black" d="M883.31,-1006.31C901.61,-991.9 920.79,-973.94 935.17,-959.82"/>
<polygon fill="#c0ef06" stroke="black" points="937.99,-961.95 942.63,-952.42 933.06,-956.98 937.99,-961.95"/>
</g>
<!-- numba&#45;&gt;eko_interpolation -->
<g id="edge48" class="edge">
<title>numba&#45;&gt;eko_interpolation</title><style>.edge>path:hover{stroke-width:8}</style>
<path fill="none" stroke="black" d="M610.31,-757.33C639.38,-712.4 669.51,-725.47 712.31,-693.34 788.36,-636.25 869.85,-559.19 910.72,-519.31"/>
<polygon fill="#c0ef06" stroke="black" points="913.4,-521.57 918.1,-512.08 908.51,-516.57 913.4,-521.57"/>
</g>
<!-- numba&#45;&gt;eko_kernels_evolution_integrals -->
<g id="edge49" class="edge">
<title>numba&#45;&gt;eko_kernels_evolution_integrals</title><style>.edge>path:hover{stroke-width:8}</style>
<path fill="none" stroke="black" d="M489.31,-1006.31C466.58,-985.06 498.28,-966.09 489.31,-936.31"/>
<path fill="none" stroke="black" d="M489.31,-934.31C471.8,-876.18 397.76,-911.15 379.31,-853.31"/>
</g>
<!-- numba&#45;&gt;eko_kernels_non_singlet -->
<g id="edge50" class="edge">
<title>numba&#45;&gt;eko_kernels_non_singlet</title><style>.edge>path:hover{stroke-width:8}</style>
<path fill="none" stroke="black" d="M201.31,-851.31C175.73,-819.42 209.48,-799.39 201.31,-759.33"/>
<path fill="none" stroke="black" d="M201.31,-757.33C196.25,-732.52 178.44,-710.8 160.9,-694.71"/>
<polygon fill="#c0ef06" stroke="black" points="162.74,-691.67 152.91,-687.72 158.13,-696.94 162.74,-691.67"/>
</g>
<!-- numba&#45;&gt;eko_kernels_singlet -->
<g id="edge51" class="edge">
<title>numba&#45;&gt;eko_kernels_singlet</title><style>.edge>path:hover{stroke-width:8}</style>
<path fill="none" stroke="black" d="M489.31,-934.31C480.6,-905.41 446.1,-695.08 451.31,-665.35"/>
</g>
<!-- numba&#45;&gt;eko_kernels_utils -->
<g id="edge52" class="edge">
<title>numba&#45;&gt;eko_kernels_utils</title><style>.edge>path:hover{stroke-width:8}</style>
<path fill="none" stroke="black" d="M489.31,-1006.31C383.42,-907.34 276.07,-977.49 201.31,-853.31"/>
<path fill="none" stroke="black" d="M201.31,-851.31C186.12,-832.37 170.07,-810.42 157.49,-792.71"/>
<polygon fill="#c0ef06" stroke="black" points="160.24,-790.54 151.62,-784.39 154.53,-794.58 160.24,-790.54"/>
</g>
<!-- numba&#45;&gt;eko_mellin -->
<g id="edge53" class="edge">
<title>numba&#45;&gt;eko_mellin</title><style>.edge>path:hover{stroke-width:8}</style>
<path fill="none" stroke="black" d="M562.22,-1068.23C543.37,-1054.1 513.31,-1030.74 489.31,-1008.31"/>
<path fill="none" stroke="black" d="M489.31,-1006.31C401.87,-924.59 341.22,-983.09 225.31,-953.31 221.02,-952.2 216.56,-950.96 212.13,-949.66"/>
<polygon fill="#c0ef06" stroke="black" points="213.14,-946.31 202.56,-946.77 211.11,-953.01 213.14,-946.31"/>
</g>
<!-- numba&#45;&gt;eko_operator_operator -->
<g id="edge54" class="edge">
<title>numba&#45;&gt;eko_operator_operator</title><style>.edge>path:hover{stroke-width:8}</style>
<path fill="none" stroke="black" d="M201.31,-757.33C185.48,-679.73 184.24,-656.48 201.31,-579.14"/>
</g>
<!-- numba&#45;&gt;eko_strong_coupling -->
<g id="edge55" class="edge">
<title>numba&#45;&gt;eko_strong_coupling</title><style>.edge>path:hover{stroke-width:8}</style>
<path fill="none" stroke="black" d="M609.74,-1080.76C663.2,-1078.3 778.63,-1068.04 864.31,-1025.31 874.45,-1020.25 874.41,-1015.32 883.31,-1008.31"/>
<path fill="none" stroke="black" d="M883.31,-1006.31C907.75,-987.06 883.29,-967.42 883.31,-936.31"/>
<path fill="none" stroke="black" d="M883.31,-934.31C883.32,-917.02 888.04,-898.37 893.11,-883.32"/>
<polygon fill="#c0ef06" stroke="black" points="896.54,-884.14 896.62,-873.54 889.95,-881.77 896.54,-884.14"/>
</g>
<!-- numpy -->
<g id="node27" class="node">
<title>numpy</title><style>.edge>path:hover{stroke-width:8}</style>
<ellipse fill="#06f967" stroke="black" cx="580.31" cy="-1229.73" rx="29.37" ry="18"/>
<text text-anchor="middle" x="580.31" y="-1227.23" font-family="Helvetica,sans-Serif" font-size="10.00" fill="#000000">numpy</text>
</g>
<!-- numpy&#45;&gt;eko_anomalous_dimensions -->
<g id="edge56" class="edge">
<title>numpy&#45;&gt;eko_anomalous_dimensions</title><style>.edge>path:hover{stroke-width:8}</style>
<path fill="none" stroke="black" d="M239.31,-934.31C221.87,-844.5 195.37,-795.74 258.31,-729.34 296.17,-689.4 449.39,-704.32 503.31,-693.34 516.63,-690.63 530.77,-687.27 544.26,-683.84"/>
<polygon fill="#06f967" stroke="black" points="545.13,-687.23 553.94,-681.34 543.38,-680.45 545.13,-687.23"/>
</g>
<!-- numpy&#45;&gt;eko_anomalous_dimensions_lo -->
<g id="edge57" class="edge">
<title>numpy&#45;&gt;eko_anomalous_dimensions_lo</title><style>.edge>path:hover{stroke-width:8}</style>
<path fill="none" stroke="black" d="M609.89,-1228.04C692.05,-1225.44 919.96,-1213.35 965.31,-1158.73"/>
<path fill="none" stroke="black" d="M965.31,-1156.73C1001.32,-1113.36 783.8,-1069.11 748.31,-1025.31 716.55,-986.11 701.08,-928.99 693.92,-891.5"/>
<polygon fill="#06f967" stroke="black" points="697.33,-890.7 692.12,-881.47 690.44,-891.94 697.33,-890.7"/>
</g>
<!-- numpy&#45;&gt;eko_anomalous_dimensions_nlo -->
<g id="edge58" class="edge">
<title>numpy&#45;&gt;eko_anomalous_dimensions_nlo</title><style>.edge>path:hover{stroke-width:8}</style>
<path fill="none" stroke="black" d="M1033.31,-934.31C1024.62,-896.25 1020.34,-886.21 999.31,-853.31"/>
</g>
<!-- numpy&#45;&gt;eko_basis_rotation -->
<g id="edge59" class="edge">
<title>numpy&#45;&gt;eko_basis_rotation</title><style>.edge>path:hover{stroke-width:8}</style>
<path fill="none" stroke="black" d="M1124.31,-1081.52C1137.13,-1054.77 1147.16,-1051.9 1160.31,-1025.31 1235.79,-872.71 1320.91,-833 1291.31,-665.35"/>
<path fill="none" stroke="black" d="M1291.31,-663.35C1284.68,-637.26 1262.85,-616.38 1242.47,-601.95"/>
<polygon fill="#06f967" stroke="black" points="1244.42,-599.04 1234.18,-596.35 1240.51,-604.84 1244.42,-599.04"/>
</g>
<!-- numpy&#45;&gt;eko_ekomath -->
<g id="edge60" class="edge">
<title>numpy&#45;&gt;eko_ekomath</title><style>.edge>path:hover{stroke-width:8}</style>
<path fill="none" stroke="black" d="M965.31,-1156.73C1015.01,-1096.88 1090.68,-1153.67 1124.31,-1083.52"/>
<path fill="none" stroke="black" d="M1124.31,-1081.52C1146.75,-1034.71 1054.88,-1055.52 1033.31,-1008.31"/>
<path fill="none" stroke="black" d="M1033.31,-1006.31C1024.11,-986.16 1006.15,-969.08 990.12,-956.83"/>
<polygon fill="#06f967" stroke="black" points="992.11,-953.94 981.97,-950.87 987.98,-959.59 992.11,-953.94"/>
</g>
<!-- numpy&#45;&gt;eko_interpolation -->
<g id="edge61" class="edge">
<title>numpy&#45;&gt;eko_interpolation</title><style>.edge>path:hover{stroke-width:8}</style>
<path fill="none" stroke="black" d="M1021.31,-757.33C982.85,-688.1 1023.3,-658.31 1021.31,-579.14"/>
<path fill="none" stroke="black" d="M1021.31,-577.14C1022.34,-550.37 1000.74,-529.1 979.19,-514.64"/>
<polygon fill="#06f967" stroke="black" points="980.98,-511.63 970.66,-509.24 977.24,-517.55 980.98,-511.63"/>
</g>
<!-- numpy&#45;&gt;eko_kernels_evolution_integrals -->
<g id="edge62" class="edge">
<title>numpy&#45;&gt;eko_kernels_evolution_integrals</title><style>.edge>path:hover{stroke-width:8}</style>
<path fill="none" stroke="black" d="M239.31,-1006.31C246.5,-914.42 407.31,-941.13 379.31,-853.31"/>
<path fill="none" stroke="black" d="M379.31,-851.31C373.82,-833.05 366.63,-813.16 360.27,-796.56"/>
<polygon fill="#06f967" stroke="black" points="363.52,-795.26 356.64,-787.2 356.99,-797.79 363.52,-795.26"/>
</g>
<!-- numpy&#45;&gt;eko_kernels_non_singlet -->
<g id="edge63" class="edge">
<title>numpy&#45;&gt;eko_kernels_non_singlet</title><style>.edge>path:hover{stroke-width:8}</style>
<path fill="none" stroke="black" d="M29.31,-757.33C34.03,-729.62 55.91,-707.11 77.15,-691.29"/>
<polygon fill="#06f967" stroke="black" points="79.4,-693.99 85.53,-685.35 75.35,-688.28 79.4,-693.99"/>
</g>
<!-- numpy&#45;&gt;eko_kernels_singlet -->
<g id="edge64" class="edge">
<title>numpy&#45;&gt;eko_kernels_singlet</title><style>.edge>path:hover{stroke-width:8}</style>
<path fill="none" stroke="black" d="M1033.31,-934.31C1015.95,-858.31 1074.93,-815.91 1021.31,-759.33"/>
<path fill="none" stroke="black" d="M1021.31,-757.33C1005.79,-733.76 990,-741.02 964.31,-729.34 746.27,-630.19 681.67,-627.8 467.31,-520.93 464.19,-519.38 461,-517.71 457.82,-515.98"/>
<polygon fill="#06f967" stroke="black" points="459.37,-512.84 448.93,-511.03 455.96,-518.95 459.37,-512.84"/>
</g>
<!-- numpy&#45;&gt;eko_kernels_utils -->
<g id="edge65" class="edge">
<title>numpy&#45;&gt;eko_kernels_utils</title><style>.edge>path:hover{stroke-width:8}</style>
<path fill="none" stroke="black" d="M239.31,-1006.31C241.3,-975.26 245.94,-966.7 239.31,-936.31"/>
<path fill="none" stroke="black" d="M239.31,-934.31C232.28,-902.06 205.75,-908.67 187.31,-881.31 169.54,-854.94 155.55,-821.64 146.42,-796.5"/>
<polygon fill="#06f967" stroke="black" points="149.68,-795.21 143.04,-786.95 143.08,-797.55 149.68,-795.21"/>
</g>
<!-- numpy&#45;&gt;eko_mellin -->
<g id="edge66" class="edge">
<title>numpy&#45;&gt;eko_mellin</title><style>.edge>path:hover{stroke-width:8}</style>
<path fill="none" stroke="black" d="M239.31,-1156.73C210.1,-1141.42 238.7,-1041.28 239.31,-1008.31"/>
<path fill="none" stroke="black" d="M239.31,-1006.31C241.02,-984.39 223.53,-966.7 205.86,-954.59"/>
<polygon fill="#06f967" stroke="black" points="207.56,-951.53 197.25,-949.1 203.8,-957.43 207.56,-951.53"/>
</g>
<!-- numpy&#45;&gt;eko_operator_grid -->
<g id="edge67" class="edge">
<title>numpy&#45;&gt;eko_operator_grid</title><style>.edge>path:hover{stroke-width:8}</style>
<path fill="none" stroke="black" d="M1021.31,-577.14C1023.72,-514.23 1012.25,-329.83 1006.91,-249.33"/>
<polygon fill="#06f967" stroke="black" points="1010.39,-248.88 1006.23,-239.13 1003.41,-249.34 1010.39,-248.88"/>
</g>
<!-- numpy&#45;&gt;eko_operator_member -->
<g id="edge68" class="edge">
<title>numpy&#45;&gt;eko_operator_member</title><style>.edge>path:hover{stroke-width:8}</style>
<path fill="none" stroke="black" d="M1021.31,-577.14C1022.18,-554.32 1037.7,-534.46 1054.01,-519.77"/>
<polygon fill="#06f967" stroke="black" points="1056.65,-522.12 1062.01,-512.98 1052.12,-516.78 1056.65,-522.12"/>
</g>
<!-- numpy&#45;&gt;eko_operator_operator -->
<g id="edge69" class="edge">
<title>numpy&#45;&gt;eko_operator_operator</title><style>.edge>path:hover{stroke-width:8}</style>
<path fill="none" stroke="black" d="M550.78,-1227.85C489.46,-1224.93 345.23,-1212.43 239.31,-1158.73"/>
<path fill="none" stroke="black" d="M239.31,-1156.73C186.22,-1129.82 154.91,-1149.04 116.31,-1103.73 13.92,-983.56 2.78,-914.96 29.31,-759.33"/>
<path fill="none" stroke="black" d="M29.31,-757.33C38.66,-715.89 12.17,-706.9 3.31,-665.35"/>
<path fill="none" stroke="black" d="M3.31,-663.35C-20.91,-549.8 99.55,-548.84 201.31,-492.94"/>
<path fill="none" stroke="black" d="M201.31,-490.94C264.26,-453.3 478.42,-460.51 518.31,-398.96"/>
<path fill="none" stroke="black" d="M518.31,-396.96C550,-348.05 721.59,-321.29 809.83,-310.58"/>
<polygon fill="#06f967" stroke="black" points="810.39,-314.04 819.91,-309.39 809.56,-307.09 810.39,-314.04"/>
</g>
<!-- numpy&#45;&gt;eko_output -->
<g id="edge70" class="edge">
<title>numpy&#45;&gt;eko_output</title><style>.edge>path:hover{stroke-width:8}</style>
<path fill="none" stroke="black" d="M1291.31,-663.35C1272.65,-589.95 1285.7,-568.47 1291.31,-492.94"/>
</g>
<!-- numpy&#45;&gt;eko_strong_coupling -->
<g id="edge71" class="edge">
<title>numpy&#45;&gt;eko_strong_coupling</title><style>.edge>path:hover{stroke-width:8}</style>
<path fill="none" stroke="black" d="M1033.31,-1006.31C1020.38,-978.01 1040.24,-966.64 1033.31,-936.31"/>
<path fill="none" stroke="black" d="M1033.31,-934.31C1028.98,-915.36 986.99,-891.3 952.26,-874.34"/>
<polygon fill="#06f967" stroke="black" points="953.69,-871.14 943.16,-869.97 950.66,-877.45 953.69,-871.14"/>
</g>
<!-- numpy&#45;&gt;eko_thresholds -->
<g id="edge72" class="edge">
<title>numpy&#45;&gt;eko_thresholds</title><style>.edge>path:hover{stroke-width:8}</style>
<path fill="none" stroke="black" d="M1033.31,-1006.31C1022.94,-983.61 1045.85,-965.36 1069.77,-953.19"/>
<polygon fill="#06f967" stroke="black" points="1071.4,-956.29 1078.92,-948.83 1068.39,-949.97 1071.4,-956.29"/>
</g>
<!-- scipy -->
<g id="node28" class="node">
<title>scipy</title><style>.edge>path:hover{stroke-width:8}</style>
<ellipse fill="#0663ef" stroke="black" cx="580.31" cy="-1157.73" rx="27" ry="18"/>
<text text-anchor="middle" x="580.31" y="-1155.23" font-family="Helvetica,sans-Serif" font-size="10.00" fill="#ffffff">scipy</text>
</g>
<!-- numpy&#45;&gt;scipy -->
<g id="edge73" class="edge">
<title>numpy&#45;&gt;scipy</title><style>.edge>path:hover{stroke-width:8}</style>
<path fill="none" stroke="black" d="M580.31,-1211.43C580.31,-1203.71 580.31,-1194.44 580.31,-1185.84"/>
<polygon fill="#06f967" stroke="black" points="583.81,-1185.84 580.31,-1175.84 576.81,-1185.84 583.81,-1185.84"/>
</g>
<!-- scipy&#45;&gt;eko_ekomath -->
<g id="edge74" class="edge">
<title>scipy&#45;&gt;eko_ekomath</title><style>.edge>path:hover{stroke-width:8}</style>
<path fill="none" stroke="black" d="M921.31,-1006.31C921.25,-989.89 929.3,-973.55 937.91,-960.8"/>
<polygon fill="#0663ef" stroke="black" points="940.83,-962.73 943.86,-952.58 935.16,-958.62 940.83,-962.73"/>
</g>
<!-- scipy&#45;&gt;eko_mellin -->
<g id="edge75" class="edge">
<title>scipy&#45;&gt;eko_mellin</title><style>.edge>path:hover{stroke-width:8}</style>
<path fill="none" stroke="black" d="M560.03,-1145.8C494.3,-1110.38 286.69,-998.49 204.9,-954.41"/>
<polygon fill="#0663ef" stroke="black" points="206.48,-951.29 196.02,-949.62 203.16,-957.45 206.48,-951.29"/>
</g>
<!-- scipy&#45;&gt;eko_strong_coupling -->
<g id="edge76" class="edge">
<title>scipy&#45;&gt;eko_strong_coupling</title><style>.edge>path:hover{stroke-width:8}</style>
<path fill="none" stroke="black" d="M607.39,-1157.22C688.17,-1157.12 921.78,-1145.02 921.31,-1008.31"/>
<path fill="none" stroke="black" d="M921.31,-1006.31C928.65,-971.67 883.29,-971.71 883.31,-936.31"/>
</g>
<!-- scipy&#45;&gt;numba -->
<g id="edge77" class="edge">
<title>scipy&#45;&gt;numba</title><style>.edge>path:hover{stroke-width:8}</style>
<path fill="none" stroke="black" d="M580.31,-1139.38C580.31,-1130.9 580.31,-1120.5 580.31,-1110.97"/>
<polygon fill="#0663ef" stroke="black" points="583.81,-1110.74 580.31,-1100.74 576.81,-1110.74 583.81,-1110.74"/>
</g>
<!-- scipy_integrate -->
<g id="node29" class="node">
<title>scipy_integrate</title><style>.edge>path:hover{stroke-width:8}</style>
<ellipse fill="#4c75b3" stroke="black" cx="168.31" cy="-1082.52" rx="43.27" ry="21.43"/>
<text text-anchor="middle" x="168.31" y="-1085.52" font-family="Helvetica,sans-Serif" font-size="10.00" fill="#ffffff">scipy.</text>
<text text-anchor="middle" x="168.31" y="-1074.52" font-family="Helvetica,sans-Serif" font-size="10.00" fill="#ffffff">integrate</text>
</g>
<!-- scipy_integrate&#45;&gt;eko_mellin -->
<g id="edge78" class="edge">
<title>scipy_integrate&#45;&gt;eko_mellin</title><style>.edge>path:hover{stroke-width:8}</style>
<path fill="none" stroke="black" d="M168.73,-1061.02C169.26,-1035.51 170.16,-991.86 170.75,-963.55"/>
<polygon fill="#4c75b3" stroke="black" points="174.25,-963.6 170.95,-953.52 167.25,-963.45 174.25,-963.6"/>
</g>
<!-- scipy_special -->
<g id="node30" class="node">
<title>scipy_special</title><style>.edge>path:hover{stroke-width:8}</style>
<ellipse fill="#3d6eb8" stroke="black" cx="995.31" cy="-1082.52" rx="45.83" ry="18"/>
<text text-anchor="middle" x="995.31" y="-1080.02" font-family="Helvetica,sans-Serif" font-size="10.00" fill="#ffffff">scipy.special</text>
</g>
<!-- scipy_special&#45;&gt;eko_ekomath -->
<g id="edge79" class="edge">
<title>scipy_special&#45;&gt;eko_ekomath</title><style>.edge>path:hover{stroke-width:8}</style>
<path fill="none" stroke="black" d="M990.99,-1064.58C984.65,-1039.68 972.74,-992.96 965.19,-963.31"/>
<polygon fill="#3d6eb8" stroke="black" points="968.57,-962.42 962.71,-953.59 961.79,-964.14 968.57,-962.42"/>
</g>
<!-- yaml -->
<g id="node31" class="node">
<title>yaml</title><style>.edge>path:hover{stroke-width:8}</style>
<ellipse fill="#a253b6" stroke="black" cx="1198.31" cy="-397.96" rx="27" ry="18"/>
<text text-anchor="middle" x="1198.31" y="-395.46" font-family="Helvetica,sans-Serif" font-size="10.00" fill="#ffffff">yaml</text>
</g>
<!-- yaml&#45;&gt;eko_output -->
<g id="edge80" class="edge">
<title>yaml&#45;&gt;eko_output</title><style>.edge>path:hover{stroke-width:8}</style>
<path fill="none" stroke="black" d="M1184.62,-382.13C1170.08,-365.06 1148.5,-335.42 1143.31,-304.97"/>
</g>
</g>
</svg>
