<?xml version="1.0" encoding="UTF-8" standalone="no"?>
<!DOCTYPE svg PUBLIC "-//W3C//DTD SVG 1.1//EN"
 "http://www.w3.org/Graphics/SVG/1.1/DTD/svg11.dtd">
<!-- Generated by graphviz version 2.43.0 (0)
 -->
<!-- Title: G Pages: 1 -->
<svg width="863pt" height="620pt"
 viewBox="0.00 0.00 862.66 619.84" xmlns="http://www.w3.org/2000/svg" xmlns:xlink="http://www.w3.org/1999/xlink">
<g id="graph0" class="graph" transform="scale(1 1) rotate(0) translate(4 615.84)">
<title>G</title><style>.edge>path:hover{stroke-width:8}</style>
<polygon fill="white" stroke="transparent" points="-4,4 -4,-615.84 858.66,-615.84 858.66,4 -4,4"/>
<!-- eko -->
<g id="node1" class="node">
<title>eko</title><style>.edge>path:hover{stroke-width:8}</style>
<ellipse fill="#ef0606" stroke="black" cx="271.86" cy="-18" rx="27" ry="18"/>
<text text-anchor="middle" x="271.86" y="-15.5" font-family="Helvetica,sans-Serif" font-size="10.00" fill="#ffffff">eko</text>
</g>
<!-- eko_anomalous_dimensions -->
<g id="node2" class="node">
<title>eko_anomalous_dimensions</title><style>.edge>path:hover{stroke-width:8}</style>
<ellipse fill="#c24747" stroke="black" cx="432.86" cy="-243.64" rx="93.18" ry="21.43"/>
<text text-anchor="middle" x="432.86" y="-246.64" font-family="Helvetica,sans-Serif" font-size="10.00" fill="#ffffff">eko.</text>
<text text-anchor="middle" x="432.86" y="-235.64" font-family="Helvetica,sans-Serif" font-size="10.00" fill="#ffffff">anomalous_dimensions</text>
</g>
<!-- eko_kernel_generation -->
<g id="node9" class="node">
<title>eko_kernel_generation</title><style>.edge>path:hover{stroke-width:8}</style>
<ellipse fill="#993333" stroke="black" cx="432.86" cy="-165.21" rx="73.58" ry="21.43"/>
<text text-anchor="middle" x="432.86" y="-168.21" font-family="Helvetica,sans-Serif" font-size="10.00" fill="#ffffff">eko.</text>
<text text-anchor="middle" x="432.86" y="-157.21" font-family="Helvetica,sans-Serif" font-size="10.00" fill="#ffffff">kernel_generation</text>
</g>
<!-- eko_anomalous_dimensions&#45;&gt;eko_kernel_generation -->
<g id="edge1" class="edge">
<title>eko_anomalous_dimensions&#45;&gt;eko_kernel_generation</title><style>.edge>path:hover{stroke-width:8}</style>
<path fill="none" stroke="black" d="M432.86,-222.16C432.86,-214.3 432.86,-205.16 432.86,-196.57"/>
<polygon fill="#c24747" stroke="black" points="436.36,-196.49 432.86,-186.49 429.36,-196.49 436.36,-196.49"/>
</g>
<!-- eko_anomalous_dimensions_lo -->
<g id="node3" class="node">
<title>eko_anomalous_dimensions_lo</title><style>.edge>path:hover{stroke-width:8}</style>
<ellipse fill="#b03a3a" stroke="black" cx="483.86" cy="-329.84" rx="95.42" ry="28.98"/>
<text text-anchor="middle" x="483.86" y="-338.34" font-family="Helvetica,sans-Serif" font-size="10.00" fill="#ffffff">eko.</text>
<text text-anchor="middle" x="483.86" y="-327.34" font-family="Helvetica,sans-Serif" font-size="10.00" fill="#ffffff">anomalous_dimensions.</text>
<text text-anchor="middle" x="483.86" y="-316.34" font-family="Helvetica,sans-Serif" font-size="10.00" fill="#ffffff">lo</text>
</g>
<!-- eko_anomalous_dimensions_lo&#45;&gt;eko_kernel_generation -->
<g id="edge2" class="edge">
<title>eko_anomalous_dimensions_lo&#45;&gt;eko_kernel_generation</title><style>.edge>path:hover{stroke-width:8}</style>
<path fill="none" stroke="black" d="M521.37,-302.85C538.03,-288.04 553.92,-267.83 553.86,-244.64"/>
</g>
<!-- eko_constants -->
<g id="node4" class="node">
<title>eko_constants</title><style>.edge>path:hover{stroke-width:8}</style>
<ellipse fill="#ce3b3b" stroke="black" cx="683.86" cy="-329.84" rx="49.4" ry="18"/>
<text text-anchor="middle" x="683.86" y="-327.34" font-family="Helvetica,sans-Serif" font-size="10.00" fill="#ffffff">eko.constants</text>
</g>
<!-- eko_runner -->
<g id="node13" class="node">
<title>eko_runner</title><style>.edge>path:hover{stroke-width:8}</style>
<ellipse fill="#8a2e2e" stroke="black" cx="271.86" cy="-90" rx="40.06" ry="18"/>
<text text-anchor="middle" x="271.86" y="-87.5" font-family="Helvetica,sans-Serif" font-size="10.00" fill="#ffffff">eko.runner</text>
</g>
<!-- eko_constants&#45;&gt;eko_runner -->
<g id="edge3" class="edge">
<title>eko_constants&#45;&gt;eko_runner</title><style>.edge>path:hover{stroke-width:8}</style>
<path fill="none" stroke="black" d="M710.94,-314.78C743.99,-296.83 796.33,-265.6 802.86,-244.64"/>
<path fill="none" stroke="black" d="M802.86,-242.64C812.97,-210.21 815.79,-197.62 802.86,-166.21"/>
</g>
<!-- eko_strong_coupling -->
<g id="node14" class="node">
<title>eko_strong_coupling</title><style>.edge>path:hover{stroke-width:8}</style>
<ellipse fill="#b42d2d" stroke="black" cx="683.86" cy="-243.64" rx="66.44" ry="21.43"/>
<text text-anchor="middle" x="683.86" y="-246.64" font-family="Helvetica,sans-Serif" font-size="10.00" fill="#ffffff">eko.</text>
<text text-anchor="middle" x="683.86" y="-235.64" font-family="Helvetica,sans-Serif" font-size="10.00" fill="#ffffff">strong_coupling</text>
</g>
<!-- eko_constants&#45;&gt;eko_strong_coupling -->
<g id="edge4" class="edge">
<title>eko_constants&#45;&gt;eko_strong_coupling</title><style>.edge>path:hover{stroke-width:8}</style>
<path fill="none" stroke="black" d="M683.86,-311.8C683.86,-301.32 683.86,-287.58 683.86,-275.26"/>
<polygon fill="#ce3b3b" stroke="black" points="687.36,-274.92 683.86,-264.92 680.36,-274.92 687.36,-274.92"/>
</g>
<!-- eko_ekomath -->
<g id="node5" class="node">
<title>eko_ekomath</title><style>.edge>path:hover{stroke-width:8}</style>
<ellipse fill="#c04040" stroke="black" cx="483.86" cy="-484.84" rx="47.19" ry="18"/>
<text text-anchor="middle" x="483.86" y="-482.34" font-family="Helvetica,sans-Serif" font-size="10.00" fill="#ffffff">eko.ekomath</text>
</g>
<!-- eko_ekomath&#45;&gt;eko_anomalous_dimensions_lo -->
<g id="edge5" class="edge">
<title>eko_ekomath&#45;&gt;eko_anomalous_dimensions_lo</title><style>.edge>path:hover{stroke-width:8}</style>
<path fill="none" stroke="black" d="M483.86,-466.58C483.86,-443.06 483.86,-400.29 483.86,-369.03"/>
<polygon fill="#c04040" stroke="black" points="487.36,-368.91 483.86,-358.91 480.36,-368.91 487.36,-368.91"/>
</g>
<!-- eko_evolution_operator -->
<g id="node6" class="node">
<title>eko_evolution_operator</title><style>.edge>path:hover{stroke-width:8}</style>
<ellipse fill="#bc2f2f" stroke="black" cx="206.86" cy="-243.64" rx="77.15" ry="21.43"/>
<text text-anchor="middle" x="206.86" y="-246.64" font-family="Helvetica,sans-Serif" font-size="10.00" fill="#ffffff">eko.</text>
<text text-anchor="middle" x="206.86" y="-235.64" font-family="Helvetica,sans-Serif" font-size="10.00" fill="#ffffff">evolution_operator</text>
</g>
<!-- eko_operator_grid -->
<g id="node11" class="node">
<title>eko_operator_grid</title><style>.edge>path:hover{stroke-width:8}</style>
<ellipse fill="#b83d3d" stroke="black" cx="271.86" cy="-165.21" rx="57.97" ry="21.43"/>
<text text-anchor="middle" x="271.86" y="-168.21" font-family="Helvetica,sans-Serif" font-size="10.00" fill="#ffffff">eko.</text>
<text text-anchor="middle" x="271.86" y="-157.21" font-family="Helvetica,sans-Serif" font-size="10.00" fill="#ffffff">operator_grid</text>
</g>
<!-- eko_evolution_operator&#45;&gt;eko_operator_grid -->
<g id="edge6" class="edge">
<title>eko_evolution_operator&#45;&gt;eko_operator_grid</title><style>.edge>path:hover{stroke-width:8}</style>
<path fill="none" stroke="black" d="M223.94,-222.56C231.52,-213.65 240.56,-203.02 248.73,-193.41"/>
<polygon fill="#bc2f2f" stroke="black" points="251.53,-195.52 255.35,-185.63 246.2,-190.98 251.53,-195.52"/>
</g>
<!-- eko_output -->
<g id="node12" class="node">
<title>eko_output</title><style>.edge>path:hover{stroke-width:8}</style>
<ellipse fill="#b03a3a" stroke="black" cx="155.86" cy="-165.21" rx="40.06" ry="18"/>
<text text-anchor="middle" x="155.86" y="-162.71" font-family="Helvetica,sans-Serif" font-size="10.00" fill="#ffffff">eko.output</text>
</g>
<!-- eko_evolution_operator&#45;&gt;eko_output -->
<g id="edge7" class="edge">
<title>eko_evolution_operator&#45;&gt;eko_output</title><style>.edge>path:hover{stroke-width:8}</style>
<path fill="none" stroke="black" d="M193.46,-222.56C187.07,-212.98 179.36,-201.43 172.59,-191.28"/>
<polygon fill="#bc2f2f" stroke="black" points="175.4,-189.18 166.94,-182.81 169.57,-193.07 175.4,-189.18"/>
</g>
<!-- eko_flavours -->
<g id="node7" class="node">
<title>eko_flavours</title><style>.edge>path:hover{stroke-width:8}</style>
<ellipse fill="#c24747" stroke="black" cx="802.86" cy="-412.84" rx="45.15" ry="18"/>
<text text-anchor="middle" x="802.86" y="-410.34" font-family="Helvetica,sans-Serif" font-size="10.00" fill="#ffffff">eko.flavours</text>
</g>
<!-- eko_thresholds -->
<g id="node15" class="node">
<title>eko_thresholds</title><style>.edge>path:hover{stroke-width:8}</style>
<ellipse fill="#c43131" stroke="black" cx="802.86" cy="-329.84" rx="51.61" ry="18"/>
<text text-anchor="middle" x="802.86" y="-327.34" font-family="Helvetica,sans-Serif" font-size="10.00" fill="#ffffff">eko.thresholds</text>
</g>
<!-- eko_flavours&#45;&gt;eko_thresholds -->
<g id="edge8" class="edge">
<title>eko_flavours&#45;&gt;eko_thresholds</title><style>.edge>path:hover{stroke-width:8}</style>
<path fill="none" stroke="black" d="M802.86,-394.66C802.86,-384.03 802.86,-370.15 802.86,-358.04"/>
<polygon fill="#c24747" stroke="black" points="806.36,-358 802.86,-348 799.36,-358 806.36,-358"/>
</g>
<!-- eko_interpolation -->
<g id="node8" class="node">
<title>eko_interpolation</title><style>.edge>path:hover{stroke-width:8}</style>
<ellipse fill="#cc3333" stroke="black" cx="55.86" cy="-243.64" rx="55.72" ry="21.43"/>
<text text-anchor="middle" x="55.86" y="-246.64" font-family="Helvetica,sans-Serif" font-size="10.00" fill="#ffffff">eko.</text>
<text text-anchor="middle" x="55.86" y="-235.64" font-family="Helvetica,sans-Serif" font-size="10.00" fill="#ffffff">interpolation</text>
</g>
<!-- eko_interpolation&#45;&gt;eko_output -->
<g id="edge9" class="edge">
<title>eko_interpolation&#45;&gt;eko_output</title><style>.edge>path:hover{stroke-width:8}</style>
<path fill="none" stroke="black" d="M79.81,-224.33C94.44,-213.16 113.19,-198.82 128.41,-187.19"/>
<polygon fill="#cc3333" stroke="black" points="130.64,-189.89 136.46,-181.04 126.39,-184.33 130.64,-189.89"/>
</g>
<!-- eko_interpolation&#45;&gt;eko_runner -->
<g id="edge10" class="edge">
<title>eko_interpolation&#45;&gt;eko_runner</title><style>.edge>path:hover{stroke-width:8}</style>
<path fill="none" stroke="black" d="M61.28,-222.3C68.24,-200.01 82.43,-164.67 106.86,-144 139.68,-116.23 187.27,-102.95 222.92,-96.63"/>
<polygon fill="#cc3333" stroke="black" points="223.8,-100.04 233.1,-94.96 222.66,-93.13 223.8,-100.04"/>
</g>
<!-- eko_kernel_generation&#45;&gt;eko_runner -->
<g id="edge11" class="edge">
<title>eko_kernel_generation&#45;&gt;eko_runner</title><style>.edge>path:hover{stroke-width:8}</style>
<path fill="none" stroke="black" d="M394.71,-146.86C368.65,-135.01 334.32,-119.4 308.58,-107.7"/>
<polygon fill="#993333" stroke="black" points="309.72,-104.37 299.17,-103.42 306.82,-110.74 309.72,-104.37"/>
</g>
<!-- eko_mellin -->
<g id="node10" class="node">
<title>eko_mellin</title><style>.edge>path:hover{stroke-width:8}</style>
<ellipse fill="#cc3333" stroke="black" cx="292.86" cy="-329.84" rx="40.06" ry="18"/>
<text text-anchor="middle" x="292.86" y="-327.34" font-family="Helvetica,sans-Serif" font-size="10.00" fill="#ffffff">eko.mellin</text>
</g>
<!-- eko_mellin&#45;&gt;eko_evolution_operator -->
<g id="edge12" class="edge">
<title>eko_mellin&#45;&gt;eko_evolution_operator</title><style>.edge>path:hover{stroke-width:8}</style>
<path fill="none" stroke="black" d="M276.69,-313.01C264.78,-301.35 248.31,-285.22 234.35,-271.55"/>
<polygon fill="#cc3333" stroke="black" points="236.49,-268.76 226.9,-264.26 231.6,-273.76 236.49,-268.76"/>
</g>
<!-- eko_mellin&#45;&gt;eko_kernel_generation -->
<g id="edge13" class="edge">
<title>eko_mellin&#45;&gt;eko_kernel_generation</title><style>.edge>path:hover{stroke-width:8}</style>
<path fill="none" stroke="black" d="M295.12,-311.87C298.92,-289.16 308.49,-248.72 330.86,-222.43 343.69,-207.35 361.61,-195.59 378.87,-186.81"/>
<polygon fill="#cc3333" stroke="black" points="380.86,-189.73 388.35,-182.23 377.82,-183.43 380.86,-189.73"/>
</g>
<!-- eko_operator_grid&#45;&gt;eko_runner -->
<g id="edge14" class="edge">
<title>eko_operator_grid&#45;&gt;eko_runner</title><style>.edge>path:hover{stroke-width:8}</style>
<path fill="none" stroke="black" d="M271.86,-143.82C271.86,-135.97 271.86,-126.86 271.86,-118.45"/>
<polygon fill="#b83d3d" stroke="black" points="275.36,-118.31 271.86,-108.31 268.36,-118.31 275.36,-118.31"/>
</g>
<!-- eko_output&#45;&gt;eko_runner -->
<g id="edge15" class="edge">
<title>eko_output&#45;&gt;eko_runner</title><style>.edge>path:hover{stroke-width:8}</style>
<path fill="none" stroke="black" d="M178.23,-150.1C196.04,-138.85 221.17,-122.99 240.92,-110.53"/>
<polygon fill="#b03a3a" stroke="black" points="242.98,-113.37 249.56,-105.07 239.24,-107.45 242.98,-113.37"/>
</g>
<!-- eko_runner&#45;&gt;eko -->
<g id="edge16" class="edge">
<title>eko_runner&#45;&gt;eko</title><style>.edge>path:hover{stroke-width:8}</style>
<path fill="none" stroke="black" d="M271.86,-71.7C271.86,-63.98 271.86,-54.71 271.86,-46.11"/>
<polygon fill="#8a2e2e" stroke="black" points="275.36,-46.1 271.86,-36.1 268.36,-46.1 275.36,-46.1"/>
</g>
<!-- eko_strong_coupling&#45;&gt;eko_kernel_generation -->
<g id="edge17" class="edge">
<title>eko_strong_coupling&#45;&gt;eko_kernel_generation</title><style>.edge>path:hover{stroke-width:8}</style>
<path fill="none" stroke="black" d="M637.24,-228.44C596.12,-215.92 535.99,-197.62 491.59,-184.1"/>
<polygon fill="#b42d2d" stroke="black" points="492.39,-180.68 481.81,-181.12 490.35,-187.38 492.39,-180.68"/>
</g>
<!-- eko_strong_coupling&#45;&gt;eko_runner -->
<g id="edge18" class="edge">
<title>eko_strong_coupling&#45;&gt;eko_runner</title><style>.edge>path:hover{stroke-width:8}</style>
<path fill="none" stroke="black" d="M737.68,-231.02C775.32,-219.83 816.6,-199.59 802.86,-166.21"/>
<path fill="none" stroke="black" d="M802.86,-164.21C784.58,-119.81 450.57,-99.41 321.86,-93.18"/>
<polygon fill="#b42d2d" stroke="black" points="322.02,-89.68 311.86,-92.7 321.69,-96.67 322.02,-89.68"/>
</g>
<!-- eko_thresholds&#45;&gt;eko_runner -->
<g id="edge19" class="edge">
<title>eko_thresholds&#45;&gt;eko_runner</title><style>.edge>path:hover{stroke-width:8}</style>
<path fill="none" stroke="black" d="M799.93,-311.62C797.64,-294.28 795.9,-266.97 802.86,-244.64"/>
</g>
<!-- eko_thresholds&#45;&gt;eko_strong_coupling -->
<g id="edge20" class="edge">
<title>eko_thresholds&#45;&gt;eko_strong_coupling</title><style>.edge>path:hover{stroke-width:8}</style>
<path fill="none" stroke="black" d="M781.04,-313.4C763.54,-301.02 738.66,-283.42 718.46,-269.12"/>
<polygon fill="#c43131" stroke="black" points="720.3,-266.14 710.12,-263.22 716.26,-271.85 720.3,-266.14"/>
</g>
<!-- numba -->
<g id="node16" class="node">
<title>numba</title><style>.edge>path:hover{stroke-width:8}</style>
<ellipse fill="#06f9f9" stroke="black" cx="483.86" cy="-593.84" rx="29.37" ry="18"/>
<text text-anchor="middle" x="483.86" y="-591.34" font-family="Helvetica,sans-Serif" font-size="10.00" fill="#000000">numba</text>
</g>
<!-- numba&#45;&gt;eko_anomalous_dimensions_lo -->
<g id="edge21" class="edge">
<title>numba&#45;&gt;eko_anomalous_dimensions_lo</title><style>.edge>path:hover{stroke-width:8}</style>
<path fill="none" stroke="black" d="M483.86,-538.84C481.71,-509.33 518.18,-522.97 539.86,-502.84 576.14,-469.14 608.09,-463.33 606.86,-413.84"/>
<path fill="none" stroke="black" d="M606.86,-411.84C605.68,-385.45 585.43,-367.17 561.68,-354.75"/>
<polygon fill="#06f9f9" stroke="black" points="562.97,-351.49 552.44,-350.27 559.92,-357.79 562.97,-351.49"/>
</g>
<!-- numba&#45;&gt;eko_ekomath -->
<g id="edge22" class="edge">
<title>numba&#45;&gt;eko_ekomath</title><style>.edge>path:hover{stroke-width:8}</style>
<path fill="none" stroke="black" d="M483.86,-538.84C483.26,-530.54 483.08,-521.5 483.1,-513.26"/>
<polygon fill="#06f9f9" stroke="black" points="486.6,-513.09 483.23,-503.04 479.6,-513 486.6,-513.09"/>
</g>
<!-- numba&#45;&gt;eko_evolution_operator -->
<g id="edge23" class="edge">
<title>numba&#45;&gt;eko_evolution_operator</title><style>.edge>path:hover{stroke-width:8}</style>
<path fill="none" stroke="black" d="M206.86,-328.84C191.26,-316.41 192.29,-293.3 196.66,-274.44"/>
<polygon fill="#06f9f9" stroke="black" points="200.04,-275.33 199.26,-264.76 193.28,-273.51 200.04,-275.33"/>
</g>
<!-- numba&#45;&gt;eko_interpolation -->
<g id="edge24" class="edge">
<title>numba&#45;&gt;eko_interpolation</title><style>.edge>path:hover{stroke-width:8}</style>
<path fill="none" stroke="black" d="M484.39,-575.63C484.58,-565.26 484.59,-551.78 483.86,-539.84"/>
<path fill="none" stroke="black" d="M483.86,-538.84C482.06,-509.3 449.54,-522.97 427.86,-502.84 391.58,-469.14 385.68,-456.68 360.86,-413.84"/>
<path fill="none" stroke="black" d="M360.86,-411.84C325.31,-367.17 292.93,-388.01 243.86,-358.84 226.14,-348.3 222.99,-343.7 206.86,-330.84"/>
<path fill="none" stroke="black" d="M206.86,-328.84C174,-302.65 131.91,-279.92 100.52,-264.7"/>
<polygon fill="#06f9f9" stroke="black" points="101.68,-261.37 91.15,-260.22 98.66,-267.69 101.68,-261.37"/>
</g>
<!-- numba&#45;&gt;eko_kernel_generation -->
<g id="edge25" class="edge">
<title>numba&#45;&gt;eko_kernel_generation</title><style>.edge>path:hover{stroke-width:8}</style>
<path fill="none" stroke="black" d="M360.86,-411.84C329.7,-372.68 345.53,-337.26 379.86,-300.85 435.62,-241.73 554.07,-325.91 553.86,-244.64"/>
<path fill="none" stroke="black" d="M553.86,-242.64C553.73,-212.73 526.96,-194.05 498.64,-182.65"/>
<polygon fill="#06f9f9" stroke="black" points="499.6,-179.27 489.01,-179.06 497.16,-185.83 499.6,-179.27"/>
</g>
<!-- numba&#45;&gt;eko_mellin -->
<g id="edge26" class="edge">
<title>numba&#45;&gt;eko_mellin</title><style>.edge>path:hover{stroke-width:8}</style>
<path fill="none" stroke="black" d="M360.86,-411.84C348.56,-390.59 330.56,-369.45 316.17,-354.09"/>
<polygon fill="#06f9f9" stroke="black" points="318.46,-351.43 309.02,-346.62 313.41,-356.27 318.46,-351.43"/>
</g>
<!-- numba&#45;&gt;eko_strong_coupling -->
<g id="edge27" class="edge">
<title>numba&#45;&gt;eko_strong_coupling</title><style>.edge>path:hover{stroke-width:8}</style>
<path fill="none" stroke="black" d="M606.86,-411.84C604.63,-361.84 602.52,-345.12 625.86,-300.85 631.95,-289.3 641.28,-278.72 650.7,-269.93"/>
<polygon fill="#06f9f9" stroke="black" points="653.04,-272.53 658.2,-263.27 648.39,-267.29 653.04,-272.53"/>
</g>
</g>
</svg>
