<?xml version="1.0" encoding="UTF-8" standalone="no"?>
<!DOCTYPE svg PUBLIC "-//W3C//DTD SVG 1.1//EN"
 "http://www.w3.org/Graphics/SVG/1.1/DTD/svg11.dtd">
<!-- Generated by graphviz version 2.43.0 (0)
 -->
<!-- Title: G Pages: 1 -->
<svg width="1720pt" height="1083pt"
 viewBox="0.00 0.00 1720.01 1083.32" xmlns="http://www.w3.org/2000/svg" xmlns:xlink="http://www.w3.org/1999/xlink">
<g id="graph0" class="graph" transform="scale(1 1) rotate(0) translate(4 1079.32)">
<title>G</title><style>.edge>path:hover{stroke-width:8}</style>
<polygon fill="white" stroke="transparent" points="-4,4 -4,-1079.32 1716.01,-1079.32 1716.01,4 -4,4"/>
<!-- eko -->
<g id="node1" class="node">
<title>eko</title><style>.edge>path:hover{stroke-width:8}</style>
<ellipse fill="#ef0606" stroke="black" cx="966.95" cy="-18" rx="27" ry="18"/>
<text text-anchor="middle" x="966.95" y="-15.5" font-family="Helvetica,sans-Serif" font-size="10.00" fill="#ffffff">eko</text>
</g>
<!-- eko_anomalous_dimensions -->
<g id="node2" class="node">
<title>eko_anomalous_dimensions</title><style>.edge>path:hover{stroke-width:8}</style>
<ellipse fill="#af1313" stroke="black" cx="265.95" cy="-469.96" rx="93.18" ry="21.43"/>
<text text-anchor="middle" x="265.95" y="-472.96" font-family="Helvetica,sans-Serif" font-size="10.00" fill="#ffffff">eko.</text>
<text text-anchor="middle" x="265.95" y="-461.96" font-family="Helvetica,sans-Serif" font-size="10.00" fill="#ffffff">anomalous_dimensions</text>
</g>
<!-- eko_kernels_singlet -->
<g id="node13" class="node">
<title>eko_kernels_singlet</title><style>.edge>path:hover{stroke-width:8}</style>
<ellipse fill="#8a2e2e" stroke="black" cx="249.95" cy="-338.97" rx="38.78" ry="28.98"/>
<text text-anchor="middle" x="249.95" y="-347.47" font-family="Helvetica,sans-Serif" font-size="10.00" fill="#ffffff">eko.</text>
<text text-anchor="middle" x="249.95" y="-336.47" font-family="Helvetica,sans-Serif" font-size="10.00" fill="#ffffff">kernels.</text>
<text text-anchor="middle" x="249.95" y="-325.47" font-family="Helvetica,sans-Serif" font-size="10.00" fill="#ffffff">singlet</text>
</g>
<!-- eko_anomalous_dimensions&#45;&gt;eko_kernels_singlet -->
<g id="edge1" class="edge">
<title>eko_anomalous_dimensions&#45;&gt;eko_kernels_singlet</title><style>.edge>path:hover{stroke-width:8}</style>
<path fill="none" stroke="black" d="M182.95,-403.97C178.98,-385.8 192.26,-370.99 208.02,-360.21"/>
<polygon fill="#af1313" stroke="black" points="210.3,-362.91 216.93,-354.64 206.59,-356.97 210.3,-362.91"/>
</g>
<!-- eko_operator -->
<g id="node16" class="node">
<title>eko_operator</title><style>.edge>path:hover{stroke-width:8}</style>
<ellipse fill="#821717" stroke="black" cx="966.95" cy="-162" rx="45.83" ry="18"/>
<text text-anchor="middle" x="966.95" y="-159.5" font-family="Helvetica,sans-Serif" font-size="10.00" fill="#ffffff">eko.operator</text>
</g>
<!-- eko_anomalous_dimensions&#45;&gt;eko_operator -->
<g id="edge2" class="edge">
<title>eko_anomalous_dimensions&#45;&gt;eko_operator</title><style>.edge>path:hover{stroke-width:8}</style>
<path fill="none" stroke="black" d="M222.67,-450.98C204.92,-440.66 187.45,-425.59 182.95,-404.97"/>
<path fill="none" stroke="black" d="M182.95,-403.97C176.88,-376.18 175.56,-367.44 182.95,-339.97"/>
</g>
<!-- eko_anomalous_dimensions_harmonics -->
<g id="node3" class="node">
<title>eko_anomalous_dimensions_harmonics</title><style>.edge>path:hover{stroke-width:8}</style>
<ellipse fill="#b42d2d" stroke="black" cx="371.95" cy="-657.92" rx="95.42" ry="28.98"/>
<text text-anchor="middle" x="371.95" y="-666.42" font-family="Helvetica,sans-Serif" font-size="10.00" fill="#ffffff">eko.</text>
<text text-anchor="middle" x="371.95" y="-655.42" font-family="Helvetica,sans-Serif" font-size="10.00" fill="#ffffff">anomalous_dimensions.</text>
<text text-anchor="middle" x="371.95" y="-644.42" font-family="Helvetica,sans-Serif" font-size="10.00" fill="#ffffff">harmonics</text>
</g>
<!-- eko_anomalous_dimensions_harmonics&#45;&gt;eko_anomalous_dimensions -->
<g id="edge3" class="edge">
<title>eko_anomalous_dimensions_harmonics&#45;&gt;eko_anomalous_dimensions</title><style>.edge>path:hover{stroke-width:8}</style>
<path fill="none" stroke="black" d="M338.74,-630.61C327.05,-619.95 314.67,-606.87 305.95,-592.93 288.09,-564.37 277.37,-527 271.59,-501.2"/>
<polygon fill="#b42d2d" stroke="black" points="274.98,-500.29 269.48,-491.24 268.13,-501.75 274.98,-500.29"/>
</g>
<!-- eko_anomalous_dimensions_nlo -->
<g id="node5" class="node">
<title>eko_anomalous_dimensions_nlo</title><style>.edge>path:hover{stroke-width:8}</style>
<ellipse fill="#993333" stroke="black" cx="409.95" cy="-563.94" rx="95.42" ry="28.98"/>
<text text-anchor="middle" x="409.95" y="-572.44" font-family="Helvetica,sans-Serif" font-size="10.00" fill="#ffffff">eko.</text>
<text text-anchor="middle" x="409.95" y="-561.44" font-family="Helvetica,sans-Serif" font-size="10.00" fill="#ffffff">anomalous_dimensions.</text>
<text text-anchor="middle" x="409.95" y="-550.44" font-family="Helvetica,sans-Serif" font-size="10.00" fill="#ffffff">nlo</text>
</g>
<!-- eko_anomalous_dimensions_harmonics&#45;&gt;eko_anomalous_dimensions_nlo -->
<g id="edge4" class="edge">
<title>eko_anomalous_dimensions_harmonics&#45;&gt;eko_anomalous_dimensions_nlo</title><style>.edge>path:hover{stroke-width:8}</style>
<path fill="none" stroke="black" d="M383.56,-628.82C387.02,-620.44 390.87,-611.12 394.54,-602.25"/>
<polygon fill="#b42d2d" stroke="black" points="397.83,-603.44 398.41,-592.87 391.36,-600.77 397.83,-603.44"/>
</g>
<!-- eko_anomalous_dimensions_lo -->
<g id="node4" class="node">
<title>eko_anomalous_dimensions_lo</title><style>.edge>path:hover{stroke-width:8}</style>
<ellipse fill="#a83838" stroke="black" cx="617.95" cy="-657.92" rx="95.42" ry="28.98"/>
<text text-anchor="middle" x="617.95" y="-666.42" font-family="Helvetica,sans-Serif" font-size="10.00" fill="#ffffff">eko.</text>
<text text-anchor="middle" x="617.95" y="-655.42" font-family="Helvetica,sans-Serif" font-size="10.00" fill="#ffffff">anomalous_dimensions.</text>
<text text-anchor="middle" x="617.95" y="-644.42" font-family="Helvetica,sans-Serif" font-size="10.00" fill="#ffffff">lo</text>
</g>
<!-- eko_anomalous_dimensions_lo&#45;&gt;eko_anomalous_dimensions -->
<g id="edge5" class="edge">
<title>eko_anomalous_dimensions_lo&#45;&gt;eko_anomalous_dimensions</title><style>.edge>path:hover{stroke-width:8}</style>
<path fill="none" stroke="black" d="M658.66,-631.48C682.71,-613.19 705.49,-587.83 688.95,-564.94"/>
<path fill="none" stroke="black" d="M688.95,-562.94C651.56,-511.2 477.54,-487.62 364.67,-477.62"/>
<polygon fill="#a83838" stroke="black" points="364.89,-474.12 354.63,-476.75 364.29,-481.1 364.89,-474.12"/>
</g>
<!-- eko_anomalous_dimensions_nlo&#45;&gt;eko_anomalous_dimensions -->
<g id="edge6" class="edge">
<title>eko_anomalous_dimensions_nlo&#45;&gt;eko_anomalous_dimensions</title><style>.edge>path:hover{stroke-width:8}</style>
<path fill="none" stroke="black" d="M370.22,-537.56C349.77,-524.5 324.94,-508.64 304.64,-495.67"/>
<polygon fill="#993333" stroke="black" points="306.27,-492.56 295.96,-490.12 302.5,-498.46 306.27,-492.56"/>
</g>
<!-- eko_basis_rotation -->
<g id="node6" class="node">
<title>eko_basis_rotation</title><style>.edge>path:hover{stroke-width:8}</style>
<ellipse fill="#d92626" stroke="black" cx="163.95" cy="-910.11" rx="60.62" ry="21.43"/>
<text text-anchor="middle" x="163.95" y="-913.11" font-family="Helvetica,sans-Serif" font-size="10.00" fill="#ffffff">eko.</text>
<text text-anchor="middle" x="163.95" y="-902.11" font-family="Helvetica,sans-Serif" font-size="10.00" fill="#ffffff">basis_rotation</text>
</g>
<!-- eko_operator_flavors -->
<g id="node17" class="node">
<title>eko_operator_flavors</title><style>.edge>path:hover{stroke-width:8}</style>
<ellipse fill="#bc2f2f" stroke="black" cx="177.95" cy="-751.91" rx="43.27" ry="28.98"/>
<text text-anchor="middle" x="177.95" y="-760.41" font-family="Helvetica,sans-Serif" font-size="10.00" fill="#ffffff">eko.</text>
<text text-anchor="middle" x="177.95" y="-749.41" font-family="Helvetica,sans-Serif" font-size="10.00" fill="#ffffff">operator.</text>
<text text-anchor="middle" x="177.95" y="-738.41" font-family="Helvetica,sans-Serif" font-size="10.00" fill="#ffffff">flavors</text>
</g>
<!-- eko_basis_rotation&#45;&gt;eko_operator_flavors -->
<g id="edge7" class="edge">
<title>eko_basis_rotation&#45;&gt;eko_operator_flavors</title><style>.edge>path:hover{stroke-width:8}</style>
<path fill="none" stroke="black" d="M68.95,-833.9C63.64,-800.99 97.44,-779.73 128.77,-767.29"/>
<polygon fill="#d92626" stroke="black" points="130.22,-770.48 138.36,-763.7 127.77,-763.92 130.22,-770.48"/>
</g>
<!-- eko_operator_physical -->
<g id="node20" class="node">
<title>eko_operator_physical</title><style>.edge>path:hover{stroke-width:8}</style>
<ellipse fill="#a13535" stroke="black" cx="68.95" cy="-657.92" rx="43.27" ry="28.98"/>
<text text-anchor="middle" x="68.95" y="-666.42" font-family="Helvetica,sans-Serif" font-size="10.00" fill="#ffffff">eko.</text>
<text text-anchor="middle" x="68.95" y="-655.42" font-family="Helvetica,sans-Serif" font-size="10.00" fill="#ffffff">operator.</text>
<text text-anchor="middle" x="68.95" y="-644.42" font-family="Helvetica,sans-Serif" font-size="10.00" fill="#ffffff">physical</text>
</g>
<!-- eko_basis_rotation&#45;&gt;eko_operator_physical -->
<g id="edge8" class="edge">
<title>eko_basis_rotation&#45;&gt;eko_operator_physical</title><style>.edge>path:hover{stroke-width:8}</style>
<path fill="none" stroke="black" d="M68.95,-750.91C65.77,-733.51 65.35,-713.95 65.88,-697.36"/>
<polygon fill="#d92626" stroke="black" points="69.4,-697.08 66.35,-686.93 62.41,-696.76 69.4,-697.08"/>
</g>
<!-- eko_runner -->
<g id="node22" class="node">
<title>eko_runner</title><style>.edge>path:hover{stroke-width:8}</style>
<ellipse fill="#8a2e2e" stroke="black" cx="966.95" cy="-90" rx="40.06" ry="18"/>
<text text-anchor="middle" x="966.95" y="-87.5" font-family="Helvetica,sans-Serif" font-size="10.00" fill="#ffffff">eko.runner</text>
</g>
<!-- eko_basis_rotation&#45;&gt;eko_runner -->
<g id="edge9" class="edge">
<title>eko_basis_rotation&#45;&gt;eko_runner</title><style>.edge>path:hover{stroke-width:8}</style>
<path fill="none" stroke="black" d="M123.61,-894.23C99.8,-882.63 73.45,-863.75 68.95,-835.9"/>
<path fill="none" stroke="black" d="M68.95,-833.9C63.21,-798.36 75.41,-788.32 68.95,-752.91"/>
<path fill="none" stroke="black" d="M68.95,-750.91C62.37,-714.85 29.21,-721.45 16.95,-686.91 -5.65,-623.27 -5.65,-598.6 16.95,-534.95 29.21,-500.41 62.37,-507.01 68.95,-470.96"/>
<path fill="none" stroke="black" d="M68.95,-468.96C77.63,-412.29 68.95,-397.3 68.95,-339.97 68.95,-339.97 68.95,-339.97 68.95,-243.99 68.95,-157.22 728.99,-106.78 917.33,-94.16"/>
<polygon fill="#d92626" stroke="black" points="917.75,-97.63 927.5,-93.48 917.29,-90.65 917.75,-97.63"/>
</g>
<!-- eko_beta -->
<g id="node7" class="node">
<title>eko_beta</title><style>.edge>path:hover{stroke-width:8}</style>
<ellipse fill="#df0b0b" stroke="black" cx="993.95" cy="-751.91" rx="34.96" ry="18"/>
<text text-anchor="middle" x="993.95" y="-749.41" font-family="Helvetica,sans-Serif" font-size="10.00" fill="#ffffff">eko.beta</text>
</g>
<!-- eko_kernels_evolution_integrals -->
<g id="node11" class="node">
<title>eko_kernels_evolution_integrals</title><style>.edge>path:hover{stroke-width:8}</style>
<ellipse fill="#b42d2d" stroke="black" cx="966.95" cy="-563.94" rx="77.56" ry="28.98"/>
<text text-anchor="middle" x="966.95" y="-572.44" font-family="Helvetica,sans-Serif" font-size="10.00" fill="#ffffff">eko.</text>
<text text-anchor="middle" x="966.95" y="-561.44" font-family="Helvetica,sans-Serif" font-size="10.00" fill="#ffffff">kernels.</text>
<text text-anchor="middle" x="966.95" y="-550.44" font-family="Helvetica,sans-Serif" font-size="10.00" fill="#ffffff">evolution_integrals</text>
</g>
<!-- eko_beta&#45;&gt;eko_kernels_evolution_integrals -->
<g id="edge10" class="edge">
<title>eko_beta&#45;&gt;eko_kernels_evolution_integrals</title><style>.edge>path:hover{stroke-width:8}</style>
<path fill="none" stroke="black" d="M981.95,-656.92C979.4,-639.15 976.24,-619.5 973.48,-602.94"/>
<polygon fill="#df0b0b" stroke="black" points="976.93,-602.36 971.82,-593.08 970.03,-603.52 976.93,-602.36"/>
</g>
<!-- eko_kernels_non_singlet -->
<g id="node12" class="node">
<title>eko_kernels_non_singlet</title><style>.edge>path:hover{stroke-width:8}</style>
<ellipse fill="#913030" stroke="black" cx="966.95" cy="-469.96" rx="51.74" ry="28.98"/>
<text text-anchor="middle" x="966.95" y="-478.46" font-family="Helvetica,sans-Serif" font-size="10.00" fill="#ffffff">eko.</text>
<text text-anchor="middle" x="966.95" y="-467.46" font-family="Helvetica,sans-Serif" font-size="10.00" fill="#ffffff">kernels.</text>
<text text-anchor="middle" x="966.95" y="-456.46" font-family="Helvetica,sans-Serif" font-size="10.00" fill="#ffffff">non_singlet</text>
</g>
<!-- eko_beta&#45;&gt;eko_kernels_non_singlet -->
<g id="edge11" class="edge">
<title>eko_beta&#45;&gt;eko_kernels_non_singlet</title><style>.edge>path:hover{stroke-width:8}</style>
<path fill="none" stroke="black" d="M981.95,-656.92C973.78,-600 1090.09,-619.83 1072.95,-564.94"/>
<path fill="none" stroke="black" d="M1072.95,-562.94C1063.73,-533.42 1037.6,-510.56 1013.59,-495.02"/>
<polygon fill="#df0b0b" stroke="black" points="1015.22,-491.91 1004.88,-489.62 1011.54,-497.86 1015.22,-491.91"/>
</g>
<!-- eko_beta&#45;&gt;eko_kernels_singlet -->
<g id="edge12" class="edge">
<title>eko_beta&#45;&gt;eko_kernels_singlet</title><style>.edge>path:hover{stroke-width:8}</style>
<path fill="none" stroke="black" d="M991.87,-733.93C989.57,-715.46 985.7,-685.07 981.95,-658.92"/>
<path fill="none" stroke="black" d="M981.95,-656.92C974.34,-603.95 918.47,-630.08 879.95,-592.93 869.13,-582.49 868.87,-577.72 860.95,-564.94"/>
<path fill="none" stroke="black" d="M860.95,-562.94C837.64,-525.35 826.27,-515.06 822.95,-470.96"/>
</g>
<!-- eko_beta&#45;&gt;eko_operator -->
<g id="edge13" class="edge">
<title>eko_beta&#45;&gt;eko_operator</title><style>.edge>path:hover{stroke-width:8}</style>
<path fill="none" stroke="black" d="M860.95,-562.94C830.5,-513.83 868.92,-485.33 905.95,-440.97 926.12,-416.8 964.88,-436.38 966.95,-404.97"/>
<path fill="none" stroke="black" d="M966.95,-403.97C967.84,-333.76 954.34,-315.06 966.95,-245.99"/>
</g>
<!-- eko_strong_coupling -->
<g id="node23" class="node">
<title>eko_strong_coupling</title><style>.edge>path:hover{stroke-width:8}</style>
<ellipse fill="#913030" stroke="black" cx="1326.95" cy="-657.92" rx="66.44" ry="21.43"/>
<text text-anchor="middle" x="1326.95" y="-660.92" font-family="Helvetica,sans-Serif" font-size="10.00" fill="#ffffff">eko.</text>
<text text-anchor="middle" x="1326.95" y="-649.92" font-family="Helvetica,sans-Serif" font-size="10.00" fill="#ffffff">strong_coupling</text>
</g>
<!-- eko_beta&#45;&gt;eko_strong_coupling -->
<g id="edge14" class="edge">
<title>eko_beta&#45;&gt;eko_strong_coupling</title><style>.edge>path:hover{stroke-width:8}</style>
<path fill="none" stroke="black" d="M1014.17,-737.26C1022.72,-732.05 1033,-726.51 1042.95,-722.91 1129.53,-691.62 1157.87,-710.19 1246.95,-686.91 1256.56,-684.4 1266.66,-681.27 1276.33,-678.02"/>
<polygon fill="#df0b0b" stroke="black" points="1277.51,-681.31 1285.82,-674.74 1275.23,-674.7 1277.51,-681.31"/>
</g>
<!-- eko_constants -->
<g id="node8" class="node">
<title>eko_constants</title><style>.edge>path:hover{stroke-width:8}</style>
<ellipse fill="#e72222" stroke="black" cx="979.95" cy="-834.9" rx="49.4" ry="18"/>
<text text-anchor="middle" x="979.95" y="-832.4" font-family="Helvetica,sans-Serif" font-size="10.00" fill="#ffffff">eko.constants</text>
</g>
<!-- eko_constants&#45;&gt;eko_anomalous_dimensions_lo -->
<g id="edge15" class="edge">
<title>eko_constants&#45;&gt;eko_anomalous_dimensions_lo</title><style>.edge>path:hover{stroke-width:8}</style>
<path fill="none" stroke="black" d="M970.36,-816.93C957.68,-794.66 936.3,-757.83 930.95,-752.91"/>
<path fill="none" stroke="black" d="M930.95,-750.91C873.96,-698.47 788.56,-675.81 721.35,-666.07"/>
<polygon fill="#e72222" stroke="black" points="721.53,-662.56 711.15,-664.67 720.58,-669.5 721.53,-662.56"/>
</g>
<!-- eko_constants&#45;&gt;eko_anomalous_dimensions_nlo -->
<g id="edge16" class="edge">
<title>eko_constants&#45;&gt;eko_anomalous_dimensions_nlo</title><style>.edge>path:hover{stroke-width:8}</style>
<path fill="none" stroke="black" d="M930.95,-750.91C851.8,-678.09 822.4,-667.35 721.95,-628.93 652.97,-602.55 571.04,-586.28 508.45,-576.75"/>
<polygon fill="#e72222" stroke="black" points="508.59,-573.23 498.18,-575.22 507.56,-580.15 508.59,-573.23"/>
</g>
<!-- eko_constants&#45;&gt;eko_beta -->
<g id="edge17" class="edge">
<title>eko_constants&#45;&gt;eko_beta</title><style>.edge>path:hover{stroke-width:8}</style>
<path fill="none" stroke="black" d="M982.92,-816.72C984.76,-806.09 987.16,-792.21 989.25,-780.11"/>
<polygon fill="#e72222" stroke="black" points="992.73,-780.51 990.98,-770.06 985.83,-779.31 992.73,-780.51"/>
</g>
<!-- eko_constants&#45;&gt;eko_strong_coupling -->
<g id="edge18" class="edge">
<title>eko_constants&#45;&gt;eko_strong_coupling</title><style>.edge>path:hover{stroke-width:8}</style>
<path fill="none" stroke="black" d="M1006.23,-819.46C1024.62,-809.14 1049.61,-794.7 1070.95,-780.9 1108.12,-756.84 1112.8,-743.59 1151.95,-722.91 1163.19,-716.98 1226.59,-694.21 1273.87,-677.52"/>
<polygon fill="#e72222" stroke="black" points="1275.12,-680.79 1283.39,-674.16 1272.79,-674.18 1275.12,-680.79"/>
</g>
<!-- eko_interpolation -->
<g id="node9" class="node">
<title>eko_interpolation</title><style>.edge>path:hover{stroke-width:8}</style>
<ellipse fill="#d02424" stroke="black" cx="1626.95" cy="-751.91" rx="55.72" ry="21.43"/>
<text text-anchor="middle" x="1626.95" y="-754.91" font-family="Helvetica,sans-Serif" font-size="10.00" fill="#ffffff">eko.</text>
<text text-anchor="middle" x="1626.95" y="-743.91" font-family="Helvetica,sans-Serif" font-size="10.00" fill="#ffffff">interpolation</text>
</g>
<!-- eko_interpolation&#45;&gt;eko_operator -->
<g id="edge19" class="edge">
<title>eko_interpolation&#45;&gt;eko_operator</title><style>.edge>path:hover{stroke-width:8}</style>
<path fill="none" stroke="black" d="M1602.5,-732.74C1564.84,-702.48 1496.95,-637.82 1496.95,-564.94 1496.95,-564.94 1496.95,-564.94 1496.95,-468.96 1496.95,-411.63 1502.66,-397.01 1496.95,-339.97"/>
<path fill="none" stroke="black" d="M1496.95,-337.97C1485.56,-239.35 1152.83,-186.51 1020.49,-169.34"/>
<polygon fill="#d02424" stroke="black" points="1020.92,-165.87 1010.56,-168.07 1020.04,-172.81 1020.92,-165.87"/>
</g>
<!-- eko_output -->
<g id="node21" class="node">
<title>eko_output</title><style>.edge>path:hover{stroke-width:8}</style>
<ellipse fill="#a83838" stroke="black" cx="1626.95" cy="-657.92" rx="40.06" ry="18"/>
<text text-anchor="middle" x="1626.95" y="-655.42" font-family="Helvetica,sans-Serif" font-size="10.00" fill="#ffffff">eko.output</text>
</g>
<!-- eko_interpolation&#45;&gt;eko_output -->
<g id="edge20" class="edge">
<title>eko_interpolation&#45;&gt;eko_output</title><style>.edge>path:hover{stroke-width:8}</style>
<path fill="none" stroke="black" d="M1626.95,-730.49C1626.95,-717.5 1626.95,-700.52 1626.95,-686.36"/>
<polygon fill="#d02424" stroke="black" points="1630.45,-686.19 1626.95,-676.19 1623.45,-686.19 1630.45,-686.19"/>
</g>
<!-- eko_interpolation&#45;&gt;eko_runner -->
<g id="edge21" class="edge">
<title>eko_interpolation&#45;&gt;eko_runner</title><style>.edge>path:hover{stroke-width:8}</style>
<path fill="none" stroke="black" d="M1496.95,-337.97C1483.83,-299.26 1511.35,-284.25 1496.95,-245.99"/>
</g>
<!-- eko_kernels -->
<g id="node10" class="node">
<title>eko_kernels</title><style>.edge>path:hover{stroke-width:8}</style>
<ellipse fill="#db2f2f" stroke="black" cx="896.95" cy="-244.99" rx="42.27" ry="18"/>
<text text-anchor="middle" x="896.95" y="-242.49" font-family="Helvetica,sans-Serif" font-size="10.00" fill="#ffffff">eko.kernels</text>
</g>
<!-- eko_kernels&#45;&gt;eko_operator -->
<g id="edge22" class="edge">
<title>eko_kernels&#45;&gt;eko_operator</title><style>.edge>path:hover{stroke-width:8}</style>
<path fill="none" stroke="black" d="M911.12,-227.6C921.17,-215.97 934.84,-200.15 946.13,-187.09"/>
<polygon fill="#db2f2f" stroke="black" points="948.91,-189.22 952.81,-179.37 943.62,-184.64 948.91,-189.22"/>
</g>
<!-- eko_kernels_evolution_integrals&#45;&gt;eko_kernels_non_singlet -->
<g id="edge23" class="edge">
<title>eko_kernels_evolution_integrals&#45;&gt;eko_kernels_non_singlet</title><style>.edge>path:hover{stroke-width:8}</style>
<path fill="none" stroke="black" d="M966.95,-534.84C966.95,-526.8 966.95,-517.9 966.95,-509.36"/>
<polygon fill="#b42d2d" stroke="black" points="970.45,-509.2 966.95,-499.2 963.45,-509.2 970.45,-509.2"/>
</g>
<!-- eko_kernels_evolution_integrals&#45;&gt;eko_kernels_singlet -->
<g id="edge24" class="edge">
<title>eko_kernels_evolution_integrals&#45;&gt;eko_kernels_singlet</title><style>.edge>path:hover{stroke-width:8}</style>
<path fill="none" stroke="black" d="M917,-541.43C876.09,-522.21 824.66,-493.66 822.95,-470.96"/>
</g>
<!-- eko_kernels_non_singlet&#45;&gt;eko_operator -->
<g id="edge25" class="edge">
<title>eko_kernels_non_singlet&#45;&gt;eko_operator</title><style>.edge>path:hover{stroke-width:8}</style>
<path fill="none" stroke="black" d="M966.15,-440.9C966.04,-429.71 966.18,-416.72 966.95,-404.97"/>
</g>
<!-- eko_kernels_singlet&#45;&gt;eko_operator -->
<g id="edge26" class="edge">
<title>eko_kernels_singlet&#45;&gt;eko_operator</title><style>.edge>path:hover{stroke-width:8}</style>
<path fill="none" stroke="black" d="M220.7,-319.47C195.75,-301.26 166.33,-272.41 182.95,-245.99"/>
</g>
<!-- eko_kernels_utils -->
<g id="node14" class="node">
<title>eko_kernels_utils</title><style>.edge>path:hover{stroke-width:8}</style>
<ellipse fill="#c43131" stroke="black" cx="793.95" cy="-563.94" rx="38.78" ry="28.98"/>
<text text-anchor="middle" x="793.95" y="-572.44" font-family="Helvetica,sans-Serif" font-size="10.00" fill="#ffffff">eko.</text>
<text text-anchor="middle" x="793.95" y="-561.44" font-family="Helvetica,sans-Serif" font-size="10.00" fill="#ffffff">kernels.</text>
<text text-anchor="middle" x="793.95" y="-550.44" font-family="Helvetica,sans-Serif" font-size="10.00" fill="#ffffff">utils</text>
</g>
<!-- eko_kernels_utils&#45;&gt;eko_kernels_non_singlet -->
<g id="edge27" class="edge">
<title>eko_kernels_utils&#45;&gt;eko_kernels_non_singlet</title><style>.edge>path:hover{stroke-width:8}</style>
<path fill="none" stroke="black" d="M825.28,-546.28C852.02,-532.07 890.82,-511.43 921.06,-495.35"/>
<polygon fill="#c43131" stroke="black" points="922.96,-498.31 930.15,-490.52 919.68,-492.13 922.96,-498.31"/>
</g>
<!-- eko_kernels_utils&#45;&gt;eko_kernels_singlet -->
<g id="edge28" class="edge">
<title>eko_kernels_utils&#45;&gt;eko_kernels_singlet</title><style>.edge>path:hover{stroke-width:8}</style>
<path fill="none" stroke="black" d="M808.04,-536.62C816.25,-518.57 824.67,-493.83 822.95,-470.96"/>
</g>
<!-- eko_mellin -->
<g id="node15" class="node">
<title>eko_mellin</title><style>.edge>path:hover{stroke-width:8}</style>
<ellipse fill="#b83d3d" stroke="black" cx="1200.95" cy="-751.91" rx="40.06" ry="18"/>
<text text-anchor="middle" x="1200.95" y="-749.41" font-family="Helvetica,sans-Serif" font-size="10.00" fill="#ffffff">eko.mellin</text>
</g>
<!-- eko_mellin&#45;&gt;eko_operator -->
<g id="edge29" class="edge">
<title>eko_mellin&#45;&gt;eko_operator</title><style>.edge>path:hover{stroke-width:8}</style>
<path fill="none" stroke="black" d="M1212.66,-734.59C1224.26,-716.43 1239.42,-686.06 1232.95,-658.92"/>
</g>
<!-- eko_operator&#45;&gt;eko_runner -->
<g id="edge30" class="edge">
<title>eko_operator&#45;&gt;eko_runner</title><style>.edge>path:hover{stroke-width:8}</style>
<path fill="none" stroke="black" d="M966.95,-143.7C966.95,-135.98 966.95,-126.71 966.95,-118.11"/>
<polygon fill="#821717" stroke="black" points="970.45,-118.1 966.95,-108.1 963.45,-118.1 970.45,-118.1"/>
</g>
<!-- eko_operator_flavors&#45;&gt;eko_operator -->
<g id="edge31" class="edge">
<title>eko_operator_flavors&#45;&gt;eko_operator</title><style>.edge>path:hover{stroke-width:8}</style>
<path fill="none" stroke="black" d="M170.87,-723.12C153.2,-651.66 110,-462.96 130.95,-403.97 143.21,-369.43 173.43,-375.36 182.95,-339.97"/>
<path fill="none" stroke="black" d="M182.95,-337.97C190.63,-297.82 161.18,-280.6 182.95,-245.99"/>
<path fill="none" stroke="black" d="M182.95,-243.99C221.73,-182.34 738.25,-167.22 911.06,-163.87"/>
<polygon fill="#bc2f2f" stroke="black" points="911.29,-167.37 921.22,-163.68 911.15,-160.37 911.29,-167.37"/>
</g>
<!-- eko_operator_flavors&#45;&gt;eko_operator_physical -->
<g id="edge32" class="edge">
<title>eko_operator_flavors&#45;&gt;eko_operator_physical</title><style>.edge>path:hover{stroke-width:8}</style>
<path fill="none" stroke="black" d="M151.56,-728.64C136.97,-716.32 118.67,-700.88 103.01,-687.66"/>
<polygon fill="#bc2f2f" stroke="black" points="104.99,-684.76 95.09,-680.98 100.48,-690.11 104.99,-684.76"/>
</g>
<!-- eko_operator_grid -->
<g id="node18" class="node">
<title>eko_operator_grid</title><style>.edge>path:hover{stroke-width:8}</style>
<ellipse fill="#a83838" stroke="black" cx="68.95" cy="-563.94" rx="43.27" ry="28.98"/>
<text text-anchor="middle" x="68.95" y="-572.44" font-family="Helvetica,sans-Serif" font-size="10.00" fill="#ffffff">eko.</text>
<text text-anchor="middle" x="68.95" y="-561.44" font-family="Helvetica,sans-Serif" font-size="10.00" fill="#ffffff">operator.</text>
<text text-anchor="middle" x="68.95" y="-550.44" font-family="Helvetica,sans-Serif" font-size="10.00" fill="#ffffff">grid</text>
</g>
<!-- eko_operator_grid&#45;&gt;eko_runner -->
<g id="edge33" class="edge">
<title>eko_operator_grid&#45;&gt;eko_runner</title><style>.edge>path:hover{stroke-width:8}</style>
<path fill="none" stroke="black" d="M66.35,-534.93C65.29,-516.58 65.08,-492.16 68.95,-470.96"/>
</g>
<!-- eko_operator_member -->
<g id="node19" class="node">
<title>eko_operator_member</title><style>.edge>path:hover{stroke-width:8}</style>
<ellipse fill="#c04040" stroke="black" cx="1037.95" cy="-244.99" rx="43.27" ry="28.98"/>
<text text-anchor="middle" x="1037.95" y="-253.49" font-family="Helvetica,sans-Serif" font-size="10.00" fill="#ffffff">eko.</text>
<text text-anchor="middle" x="1037.95" y="-242.49" font-family="Helvetica,sans-Serif" font-size="10.00" fill="#ffffff">operator.</text>
<text text-anchor="middle" x="1037.95" y="-231.49" font-family="Helvetica,sans-Serif" font-size="10.00" fill="#ffffff">member</text>
</g>
<!-- eko_operator_member&#45;&gt;eko_operator -->
<g id="edge34" class="edge">
<title>eko_operator_member&#45;&gt;eko_operator</title><style>.edge>path:hover{stroke-width:8}</style>
<path fill="none" stroke="black" d="M1016.65,-219.69C1007.62,-209.4 997.13,-197.43 988.12,-187.15"/>
<polygon fill="#c04040" stroke="black" points="990.49,-184.55 981.27,-179.33 985.23,-189.16 990.49,-184.55"/>
</g>
<!-- eko_operator_physical&#45;&gt;eko_operator_grid -->
<g id="edge35" class="edge">
<title>eko_operator_physical&#45;&gt;eko_operator_grid</title><style>.edge>path:hover{stroke-width:8}</style>
<path fill="none" stroke="black" d="M68.95,-628.82C68.95,-620.79 68.95,-611.88 68.95,-603.34"/>
<polygon fill="#a13535" stroke="black" points="72.45,-603.18 68.95,-593.18 65.45,-603.18 72.45,-603.18"/>
</g>
<!-- eko_output&#45;&gt;eko_runner -->
<g id="edge36" class="edge">
<title>eko_output&#45;&gt;eko_runner</title><style>.edge>path:hover{stroke-width:8}</style>
<path fill="none" stroke="black" d="M1612.57,-640.83C1586.7,-610.14 1534.95,-540.12 1534.95,-470.96 1534.95,-470.96 1534.95,-470.96 1534.95,-403.97 1534.95,-331.75 1521.69,-313.83 1496.95,-245.99"/>
</g>
<!-- eko_runner&#45;&gt;eko -->
<g id="edge37" class="edge">
<title>eko_runner&#45;&gt;eko</title><style>.edge>path:hover{stroke-width:8}</style>
<path fill="none" stroke="black" d="M966.95,-71.7C966.95,-63.98 966.95,-54.71 966.95,-46.11"/>
<polygon fill="#8a2e2e" stroke="black" points="970.45,-46.1 966.95,-36.1 963.45,-46.1 970.45,-46.1"/>
</g>
<!-- eko_strong_coupling&#45;&gt;eko_runner -->
<g id="edge38" class="edge">
<title>eko_strong_coupling&#45;&gt;eko_runner</title><style>.edge>path:hover{stroke-width:8}</style>
<path fill="none" stroke="black" d="M1337.22,-636.88C1353.39,-603.42 1382.95,-533.67 1382.95,-470.96 1382.95,-470.96 1382.95,-470.96 1382.95,-403.97 1382.95,-353.93 1415.36,-350.33 1444.95,-309.98 1466.62,-280.43 1491.57,-282.24 1496.95,-245.99"/>
<path fill="none" stroke="black" d="M1496.95,-243.99C1507.26,-144.77 1149.82,-105.72 1016.32,-94.62"/>
<polygon fill="#913030" stroke="black" points="1016.61,-91.13 1006.36,-93.81 1016.04,-98.11 1016.61,-91.13"/>
</g>
<!-- eko_thresholds -->
<g id="node24" class="node">
<title>eko_thresholds</title><style>.edge>path:hover{stroke-width:8}</style>
<ellipse fill="#cc3333" stroke="black" cx="1500.95" cy="-751.91" rx="51.61" ry="18"/>
<text text-anchor="middle" x="1500.95" y="-749.41" font-family="Helvetica,sans-Serif" font-size="10.00" fill="#ffffff">eko.thresholds</text>
</g>
<!-- eko_thresholds&#45;&gt;eko_runner -->
<g id="edge39" class="edge">
<title>eko_thresholds&#45;&gt;eko_runner</title><style>.edge>path:hover{stroke-width:8}</style>
<path fill="none" stroke="black" d="M1494.39,-733.76C1482.57,-701.32 1458.95,-628.49 1458.95,-564.94 1458.95,-564.94 1458.95,-564.94 1458.95,-403.97 1458.95,-399.45 1498.45,-250.25 1496.95,-245.99"/>
</g>
<!-- eko_thresholds&#45;&gt;eko_strong_coupling -->
<g id="edge40" class="edge">
<title>eko_thresholds&#45;&gt;eko_strong_coupling</title><style>.edge>path:hover{stroke-width:8}</style>
<path fill="none" stroke="black" d="M1473.76,-736.53C1445.72,-721.71 1401.6,-698.39 1369.04,-681.17"/>
<polygon fill="#cc3333" stroke="black" points="1370.67,-678.07 1360.19,-676.49 1367.39,-684.26 1370.67,-678.07"/>
</g>
<!-- numba -->
<g id="node25" class="node">
<title>numba</title><style>.edge>path:hover{stroke-width:8}</style>
<ellipse fill="#c0ef06" stroke="black" cx="1056.95" cy="-910.11" rx="29.37" ry="18"/>
<text text-anchor="middle" x="1056.95" y="-907.61" font-family="Helvetica,sans-Serif" font-size="10.00" fill="#000000">numba</text>
</g>
<!-- numba&#45;&gt;eko_anomalous_dimensions -->
<g id="edge41" class="edge">
<title>numba&#45;&gt;eko_anomalous_dimensions</title><style>.edge>path:hover{stroke-width:8}</style>
<path fill="none" stroke="black" d="M1028.82,-904.31C992.31,-897.19 927.54,-881.51 878.95,-852.9 746.82,-775.1 778.75,-689.22 688.95,-564.94"/>
</g>
<!-- numba&#45;&gt;eko_anomalous_dimensions_harmonics -->
<g id="edge42" class="edge">
<title>numba&#45;&gt;eko_anomalous_dimensions_harmonics</title><style>.edge>path:hover{stroke-width:8}</style>
<path fill="none" stroke="black" d="M1027.85,-907.28C935.64,-901.09 651.26,-878.88 570.95,-835.9"/>
<path fill="none" stroke="black" d="M570.95,-833.9C559.43,-827.73 558.04,-823.82 546.95,-816.9 518.6,-799.21 506.92,-801.92 480.95,-780.9 468.21,-770.58 467.17,-765.71 456.95,-752.91"/>
</g>
<!-- numba&#45;&gt;eko_anomalous_dimensions_lo -->
<g id="edge43" class="edge">
<title>numba&#45;&gt;eko_anomalous_dimensions_lo</title><style>.edge>path:hover{stroke-width:8}</style>
<path fill="none" stroke="black" d="M570.95,-833.9C553.42,-824.51 525.8,-771.46 532.95,-752.91"/>
</g>
<!-- numba&#45;&gt;eko_anomalous_dimensions_nlo -->
<g id="edge44" class="edge">
<title>numba&#45;&gt;eko_anomalous_dimensions_nlo</title><style>.edge>path:hover{stroke-width:8}</style>
<path fill="none" stroke="black" d="M570.95,-833.9C549.19,-822.25 500.21,-777.02 494.95,-752.91"/>
</g>
<!-- numba&#45;&gt;eko_beta -->
<g id="edge45" class="edge">
<title>numba&#45;&gt;eko_beta</title><style>.edge>path:hover{stroke-width:8}</style>
<path fill="none" stroke="black" d="M1055.45,-892.13C1054.49,-877.21 1053.92,-854.98 1056.95,-835.9"/>
<path fill="none" stroke="black" d="M1056.95,-833.9C1060.85,-809.33 1041.75,-787.47 1023.59,-772.67"/>
<polygon fill="#c0ef06" stroke="black" points="1025.46,-769.7 1015.39,-766.38 1021.2,-775.25 1025.46,-769.7"/>
</g>
<!-- numba&#45;&gt;eko_interpolation -->
<g id="edge46" class="edge">
<title>numba&#45;&gt;eko_interpolation</title><style>.edge>path:hover{stroke-width:8}</style>
<path fill="none" stroke="black" d="M1084.87,-903.93C1133.23,-894.79 1235.59,-874.7 1320.95,-852.9 1429.26,-825.23 1456.88,-819.07 1561.95,-780.9 1568.86,-778.39 1576.08,-775.52 1583.11,-772.61"/>
<polygon fill="#c0ef06" stroke="black" points="1584.66,-775.75 1592.5,-768.62 1581.93,-769.3 1584.66,-775.75"/>
</g>
<!-- numba&#45;&gt;eko_kernels_evolution_integrals -->
<g id="edge47" class="edge">
<title>numba&#45;&gt;eko_kernels_evolution_integrals</title><style>.edge>path:hover{stroke-width:8}</style>
<path fill="none" stroke="black" d="M1056.95,-833.9C1062.59,-798.34 1043.35,-786.23 1056.95,-752.91"/>
<path fill="none" stroke="black" d="M1056.95,-750.91C1072.45,-712.91 1072.33,-699.29 1064.95,-658.92"/>
<path fill="none" stroke="black" d="M1064.95,-656.92C1060.12,-630.48 1039.78,-609.21 1018.88,-593.81"/>
<polygon fill="#c0ef06" stroke="black" points="1020.77,-590.85 1010.57,-587.99 1016.75,-596.59 1020.77,-590.85"/>
</g>
<!-- numba&#45;&gt;eko_kernels_non_singlet -->
<g id="edge48" class="edge">
<title>numba&#45;&gt;eko_kernels_non_singlet</title><style>.edge>path:hover{stroke-width:8}</style>
<path fill="none" stroke="black" d="M1064.95,-656.92C1057.57,-616.56 1085.18,-604.11 1072.95,-564.94"/>
</g>
<!-- numba&#45;&gt;eko_kernels_singlet -->
<g id="edge49" class="edge">
<title>numba&#45;&gt;eko_kernels_singlet</title><style>.edge>path:hover{stroke-width:8}</style>
<path fill="none" stroke="black" d="M1030.35,-902.2C995.7,-892.16 934.65,-870.84 892.95,-835.9"/>
<path fill="none" stroke="black" d="M892.95,-833.9C868.82,-813.68 863.91,-806.75 845.95,-780.9 791.96,-703.18 768.85,-684.74 745.95,-592.93 739.71,-567.93 735,-558.28 745.95,-534.95 764.85,-494.66 826.29,-515.33 822.95,-470.96"/>
<path fill="none" stroke="black" d="M822.95,-468.96C812.73,-362.74 436.22,-343.99 299.18,-340.68"/>
<polygon fill="#c0ef06" stroke="black" points="299.05,-337.18 288.97,-340.45 298.89,-344.18 299.05,-337.18"/>
</g>
<!-- numba&#45;&gt;eko_kernels_utils -->
<g id="edge50" class="edge">
<title>numba&#45;&gt;eko_kernels_utils</title><style>.edge>path:hover{stroke-width:8}</style>
<path fill="none" stroke="black" d="M892.95,-833.9C825.67,-766.58 868.8,-716.25 830.95,-628.93 826.62,-618.94 821.09,-608.54 815.64,-599.1"/>
<polygon fill="#c0ef06" stroke="black" points="818.58,-597.2 810.47,-590.39 812.56,-600.77 818.58,-597.2"/>
</g>
<!-- numba&#45;&gt;eko_mellin -->
<g id="edge51" class="edge">
<title>numba&#45;&gt;eko_mellin</title><style>.edge>path:hover{stroke-width:8}</style>
<path fill="none" stroke="black" d="M1056.95,-833.9C1057.44,-830.79 1125.02,-793.83 1167.42,-770.93"/>
<polygon fill="#c0ef06" stroke="black" points="1169.17,-773.96 1176.31,-766.13 1165.84,-767.8 1169.17,-773.96"/>
</g>
<!-- numba&#45;&gt;eko_operator -->
<g id="edge52" class="edge">
<title>numba&#45;&gt;eko_operator</title><style>.edge>path:hover{stroke-width:8}</style>
<path fill="none" stroke="black" d="M1056.95,-750.91C1062.2,-738.03 1060.69,-732.31 1070.95,-722.91 1128.03,-670.62 1250.9,-734.23 1232.95,-658.92"/>
<path fill="none" stroke="black" d="M1232.95,-656.92C1202.26,-528.19 1131.49,-523.38 1027.95,-440.97 1003.32,-421.36 967.51,-436.44 966.95,-404.97"/>
</g>
<!-- numba&#45;&gt;eko_strong_coupling -->
<g id="edge53" class="edge">
<title>numba&#45;&gt;eko_strong_coupling</title><style>.edge>path:hover{stroke-width:8}</style>
<path fill="none" stroke="black" d="M1079.38,-898.23C1117.79,-878.78 1197.1,-834.99 1249.95,-780.9 1276.91,-753.3 1299.31,-714.74 1312.88,-688.41"/>
<polygon fill="#c0ef06" stroke="black" points="1316.09,-689.81 1317.46,-679.3 1309.84,-686.66 1316.09,-689.81"/>
</g>
<!-- numpy -->
<g id="node26" class="node">
<title>numpy</title><style>.edge>path:hover{stroke-width:8}</style>
<ellipse fill="#06f967" stroke="black" cx="1162.95" cy="-1057.32" rx="29.37" ry="18"/>
<text text-anchor="middle" x="1162.95" y="-1054.82" font-family="Helvetica,sans-Serif" font-size="10.00" fill="#000000">numpy</text>
</g>
<!-- numpy&#45;&gt;eko_anomalous_dimensions -->
<g id="edge54" class="edge">
<title>numpy&#45;&gt;eko_anomalous_dimensions</title><style>.edge>path:hover{stroke-width:8}</style>
<path fill="none" stroke="black" d="M248.95,-562.94C244.4,-542.29 248.88,-518.86 254.37,-500.81"/>
<polygon fill="#06f967" stroke="black" points="257.76,-501.73 257.57,-491.13 251.11,-499.53 257.76,-501.73"/>
</g>
<!-- numpy&#45;&gt;eko_anomalous_dimensions_harmonics -->
<g id="edge55" class="edge">
<title>numpy&#45;&gt;eko_anomalous_dimensions_harmonics</title><style>.edge>path:hover{stroke-width:8}</style>
<path fill="none" stroke="black" d="M494.95,-984.32C466.86,-967.04 494.95,-868.88 494.95,-835.9"/>
<path fill="none" stroke="black" d="M494.95,-833.9C497.32,-794.21 481.88,-783.88 456.95,-752.91"/>
</g>
<!-- numpy&#45;&gt;eko_anomalous_dimensions_lo -->
<g id="edge56" class="edge">
<title>numpy&#45;&gt;eko_anomalous_dimensions_lo</title><style>.edge>path:hover{stroke-width:8}</style>
<path fill="none" stroke="black" d="M494.95,-833.9C494.95,-794.14 518.66,-790.01 532.95,-752.91"/>
<path fill="none" stroke="black" d="M532.95,-750.91C541.69,-728.21 559.02,-707.78 575.77,-691.98"/>
<polygon fill="#06f967" stroke="black" points="578.35,-694.37 583.39,-685.05 573.64,-689.19 578.35,-694.37"/>
</g>
<!-- numpy&#45;&gt;eko_anomalous_dimensions_nlo -->
<g id="edge57" class="edge">
<title>numpy&#45;&gt;eko_anomalous_dimensions_nlo</title><style>.edge>path:hover{stroke-width:8}</style>
<path fill="none" stroke="black" d="M494.95,-833.9C497.09,-797.96 502.62,-788.07 494.95,-752.91"/>
<path fill="none" stroke="black" d="M494.95,-750.91C483.26,-697.3 501.17,-677.65 475.95,-628.93 470.1,-617.64 461.5,-607.17 452.42,-598.12"/>
<polygon fill="#06f967" stroke="black" points="454.75,-595.5 445.09,-591.17 449.94,-600.58 454.75,-595.5"/>
</g>
<!-- numpy&#45;&gt;eko_basis_rotation -->
<g id="edge58" class="edge">
<title>numpy&#45;&gt;eko_basis_rotation</title><style>.edge>path:hover{stroke-width:8}</style>
<path fill="none" stroke="black" d="M1133.52,-1056.55C1019.01,-1056.92 604.2,-1053.54 494.95,-986.32"/>
<path fill="none" stroke="black" d="M494.95,-984.32C451.16,-957.38 312.97,-933.11 229.63,-920.42"/>
<polygon fill="#06f967" stroke="black" points="229.91,-916.92 219.5,-918.89 228.86,-923.84 229.91,-916.92"/>
</g>
<!-- numpy&#45;&gt;eko_interpolation -->
<g id="edge59" class="edge">
<title>numpy&#45;&gt;eko_interpolation</title><style>.edge>path:hover{stroke-width:8}</style>
<path fill="none" stroke="black" d="M1500.95,-833.9C1497.78,-814.25 1543.42,-789.15 1580.66,-772.14"/>
<polygon fill="#06f967" stroke="black" points="1582.21,-775.28 1589.91,-768 1579.35,-768.89 1582.21,-775.28"/>
</g>
<!-- numpy&#45;&gt;eko_kernels_evolution_integrals -->
<g id="edge60" class="edge">
<title>numpy&#45;&gt;eko_kernels_evolution_integrals</title><style>.edge>path:hover{stroke-width:8}</style>
<path fill="none" stroke="black" d="M778.95,-909.11C857.35,-807.24 922.37,-668.42 951.1,-602.57"/>
<polygon fill="#06f967" stroke="black" points="954.47,-603.59 955.23,-593.02 948.05,-600.81 954.47,-603.59"/>
</g>
<!-- numpy&#45;&gt;eko_kernels_non_singlet -->
<g id="edge61" class="edge">
<title>numpy&#45;&gt;eko_kernels_non_singlet</title><style>.edge>path:hover{stroke-width:8}</style>
<path fill="none" stroke="black" d="M1191.48,-1052.65C1251.19,-1044.31 1386,-1021.89 1412.95,-986.32"/>
<path fill="none" stroke="black" d="M1412.95,-984.32C1501.78,-867.11 1238.56,-899.76 1151.95,-780.9 1091.76,-698.3 1103.42,-662.49 1072.95,-564.94"/>
</g>
<!-- numpy&#45;&gt;eko_kernels_singlet -->
<g id="edge62" class="edge">
<title>numpy&#45;&gt;eko_kernels_singlet</title><style>.edge>path:hover{stroke-width:8}</style>
<path fill="none" stroke="black" d="M248.95,-656.92C235.34,-618.37 257.74,-604.86 248.95,-564.94"/>
<path fill="none" stroke="black" d="M248.95,-562.94C238.78,-516.76 185.06,-541.26 163.95,-498.95 152.45,-475.89 162.22,-466.68 163.95,-440.97 165.06,-424.41 160.73,-418.38 168.95,-403.97 178.69,-386.89 194.95,-372.7 210.36,-362.06"/>
<polygon fill="#06f967" stroke="black" points="212.36,-364.93 218.79,-356.51 208.51,-359.08 212.36,-364.93"/>
</g>
<!-- numpy&#45;&gt;eko_kernels_utils -->
<g id="edge63" class="edge">
<title>numpy&#45;&gt;eko_kernels_utils</title><style>.edge>path:hover{stroke-width:8}</style>
<path fill="none" stroke="black" d="M494.95,-984.32C382.48,-918.43 695.4,-1011.16 778.95,-911.11"/>
<path fill="none" stroke="black" d="M778.95,-909.11C816.88,-863.69 805.14,-682.88 797.85,-603.1"/>
<polygon fill="#06f967" stroke="black" points="801.32,-602.61 796.9,-592.98 794.35,-603.27 801.32,-602.61"/>
</g>
<!-- numpy&#45;&gt;eko_mellin -->
<g id="edge64" class="edge">
<title>numpy&#45;&gt;eko_mellin</title><style>.edge>path:hover{stroke-width:8}</style>
<path fill="none" stroke="black" d="M1412.95,-984.32C1443.68,-943.77 1476.27,-955.6 1500.95,-911.11"/>
<path fill="none" stroke="black" d="M1500.95,-909.11C1529.24,-858.12 1333.09,-792.24 1243.7,-765.25"/>
<polygon fill="#06f967" stroke="black" points="1244.45,-761.82 1233.86,-762.31 1242.44,-768.53 1244.45,-761.82"/>
</g>
<!-- numpy&#45;&gt;eko_operator -->
<g id="edge65" class="edge">
<title>numpy&#45;&gt;eko_operator</title><style>.edge>path:hover{stroke-width:8}</style>
<path fill="none" stroke="black" d="M1500.95,-909.11C1517.35,-881 1506.13,-868.02 1500.95,-835.9"/>
<path fill="none" stroke="black" d="M1500.95,-833.9C1493.31,-786.55 1448.35,-805.11 1406.95,-780.9 1325.43,-733.22 1245.55,-752.52 1232.95,-658.92"/>
</g>
<!-- numpy&#45;&gt;eko_operator_flavors -->
<g id="edge66" class="edge">
<title>numpy&#45;&gt;eko_operator_flavors</title><style>.edge>path:hover{stroke-width:8}</style>
<path fill="none" stroke="black" d="M248.95,-833.9C233.12,-818.89 216.97,-800.74 204.09,-785.43"/>
<polygon fill="#06f967" stroke="black" points="206.75,-783.16 197.66,-777.71 201.37,-787.63 206.75,-783.16"/>
</g>
<!-- numpy&#45;&gt;eko_operator_grid -->
<g id="edge67" class="edge">
<title>numpy&#45;&gt;eko_operator_grid</title><style>.edge>path:hover{stroke-width:8}</style>
<path fill="none" stroke="black" d="M248.95,-833.9C194.01,-778.86 277.93,-731.09 248.95,-658.92"/>
<path fill="none" stroke="black" d="M248.95,-656.92C230.66,-605.13 167.45,-582.28 121.09,-572.35"/>
<polygon fill="#06f967" stroke="black" points="121.67,-568.9 111.18,-570.37 120.3,-575.76 121.67,-568.9"/>
</g>
<!-- numpy&#45;&gt;eko_operator_member -->
<g id="edge68" class="edge">
<title>numpy&#45;&gt;eko_operator_member</title><style>.edge>path:hover{stroke-width:8}</style>
<path fill="none" stroke="black" d="M1420.95,-750.91C1397.09,-717.16 1420.95,-606.27 1420.95,-564.94 1420.95,-564.94 1420.95,-564.94 1420.95,-403.97 1420.95,-333.05 1193.72,-277.66 1089.31,-255.95"/>
<polygon fill="#06f967" stroke="black" points="1089.8,-252.47 1079.3,-253.89 1088.39,-259.33 1089.8,-252.47"/>
</g>
<!-- numpy&#45;&gt;eko_operator_physical -->
<g id="edge69" class="edge">
<title>numpy&#45;&gt;eko_operator_physical</title><style>.edge>path:hover{stroke-width:8}</style>
<path fill="none" stroke="black" d="M494.95,-984.32C441.82,-952.39 419.21,-963.03 365.95,-931.32 308.29,-897 297.64,-882.07 248.95,-835.9"/>
<path fill="none" stroke="black" d="M248.95,-833.9C206.85,-791.82 168.67,-822.34 125.95,-780.9 102.22,-757.88 87.31,-723.06 78.72,-696.51"/>
<polygon fill="#06f967" stroke="black" points="82.02,-695.32 75.73,-686.78 75.33,-697.37 82.02,-695.32"/>
</g>
<!-- numpy&#45;&gt;eko_output -->
<g id="edge70" class="edge">
<title>numpy&#45;&gt;eko_output</title><style>.edge>path:hover{stroke-width:8}</style>
<path fill="none" stroke="black" d="M1500.95,-909.11C1524.1,-867.59 1552.41,-879.29 1591.95,-852.9 1637.5,-822.49 1653.76,-820.15 1691.95,-780.9 1702.43,-770.12 1708.97,-767.81 1710.95,-752.91"/>
</g>
<!-- numpy&#45;&gt;eko_strong_coupling -->
<g id="edge71" class="edge">
<title>numpy&#45;&gt;eko_strong_coupling</title><style>.edge>path:hover{stroke-width:8}</style>
<path fill="none" stroke="black" d="M1500.95,-833.9C1495.23,-798.44 1463.79,-807.76 1439.95,-780.9 1429.97,-769.65 1429.63,-765.18 1420.95,-752.91"/>
<path fill="none" stroke="black" d="M1420.95,-750.91C1403.23,-725.83 1378.18,-701.72 1358.4,-684.48"/>
<polygon fill="#06f967" stroke="black" points="1360.43,-681.61 1350.56,-677.76 1355.88,-686.92 1360.43,-681.61"/>
</g>
<!-- numpy&#45;&gt;eko_thresholds -->
<g id="edge72" class="edge">
<title>numpy&#45;&gt;eko_thresholds</title><style>.edge>path:hover{stroke-width:8}</style>
<path fill="none" stroke="black" d="M1500.95,-833.9C1498.09,-816.19 1498.08,-796.02 1498.79,-780.24"/>
<polygon fill="#06f967" stroke="black" points="1502.3,-780.28 1499.37,-770.1 1495.31,-779.88 1502.3,-780.28"/>
</g>
<!-- scipy -->
<g id="node27" class="node">
<title>scipy</title><style>.edge>path:hover{stroke-width:8}</style>
<ellipse fill="#0663ef" stroke="black" cx="1162.95" cy="-985.32" rx="27" ry="18"/>
<text text-anchor="middle" x="1162.95" y="-982.82" font-family="Helvetica,sans-Serif" font-size="10.00" fill="#ffffff">scipy</text>
</g>
<!-- numpy&#45;&gt;scipy -->
<g id="edge73" class="edge">
<title>numpy&#45;&gt;scipy</title><style>.edge>path:hover{stroke-width:8}</style>
<path fill="none" stroke="black" d="M1162.95,-1039.02C1162.95,-1031.31 1162.95,-1022.04 1162.95,-1013.44"/>
<polygon fill="#06f967" stroke="black" points="1166.45,-1013.43 1162.95,-1003.43 1159.45,-1013.43 1166.45,-1013.43"/>
</g>
<!-- scipy&#45;&gt;eko_anomalous_dimensions_harmonics -->
<g id="edge74" class="edge">
<title>scipy&#45;&gt;eko_anomalous_dimensions_harmonics</title><style>.edge>path:hover{stroke-width:8}</style>
<path fill="none" stroke="black" d="M1136,-982.86C1071.2,-978.88 901.84,-965.76 764.95,-931.32 611.53,-892.72 555.64,-876.55 456.95,-752.91"/>
</g>
<!-- scipy&#45;&gt;eko_operator -->
<g id="edge75" class="edge">
<title>scipy&#45;&gt;eko_operator</title><style>.edge>path:hover{stroke-width:8}</style>
<path fill="none" stroke="black" d="M1172.41,-968.45C1191.65,-935.12 1234.8,-854.84 1249.95,-780.9 1255.12,-755.65 1253.29,-748.47 1249.95,-722.91 1246.14,-693.73 1237.55,-687.99 1232.95,-658.92"/>
</g>
<!-- scipy&#45;&gt;eko_strong_coupling -->
<g id="edge76" class="edge">
<title>scipy&#45;&gt;eko_strong_coupling</title><style>.edge>path:hover{stroke-width:8}</style>
<path fill="none" stroke="black" d="M1188.95,-980.27C1216.77,-974.49 1259.98,-961.07 1282.95,-931.32 1338.67,-859.16 1335.86,-743.75 1330.75,-689.27"/>
<polygon fill="#0663ef" stroke="black" points="1334.22,-688.81 1329.72,-679.22 1327.26,-689.52 1334.22,-688.81"/>
</g>
<!-- scipy&#45;&gt;numba -->
<g id="edge77" class="edge">
<title>scipy&#45;&gt;numba</title><style>.edge>path:hover{stroke-width:8}</style>
<path fill="none" stroke="black" d="M1144.49,-971.57C1127.82,-960.06 1103.08,-942.97 1084.15,-929.9"/>
<polygon fill="#0663ef" stroke="black" points="1086.13,-927.01 1075.92,-924.21 1082.15,-932.77 1086.13,-927.01"/>
</g>
<!-- scipy_integrate -->
<g id="node28" class="node">
<title>scipy_integrate</title><style>.edge>path:hover{stroke-width:8}</style>
<ellipse fill="#4c75b3" stroke="black" cx="895.95" cy="-338.97" rx="43.27" ry="21.43"/>
<text text-anchor="middle" x="895.95" y="-341.97" font-family="Helvetica,sans-Serif" font-size="10.00" fill="#ffffff">scipy.</text>
<text text-anchor="middle" x="895.95" y="-330.97" font-family="Helvetica,sans-Serif" font-size="10.00" fill="#ffffff">integrate</text>
</g>
<!-- scipy_integrate&#45;&gt;eko_operator -->
<g id="edge78" class="edge">
<title>scipy_integrate&#45;&gt;eko_operator</title><style>.edge>path:hover{stroke-width:8}</style>
<path fill="none" stroke="black" d="M918.12,-320.36C936.81,-303.63 961.37,-276.55 966.95,-245.99"/>
<path fill="none" stroke="black" d="M966.95,-243.99C970.17,-226.35 970.18,-206.18 969.38,-190.38"/>
<polygon fill="#4c75b3" stroke="black" points="972.86,-189.98 968.73,-180.23 965.88,-190.43 972.86,-189.98"/>
</g>
<!-- scipy_special -->
<g id="node29" class="node">
<title>scipy_special</title><style>.edge>path:hover{stroke-width:8}</style>
<ellipse fill="#3d6eb8" stroke="black" cx="420.95" cy="-910.11" rx="45.83" ry="18"/>
<text text-anchor="middle" x="420.95" y="-907.61" font-family="Helvetica,sans-Serif" font-size="10.00" fill="#ffffff">scipy.special</text>
</g>
<!-- scipy_special&#45;&gt;eko_anomalous_dimensions_harmonics -->
<g id="edge79" class="edge">
<title>scipy_special&#45;&gt;eko_anomalous_dimensions_harmonics</title><style>.edge>path:hover{stroke-width:8}</style>
<path fill="none" stroke="black" d="M432.78,-892.56C453.26,-861.74 490.07,-794.84 456.95,-752.91"/>
<path fill="none" stroke="black" d="M456.95,-750.91C441.07,-731.01 421.94,-710.08 405.85,-693.21"/>
<polygon fill="#3d6eb8" stroke="black" points="408.15,-690.55 398.69,-685.77 403.1,-695.4 408.15,-690.55"/>
</g>
<!-- yaml -->
<g id="node30" class="node">
<title>yaml</title><style>.edge>path:hover{stroke-width:8}</style>
<ellipse fill="#a253b6" stroke="black" cx="1555.95" cy="-834.9" rx="27" ry="18"/>
<text text-anchor="middle" x="1555.95" y="-832.4" font-family="Helvetica,sans-Serif" font-size="10.00" fill="#ffffff">yaml</text>
</g>
<!-- yaml&#45;&gt;eko_output -->
<g id="edge80" class="edge">
<title>yaml&#45;&gt;eko_output</title><style>.edge>path:hover{stroke-width:8}</style>
<path fill="none" stroke="black" d="M1578.46,-824.42C1584.45,-821.93 1590.93,-819.28 1596.95,-816.9 1650.96,-795.47 1703.29,-810.5 1710.95,-752.91"/>
<path fill="none" stroke="black" d="M1710.95,-750.91C1715.18,-719.07 1686.24,-693.22 1661.19,-677.12"/>
<polygon fill="#a253b6" stroke="black" points="1662.91,-674.07 1652.55,-671.84 1659.26,-680.04 1662.91,-674.07"/>
</g>
</g>
</svg>
