<?xml version="1.0" encoding="UTF-8" standalone="no"?>
<!DOCTYPE svg PUBLIC "-//W3C//DTD SVG 1.1//EN"
 "http://www.w3.org/Graphics/SVG/1.1/DTD/svg11.dtd">
<!-- Generated by graphviz version 2.43.0 (0)
 -->
<!-- Title: G Pages: 1 -->
<svg width="1090pt" height="620pt"
 viewBox="0.00 0.00 1089.66 619.84" xmlns="http://www.w3.org/2000/svg" xmlns:xlink="http://www.w3.org/1999/xlink">
<g id="graph0" class="graph" transform="scale(1 1) rotate(0) translate(4 615.84)">
<title>G</title><style>.edge>path:hover{stroke-width:8}</style>
<polygon fill="white" stroke="transparent" points="-4,4 -4,-615.84 1085.66,-615.84 1085.66,4 -4,4"/>
<!-- eko -->
<g id="node1" class="node">
<title>eko</title><style>.edge>path:hover{stroke-width:8}</style>
<ellipse fill="#ef0606" stroke="black" cx="281.86" cy="-18" rx="27" ry="18"/>
<text text-anchor="middle" x="281.86" y="-15.5" font-family="Helvetica,sans-Serif" font-size="10.00" fill="#ffffff">eko</text>
</g>
<!-- eko_anomalous_dimensions -->
<g id="node2" class="node">
<title>eko_anomalous_dimensions</title><style>.edge>path:hover{stroke-width:8}</style>
<ellipse fill="#c24747" stroke="black" cx="757.86" cy="-243.64" rx="93.18" ry="21.43"/>
<text text-anchor="middle" x="757.86" y="-246.64" font-family="Helvetica,sans-Serif" font-size="10.00" fill="#ffffff">eko.</text>
<text text-anchor="middle" x="757.86" y="-235.64" font-family="Helvetica,sans-Serif" font-size="10.00" fill="#ffffff">anomalous_dimensions</text>
</g>
<!-- eko_kernel_generation -->
<g id="node10" class="node">
<title>eko_kernel_generation</title><style>.edge>path:hover{stroke-width:8}</style>
<ellipse fill="#993333" stroke="black" cx="696.86" cy="-165.21" rx="73.58" ry="21.43"/>
<text text-anchor="middle" x="696.86" y="-168.21" font-family="Helvetica,sans-Serif" font-size="10.00" fill="#ffffff">eko.</text>
<text text-anchor="middle" x="696.86" y="-157.21" font-family="Helvetica,sans-Serif" font-size="10.00" fill="#ffffff">kernel_generation</text>
</g>
<!-- eko_anomalous_dimensions&#45;&gt;eko_kernel_generation -->
<g id="edge1" class="edge">
<title>eko_anomalous_dimensions&#45;&gt;eko_kernel_generation</title><style>.edge>path:hover{stroke-width:8}</style>
<path fill="none" stroke="black" d="M741.83,-222.56C734.9,-213.87 726.67,-203.55 719.15,-194.14"/>
<polygon fill="#c24747" stroke="black" points="721.76,-191.79 712.78,-186.16 716.28,-196.16 721.76,-191.79"/>
</g>
<!-- eko_anomalous_dimensions_lo -->
<g id="node3" class="node">
<title>eko_anomalous_dimensions_lo</title><style>.edge>path:hover{stroke-width:8}</style>
<ellipse fill="#b03a3a" stroke="black" cx="636.86" cy="-329.84" rx="95.42" ry="28.98"/>
<text text-anchor="middle" x="636.86" y="-338.34" font-family="Helvetica,sans-Serif" font-size="10.00" fill="#ffffff">eko.</text>
<text text-anchor="middle" x="636.86" y="-327.34" font-family="Helvetica,sans-Serif" font-size="10.00" fill="#ffffff">anomalous_dimensions.</text>
<text text-anchor="middle" x="636.86" y="-316.34" font-family="Helvetica,sans-Serif" font-size="10.00" fill="#ffffff">lo</text>
</g>
<!-- eko_anomalous_dimensions_lo&#45;&gt;eko_kernel_generation -->
<g id="edge2" class="edge">
<title>eko_anomalous_dimensions_lo&#45;&gt;eko_kernel_generation</title><style>.edge>path:hover{stroke-width:8}</style>
<path fill="none" stroke="black" d="M628.42,-300.71C624.86,-282.67 624.06,-259.85 636.86,-244.64"/>
</g>
<!-- eko_anomalous_dimensions_nlo -->
<g id="node4" class="node">
<title>eko_anomalous_dimensions_nlo</title><style>.edge>path:hover{stroke-width:8}</style>
<ellipse fill="#a44646" stroke="black" cx="427.86" cy="-329.84" rx="95.42" ry="28.98"/>
<text text-anchor="middle" x="427.86" y="-338.34" font-family="Helvetica,sans-Serif" font-size="10.00" fill="#ffffff">eko.</text>
<text text-anchor="middle" x="427.86" y="-327.34" font-family="Helvetica,sans-Serif" font-size="10.00" fill="#ffffff">anomalous_dimensions.</text>
<text text-anchor="middle" x="427.86" y="-316.34" font-family="Helvetica,sans-Serif" font-size="10.00" fill="#ffffff">nlo</text>
</g>
<!-- eko_constants -->
<g id="node5" class="node">
<title>eko_constants</title><style>.edge>path:hover{stroke-width:8}</style>
<ellipse fill="#ce3b3b" stroke="black" cx="836.86" cy="-329.84" rx="49.4" ry="18"/>
<text text-anchor="middle" x="836.86" y="-327.34" font-family="Helvetica,sans-Serif" font-size="10.00" fill="#ffffff">eko.constants</text>
</g>
<!-- eko_runner -->
<g id="node14" class="node">
<title>eko_runner</title><style>.edge>path:hover{stroke-width:8}</style>
<ellipse fill="#8a2e2e" stroke="black" cx="281.86" cy="-90" rx="40.06" ry="18"/>
<text text-anchor="middle" x="281.86" y="-87.5" font-family="Helvetica,sans-Serif" font-size="10.00" fill="#ffffff">eko.runner</text>
</g>
<!-- eko_constants&#45;&gt;eko_runner -->
<g id="edge3" class="edge">
<title>eko_constants&#45;&gt;eko_runner</title><style>.edge>path:hover{stroke-width:8}</style>
<path fill="none" stroke="black" d="M843.9,-312.01C853.73,-289.82 873.18,-250.34 897.86,-222.43 925.46,-191.22 1000.68,-197.22 972.86,-166.21"/>
<path fill="none" stroke="black" d="M972.86,-164.21C929.68,-117.09 484.49,-97.82 332.44,-92.57"/>
<polygon fill="#ce3b3b" stroke="black" points="332.12,-89.06 322.01,-92.22 331.88,-96.06 332.12,-89.06"/>
</g>
<!-- eko_strong_coupling -->
<g id="node15" class="node">
<title>eko_strong_coupling</title><style>.edge>path:hover{stroke-width:8}</style>
<ellipse fill="#b42d2d" stroke="black" cx="972.86" cy="-243.64" rx="66.44" ry="21.43"/>
<text text-anchor="middle" x="972.86" y="-246.64" font-family="Helvetica,sans-Serif" font-size="10.00" fill="#ffffff">eko.</text>
<text text-anchor="middle" x="972.86" y="-235.64" font-family="Helvetica,sans-Serif" font-size="10.00" fill="#ffffff">strong_coupling</text>
</g>
<!-- eko_constants&#45;&gt;eko_strong_coupling -->
<g id="edge4" class="edge">
<title>eko_constants&#45;&gt;eko_strong_coupling</title><style>.edge>path:hover{stroke-width:8}</style>
<path fill="none" stroke="black" d="M860.86,-313.98C881.28,-301.34 910.98,-282.95 934.66,-268.29"/>
<polygon fill="#ce3b3b" stroke="black" points="936.76,-271.11 943.42,-262.87 933.07,-265.16 936.76,-271.11"/>
</g>
<!-- eko_ekomath -->
<g id="node6" class="node">
<title>eko_ekomath</title><style>.edge>path:hover{stroke-width:8}</style>
<ellipse fill="#cc3333" stroke="black" cx="636.86" cy="-484.84" rx="47.19" ry="18"/>
<text text-anchor="middle" x="636.86" y="-482.34" font-family="Helvetica,sans-Serif" font-size="10.00" fill="#ffffff">eko.ekomath</text>
</g>
<!-- eko_ekomath&#45;&gt;eko_anomalous_dimensions_lo -->
<g id="edge5" class="edge">
<title>eko_ekomath&#45;&gt;eko_anomalous_dimensions_lo</title><style>.edge>path:hover{stroke-width:8}</style>
<path fill="none" stroke="black" d="M636.86,-411.84C630.58,-398.82 629.34,-383.2 630.11,-369.16"/>
<polygon fill="#cc3333" stroke="black" points="633.63,-369.08 631.04,-358.81 626.66,-368.45 633.63,-369.08"/>
</g>
<!-- eko_ekomath&#45;&gt;eko_anomalous_dimensions_nlo -->
<g id="edge6" class="edge">
<title>eko_ekomath&#45;&gt;eko_anomalous_dimensions_nlo</title><style>.edge>path:hover{stroke-width:8}</style>
<path fill="none" stroke="black" d="M640.84,-466.8C643.39,-452.03 644.89,-430.47 636.86,-413.84"/>
<path fill="none" stroke="black" d="M636.86,-411.84C630.52,-398.71 560.01,-373.2 502.61,-354.31"/>
<polygon fill="#cc3333" stroke="black" points="503.39,-350.88 492.8,-351.1 501.22,-357.53 503.39,-350.88"/>
</g>
<!-- eko_evolution_operator -->
<g id="node7" class="node">
<title>eko_evolution_operator</title><style>.edge>path:hover{stroke-width:8}</style>
<ellipse fill="#bc2f2f" stroke="black" cx="206.86" cy="-243.64" rx="77.15" ry="21.43"/>
<text text-anchor="middle" x="206.86" y="-246.64" font-family="Helvetica,sans-Serif" font-size="10.00" fill="#ffffff">eko.</text>
<text text-anchor="middle" x="206.86" y="-235.64" font-family="Helvetica,sans-Serif" font-size="10.00" fill="#ffffff">evolution_operator</text>
</g>
<!-- eko_operator_grid -->
<g id="node12" class="node">
<title>eko_operator_grid</title><style>.edge>path:hover{stroke-width:8}</style>
<ellipse fill="#b83d3d" stroke="black" cx="281.86" cy="-165.21" rx="57.97" ry="21.43"/>
<text text-anchor="middle" x="281.86" y="-168.21" font-family="Helvetica,sans-Serif" font-size="10.00" fill="#ffffff">eko.</text>
<text text-anchor="middle" x="281.86" y="-157.21" font-family="Helvetica,sans-Serif" font-size="10.00" fill="#ffffff">operator_grid</text>
</g>
<!-- eko_evolution_operator&#45;&gt;eko_operator_grid -->
<g id="edge7" class="edge">
<title>eko_evolution_operator&#45;&gt;eko_operator_grid</title><style>.edge>path:hover{stroke-width:8}</style>
<path fill="none" stroke="black" d="M226.18,-222.96C235.24,-213.72 246.17,-202.59 255.94,-192.63"/>
<polygon fill="#bc2f2f" stroke="black" points="258.62,-194.89 263.13,-185.3 253.63,-189.99 258.62,-194.89"/>
</g>
<!-- eko_output -->
<g id="node13" class="node">
<title>eko_output</title><style>.edge>path:hover{stroke-width:8}</style>
<ellipse fill="#b03a3a" stroke="black" cx="165.86" cy="-165.21" rx="40.06" ry="18"/>
<text text-anchor="middle" x="165.86" y="-162.71" font-family="Helvetica,sans-Serif" font-size="10.00" fill="#ffffff">eko.output</text>
</g>
<!-- eko_evolution_operator&#45;&gt;eko_output -->
<g id="edge8" class="edge">
<title>eko_evolution_operator&#45;&gt;eko_output</title><style>.edge>path:hover{stroke-width:8}</style>
<path fill="none" stroke="black" d="M196.09,-222.56C191.05,-213.18 185,-201.89 179.64,-191.89"/>
<polygon fill="#bc2f2f" stroke="black" points="182.58,-189.97 174.76,-182.81 176.41,-193.28 182.58,-189.97"/>
</g>
<!-- eko_flavours -->
<g id="node8" class="node">
<title>eko_flavours</title><style>.edge>path:hover{stroke-width:8}</style>
<ellipse fill="#c24747" stroke="black" cx="1029.86" cy="-412.84" rx="45.15" ry="18"/>
<text text-anchor="middle" x="1029.86" y="-410.34" font-family="Helvetica,sans-Serif" font-size="10.00" fill="#ffffff">eko.flavours</text>
</g>
<!-- eko_thresholds -->
<g id="node16" class="node">
<title>eko_thresholds</title><style>.edge>path:hover{stroke-width:8}</style>
<ellipse fill="#c43131" stroke="black" cx="1029.86" cy="-329.84" rx="51.61" ry="18"/>
<text text-anchor="middle" x="1029.86" y="-327.34" font-family="Helvetica,sans-Serif" font-size="10.00" fill="#ffffff">eko.thresholds</text>
</g>
<!-- eko_flavours&#45;&gt;eko_thresholds -->
<g id="edge9" class="edge">
<title>eko_flavours&#45;&gt;eko_thresholds</title><style>.edge>path:hover{stroke-width:8}</style>
<path fill="none" stroke="black" d="M1029.86,-394.66C1029.86,-384.03 1029.86,-370.15 1029.86,-358.04"/>
<polygon fill="#c24747" stroke="black" points="1033.36,-358 1029.86,-348 1026.36,-358 1033.36,-358"/>
</g>
<!-- eko_interpolation -->
<g id="node9" class="node">
<title>eko_interpolation</title><style>.edge>path:hover{stroke-width:8}</style>
<ellipse fill="#cc3333" stroke="black" cx="55.86" cy="-243.64" rx="55.72" ry="21.43"/>
<text text-anchor="middle" x="55.86" y="-246.64" font-family="Helvetica,sans-Serif" font-size="10.00" fill="#ffffff">eko.</text>
<text text-anchor="middle" x="55.86" y="-235.64" font-family="Helvetica,sans-Serif" font-size="10.00" fill="#ffffff">interpolation</text>
</g>
<!-- eko_interpolation&#45;&gt;eko_output -->
<g id="edge10" class="edge">
<title>eko_interpolation&#45;&gt;eko_output</title><style>.edge>path:hover{stroke-width:8}</style>
<path fill="none" stroke="black" d="M81.65,-224.72C98.09,-213.3 119.43,-198.47 136.52,-186.6"/>
<polygon fill="#cc3333" stroke="black" points="138.8,-189.28 145.02,-180.7 134.81,-183.53 138.8,-189.28"/>
</g>
<!-- eko_interpolation&#45;&gt;eko_runner -->
<g id="edge11" class="edge">
<title>eko_interpolation&#45;&gt;eko_runner</title><style>.edge>path:hover{stroke-width:8}</style>
<path fill="none" stroke="black" d="M63.42,-222.27C72.7,-199.96 90.54,-164.6 116.86,-144 150.72,-117.51 198.19,-104.08 233.53,-97.38"/>
<polygon fill="#cc3333" stroke="black" points="234.38,-100.79 243.61,-95.59 233.15,-93.89 234.38,-100.79"/>
</g>
<!-- eko_kernel_generation&#45;&gt;eko_runner -->
<g id="edge12" class="edge">
<title>eko_kernel_generation&#45;&gt;eko_runner</title><style>.edge>path:hover{stroke-width:8}</style>
<path fill="none" stroke="black" d="M635.63,-153.41C551.97,-138.65 403.77,-112.51 328.51,-99.23"/>
<polygon fill="#993333" stroke="black" points="328.85,-95.74 318.39,-97.44 327.63,-102.63 328.85,-95.74"/>
</g>
<!-- eko_mellin -->
<g id="node11" class="node">
<title>eko_mellin</title><style>.edge>path:hover{stroke-width:8}</style>
<ellipse fill="#cc3333" stroke="black" cx="274.86" cy="-329.84" rx="40.06" ry="18"/>
<text text-anchor="middle" x="274.86" y="-327.34" font-family="Helvetica,sans-Serif" font-size="10.00" fill="#ffffff">eko.mellin</text>
</g>
<!-- eko_mellin&#45;&gt;eko_evolution_operator -->
<g id="edge13" class="edge">
<title>eko_mellin&#45;&gt;eko_evolution_operator</title><style>.edge>path:hover{stroke-width:8}</style>
<path fill="none" stroke="black" d="M261.75,-312.61C252.61,-301.29 240.18,-285.9 229.46,-272.62"/>
<polygon fill="#cc3333" stroke="black" points="232.06,-270.27 223.05,-264.69 226.61,-274.67 232.06,-270.27"/>
</g>
<!-- eko_mellin&#45;&gt;eko_kernel_generation -->
<g id="edge14" class="edge">
<title>eko_mellin&#45;&gt;eko_kernel_generation</title><style>.edge>path:hover{stroke-width:8}</style>
<path fill="none" stroke="black" d="M296.53,-314.35C304.78,-309.4 314.47,-304.26 323.86,-300.85 456.71,-252.61 545.86,-352.78 636.86,-244.64"/>
<path fill="none" stroke="black" d="M636.86,-242.64C650.03,-226.99 664.18,-209.03 675.43,-194.45"/>
<polygon fill="#cc3333" stroke="black" points="678.37,-196.37 681.69,-186.3 672.82,-192.1 678.37,-196.37"/>
</g>
<!-- eko_operator_grid&#45;&gt;eko_runner -->
<g id="edge15" class="edge">
<title>eko_operator_grid&#45;&gt;eko_runner</title><style>.edge>path:hover{stroke-width:8}</style>
<path fill="none" stroke="black" d="M281.86,-143.82C281.86,-135.97 281.86,-126.86 281.86,-118.45"/>
<polygon fill="#b83d3d" stroke="black" points="285.36,-118.31 281.86,-108.31 278.36,-118.31 285.36,-118.31"/>
</g>
<!-- eko_output&#45;&gt;eko_runner -->
<g id="edge16" class="edge">
<title>eko_output&#45;&gt;eko_runner</title><style>.edge>path:hover{stroke-width:8}</style>
<path fill="none" stroke="black" d="M188.23,-150.1C206.04,-138.85 231.17,-122.99 250.92,-110.53"/>
<polygon fill="#b03a3a" stroke="black" points="252.98,-113.37 259.56,-105.07 249.24,-107.45 252.98,-113.37"/>
</g>
<!-- eko_runner&#45;&gt;eko -->
<g id="edge17" class="edge">
<title>eko_runner&#45;&gt;eko</title><style>.edge>path:hover{stroke-width:8}</style>
<path fill="none" stroke="black" d="M281.86,-71.7C281.86,-63.98 281.86,-54.71 281.86,-46.11"/>
<polygon fill="#8a2e2e" stroke="black" points="285.36,-46.1 281.86,-36.1 278.36,-46.1 285.36,-46.1"/>
</g>
<!-- eko_strong_coupling&#45;&gt;eko_kernel_generation -->
<g id="edge18" class="edge">
<title>eko_strong_coupling&#45;&gt;eko_kernel_generation</title><style>.edge>path:hover{stroke-width:8}</style>
<path fill="none" stroke="black" d="M924.15,-229.15C877.87,-216.34 808.11,-197.02 758.09,-183.17"/>
<polygon fill="#b42d2d" stroke="black" points="758.93,-179.77 748.36,-180.47 757.06,-186.52 758.93,-179.77"/>
</g>
<!-- eko_strong_coupling&#45;&gt;eko_runner -->
<g id="edge19" class="edge">
<title>eko_strong_coupling&#45;&gt;eko_runner</title><style>.edge>path:hover{stroke-width:8}</style>
<path fill="none" stroke="black" d="M979.53,-222.48C983.8,-205.35 986.33,-181.23 972.86,-166.21"/>
</g>
<!-- eko_thresholds&#45;&gt;eko_runner -->
<g id="edge20" class="edge">
<title>eko_thresholds&#45;&gt;eko_runner</title><style>.edge>path:hover{stroke-width:8}</style>
<path fill="none" stroke="black" d="M1038.71,-312.06C1048.89,-290.27 1062.45,-251.59 1047.86,-222.43 1029.23,-185.17 1001.01,-196.92 972.86,-166.21"/>
</g>
<!-- eko_thresholds&#45;&gt;eko_strong_coupling -->
<g id="edge21" class="edge">
<title>eko_thresholds&#45;&gt;eko_strong_coupling</title><style>.edge>path:hover{stroke-width:8}</style>
<path fill="none" stroke="black" d="M1018.6,-312.21C1011.06,-301.07 1000.94,-286.12 992.14,-273.12"/>
<polygon fill="#c43131" stroke="black" points="994.81,-270.82 986.31,-264.5 989.01,-274.74 994.81,-270.82"/>
</g>
<!-- numba -->
<g id="node17" class="node">
<title>numba</title><style>.edge>path:hover{stroke-width:8}</style>
<ellipse fill="#06f9f9" stroke="black" cx="636.86" cy="-593.84" rx="29.37" ry="18"/>
<text text-anchor="middle" x="636.86" y="-591.34" font-family="Helvetica,sans-Serif" font-size="10.00" fill="#000000">numba</text>
</g>
<!-- numba&#45;&gt;eko_anomalous_dimensions_lo -->
<g id="edge22" class="edge">
<title>numba&#45;&gt;eko_anomalous_dimensions_lo</title><style>.edge>path:hover{stroke-width:8}</style>
<path fill="none" stroke="black" d="M636.86,-538.84C628.53,-510.44 671.18,-522.97 692.86,-502.84 729.14,-469.14 742.61,-460.24 759.86,-413.84"/>
<path fill="none" stroke="black" d="M759.86,-411.84C769.95,-384.7 747.05,-365.72 718.36,-352.99"/>
<polygon fill="#06f9f9" stroke="black" points="719.46,-349.66 708.88,-349.08 716.79,-356.13 719.46,-349.66"/>
</g>
<!-- numba&#45;&gt;eko_anomalous_dimensions_nlo -->
<g id="edge23" class="edge">
<title>numba&#45;&gt;eko_anomalous_dimensions_nlo</title><style>.edge>path:hover{stroke-width:8}</style>
<path fill="none" stroke="black" d="M350.86,-411.84C335.07,-394.81 350.88,-375.99 372.2,-360.79"/>
<polygon fill="#06f9f9" stroke="black" points="374.24,-363.64 380.58,-355.15 370.33,-357.83 374.24,-363.64"/>
</g>
<!-- numba&#45;&gt;eko_ekomath -->
<g id="edge24" class="edge">
<title>numba&#45;&gt;eko_ekomath</title><style>.edge>path:hover{stroke-width:8}</style>
<path fill="none" stroke="black" d="M636.86,-538.84C634.46,-530.64 633.8,-521.42 633.93,-513"/>
<polygon fill="#06f9f9" stroke="black" points="637.43,-513.06 634.45,-502.89 630.44,-512.7 637.43,-513.06"/>
</g>
<!-- numba&#45;&gt;eko_evolution_operator -->
<g id="edge25" class="edge">
<title>numba&#45;&gt;eko_evolution_operator</title><style>.edge>path:hover{stroke-width:8}</style>
<path fill="none" stroke="black" d="M206.86,-328.84C191.61,-316.33 192.44,-293.59 196.64,-274.9"/>
<polygon fill="#06f9f9" stroke="black" points="200.08,-275.58 199.23,-265.02 193.31,-273.8 200.08,-275.58"/>
</g>
<!-- numba&#45;&gt;eko_interpolation -->
<g id="edge26" class="edge">
<title>numba&#45;&gt;eko_interpolation</title><style>.edge>path:hover{stroke-width:8}</style>
<path fill="none" stroke="black" d="M639.27,-575.78C640.17,-565.22 640.28,-551.49 636.86,-539.84"/>
<path fill="none" stroke="black" d="M636.86,-538.84C627.1,-505.56 374.44,-439.26 350.86,-413.84"/>
<path fill="none" stroke="black" d="M350.86,-411.84C305.33,-372.23 272.49,-397.14 225.86,-358.84 214.24,-349.29 218.48,-340.38 206.86,-330.84"/>
<path fill="none" stroke="black" d="M206.86,-328.84C174.48,-302.27 132.53,-279.65 101.06,-264.56"/>
<polygon fill="#06f9f9" stroke="black" points="102.19,-261.22 91.66,-260.13 99.21,-267.56 102.19,-261.22"/>
</g>
<!-- numba&#45;&gt;eko_kernel_generation -->
<g id="edge27" class="edge">
<title>numba&#45;&gt;eko_kernel_generation</title><style>.edge>path:hover{stroke-width:8}</style>
<path fill="none" stroke="black" d="M759.86,-411.84C777.85,-365.14 771.93,-340.08 740.86,-300.85 708.24,-259.66 603.03,-284.84 636.86,-244.64"/>
</g>
<!-- numba&#45;&gt;eko_mellin -->
<g id="edge28" class="edge">
<title>numba&#45;&gt;eko_mellin</title><style>.edge>path:hover{stroke-width:8}</style>
<path fill="none" stroke="black" d="M350.86,-411.84C332.72,-392.27 311.99,-370.2 296.77,-354.04"/>
<polygon fill="#06f9f9" stroke="black" points="299.18,-351.5 289.77,-346.62 294.08,-356.3 299.18,-351.5"/>
</g>
<!-- numba&#45;&gt;eko_strong_coupling -->
<g id="edge29" class="edge">
<title>numba&#45;&gt;eko_strong_coupling</title><style>.edge>path:hover{stroke-width:8}</style>
<path fill="none" stroke="black" d="M759.86,-411.84C782.32,-351.42 844.45,-399.01 894.86,-358.84 923.67,-335.88 945.96,-299.43 959.2,-273.9"/>
<polygon fill="#06f9f9" stroke="black" points="962.46,-275.21 963.82,-264.7 956.2,-272.07 962.46,-275.21"/>
</g>
</g>
</svg>
