<?xml version="1.0" encoding="UTF-8" standalone="no"?>
<!DOCTYPE svg PUBLIC "-//W3C//DTD SVG 1.1//EN"
 "http://www.w3.org/Graphics/SVG/1.1/DTD/svg11.dtd">
<!-- Generated by graphviz version 2.43.0 (0)
 -->
<!-- Title: G Pages: 1 -->
<svg width="1054pt" height="620pt"
 viewBox="0.00 0.00 1053.66 619.84" xmlns="http://www.w3.org/2000/svg" xmlns:xlink="http://www.w3.org/1999/xlink">
<g id="graph0" class="graph" transform="scale(1 1) rotate(0) translate(4 615.84)">
<title>G</title><style>.edge>path:hover{stroke-width:8}</style>
<polygon fill="white" stroke="transparent" points="-4,4 -4,-615.84 1049.66,-615.84 1049.66,4 -4,4"/>
<!-- eko -->
<g id="node1" class="node">
<title>eko</title><style>.edge>path:hover{stroke-width:8}</style>
<ellipse fill="#ef0606" stroke="black" cx="301.86" cy="-18" rx="27" ry="18"/>
<text text-anchor="middle" x="301.86" y="-15.5" font-family="Helvetica,sans-Serif" font-size="10.00" fill="#ffffff">eko</text>
</g>
<!-- eko_anomalous_dimensions -->
<g id="node2" class="node">
<title>eko_anomalous_dimensions</title><style>.edge>path:hover{stroke-width:8}</style>
<ellipse fill="#c24747" stroke="black" cx="593.86" cy="-243.64" rx="93.18" ry="21.43"/>
<text text-anchor="middle" x="593.86" y="-246.64" font-family="Helvetica,sans-Serif" font-size="10.00" fill="#ffffff">eko.</text>
<text text-anchor="middle" x="593.86" y="-235.64" font-family="Helvetica,sans-Serif" font-size="10.00" fill="#ffffff">anomalous_dimensions</text>
</g>
<!-- eko_kernel_generation -->
<g id="node10" class="node">
<title>eko_kernel_generation</title><style>.edge>path:hover{stroke-width:8}</style>
<ellipse fill="#913030" stroke="black" cx="593.86" cy="-165.21" rx="73.58" ry="21.43"/>
<text text-anchor="middle" x="593.86" y="-168.21" font-family="Helvetica,sans-Serif" font-size="10.00" fill="#ffffff">eko.</text>
<text text-anchor="middle" x="593.86" y="-157.21" font-family="Helvetica,sans-Serif" font-size="10.00" fill="#ffffff">kernel_generation</text>
</g>
<!-- eko_anomalous_dimensions&#45;&gt;eko_kernel_generation -->
<g id="edge1" class="edge">
<title>eko_anomalous_dimensions&#45;&gt;eko_kernel_generation</title><style>.edge>path:hover{stroke-width:8}</style>
<path fill="none" stroke="black" d="M593.86,-222.16C593.86,-214.3 593.86,-205.16 593.86,-196.57"/>
<polygon fill="#c24747" stroke="black" points="597.36,-196.49 593.86,-186.49 590.36,-196.49 597.36,-196.49"/>
</g>
<!-- eko_anomalous_dimensions_lo -->
<g id="node3" class="node">
<title>eko_anomalous_dimensions_lo</title><style>.edge>path:hover{stroke-width:8}</style>
<ellipse fill="#b03a3a" stroke="black" cx="427.86" cy="-329.84" rx="95.42" ry="28.98"/>
<text text-anchor="middle" x="427.86" y="-338.34" font-family="Helvetica,sans-Serif" font-size="10.00" fill="#ffffff">eko.</text>
<text text-anchor="middle" x="427.86" y="-327.34" font-family="Helvetica,sans-Serif" font-size="10.00" fill="#ffffff">anomalous_dimensions.</text>
<text text-anchor="middle" x="427.86" y="-316.34" font-family="Helvetica,sans-Serif" font-size="10.00" fill="#ffffff">lo</text>
</g>
<!-- eko_anomalous_dimensions_lo&#45;&gt;eko_kernel_generation -->
<g id="edge2" class="edge">
<title>eko_anomalous_dimensions_lo&#45;&gt;eko_kernel_generation</title><style>.edge>path:hover{stroke-width:8}</style>
<path fill="none" stroke="black" d="M417.88,-300.62C413.04,-281.29 411.37,-257 427.86,-244.64"/>
</g>
<!-- eko_anomalous_dimensions_nlo -->
<g id="node4" class="node">
<title>eko_anomalous_dimensions_nlo</title><style>.edge>path:hover{stroke-width:8}</style>
<ellipse fill="#b03a3a" stroke="black" cx="636.86" cy="-329.84" rx="95.42" ry="28.98"/>
<text text-anchor="middle" x="636.86" y="-338.34" font-family="Helvetica,sans-Serif" font-size="10.00" fill="#ffffff">eko.</text>
<text text-anchor="middle" x="636.86" y="-327.34" font-family="Helvetica,sans-Serif" font-size="10.00" fill="#ffffff">anomalous_dimensions.</text>
<text text-anchor="middle" x="636.86" y="-316.34" font-family="Helvetica,sans-Serif" font-size="10.00" fill="#ffffff">nlo</text>
</g>
<!-- eko_anomalous_dimensions_nlo&#45;&gt;eko_kernel_generation -->
<g id="edge3" class="edge">
<title>eko_anomalous_dimensions_nlo&#45;&gt;eko_kernel_generation</title><style>.edge>path:hover{stroke-width:8}</style>
<path fill="none" stroke="black" d="M706.55,-310.01C738.65,-296.92 768.05,-276.07 759.86,-244.64"/>
<path fill="none" stroke="black" d="M759.86,-242.64C749.87,-204.31 710.15,-185.19 672.07,-175.66"/>
<polygon fill="#b03a3a" stroke="black" points="672.45,-172.15 661.92,-173.32 670.88,-178.98 672.45,-172.15"/>
</g>
<!-- eko_constants -->
<g id="node5" class="node">
<title>eko_constants</title><style>.edge>path:hover{stroke-width:8}</style>
<ellipse fill="#ce3b3b" stroke="black" cx="836.86" cy="-329.84" rx="49.4" ry="18"/>
<text text-anchor="middle" x="836.86" y="-327.34" font-family="Helvetica,sans-Serif" font-size="10.00" fill="#ffffff">eko.constants</text>
</g>
<!-- eko_runner -->
<g id="node14" class="node">
<title>eko_runner</title><style>.edge>path:hover{stroke-width:8}</style>
<ellipse fill="#8a2e2e" stroke="black" cx="301.86" cy="-90" rx="40.06" ry="18"/>
<text text-anchor="middle" x="301.86" y="-87.5" font-family="Helvetica,sans-Serif" font-size="10.00" fill="#ffffff">eko.runner</text>
</g>
<!-- eko_constants&#45;&gt;eko_runner -->
<g id="edge4" class="edge">
<title>eko_constants&#45;&gt;eko_runner</title><style>.edge>path:hover{stroke-width:8}</style>
<path fill="none" stroke="black" d="M829.5,-311.99C821.13,-290.12 810.39,-251.36 824.86,-222.43 843.5,-185.17 927.42,-197.45 899.86,-166.21"/>
<path fill="none" stroke="black" d="M899.86,-164.21C862.42,-124.56 489.06,-100.92 351.99,-93.53"/>
<polygon fill="#ce3b3b" stroke="black" points="351.94,-90.02 341.77,-92.98 351.57,-97.01 351.94,-90.02"/>
</g>
<!-- eko_strong_coupling -->
<g id="node15" class="node">
<title>eko_strong_coupling</title><style>.edge>path:hover{stroke-width:8}</style>
<ellipse fill="#b42d2d" stroke="black" cx="899.86" cy="-243.64" rx="66.44" ry="21.43"/>
<text text-anchor="middle" x="899.86" y="-246.64" font-family="Helvetica,sans-Serif" font-size="10.00" fill="#ffffff">eko.</text>
<text text-anchor="middle" x="899.86" y="-235.64" font-family="Helvetica,sans-Serif" font-size="10.00" fill="#ffffff">strong_coupling</text>
</g>
<!-- eko_constants&#45;&gt;eko_strong_coupling -->
<g id="edge5" class="edge">
<title>eko_constants&#45;&gt;eko_strong_coupling</title><style>.edge>path:hover{stroke-width:8}</style>
<path fill="none" stroke="black" d="M849.31,-312.21C857.72,-300.96 869.04,-285.84 878.83,-272.75"/>
<polygon fill="#ce3b3b" stroke="black" points="881.81,-274.6 885,-264.5 876.21,-270.41 881.81,-274.6"/>
</g>
<!-- eko_ekomath -->
<g id="node6" class="node">
<title>eko_ekomath</title><style>.edge>path:hover{stroke-width:8}</style>
<ellipse fill="#cc3333" stroke="black" cx="636.86" cy="-484.84" rx="47.19" ry="18"/>
<text text-anchor="middle" x="636.86" y="-482.34" font-family="Helvetica,sans-Serif" font-size="10.00" fill="#ffffff">eko.ekomath</text>
</g>
<!-- eko_ekomath&#45;&gt;eko_anomalous_dimensions_lo -->
<g id="edge6" class="edge">
<title>eko_ekomath&#45;&gt;eko_anomalous_dimensions_lo</title><style>.edge>path:hover{stroke-width:8}</style>
<path fill="none" stroke="black" d="M640.84,-466.8C643.39,-452.03 644.89,-430.47 636.86,-413.84"/>
<path fill="none" stroke="black" d="M636.86,-411.84C630.52,-398.71 560.01,-373.2 502.61,-354.31"/>
<polygon fill="#cc3333" stroke="black" points="503.39,-350.88 492.8,-351.1 501.22,-357.53 503.39,-350.88"/>
</g>
<!-- eko_ekomath&#45;&gt;eko_anomalous_dimensions_nlo -->
<g id="edge7" class="edge">
<title>eko_ekomath&#45;&gt;eko_anomalous_dimensions_nlo</title><style>.edge>path:hover{stroke-width:8}</style>
<path fill="none" stroke="black" d="M636.86,-411.84C630.58,-398.82 629.34,-383.2 630.11,-369.16"/>
<polygon fill="#cc3333" stroke="black" points="633.63,-369.08 631.04,-358.81 626.66,-368.45 633.63,-369.08"/>
</g>
<!-- eko_evolution_operator -->
<g id="node7" class="node">
<title>eko_evolution_operator</title><style>.edge>path:hover{stroke-width:8}</style>
<ellipse fill="#bc2f2f" stroke="black" cx="206.86" cy="-243.64" rx="77.15" ry="21.43"/>
<text text-anchor="middle" x="206.86" y="-246.64" font-family="Helvetica,sans-Serif" font-size="10.00" fill="#ffffff">eko.</text>
<text text-anchor="middle" x="206.86" y="-235.64" font-family="Helvetica,sans-Serif" font-size="10.00" fill="#ffffff">evolution_operator</text>
</g>
<!-- eko_operator_grid -->
<g id="node12" class="node">
<title>eko_operator_grid</title><style>.edge>path:hover{stroke-width:8}</style>
<ellipse fill="#b83d3d" stroke="black" cx="301.86" cy="-165.21" rx="57.97" ry="21.43"/>
<text text-anchor="middle" x="301.86" y="-168.21" font-family="Helvetica,sans-Serif" font-size="10.00" fill="#ffffff">eko.</text>
<text text-anchor="middle" x="301.86" y="-157.21" font-family="Helvetica,sans-Serif" font-size="10.00" fill="#ffffff">operator_grid</text>
</g>
<!-- eko_evolution_operator&#45;&gt;eko_operator_grid -->
<g id="edge8" class="edge">
<title>eko_evolution_operator&#45;&gt;eko_operator_grid</title><style>.edge>path:hover{stroke-width:8}</style>
<path fill="none" stroke="black" d="M230.83,-223.35C243.03,-213.54 258,-201.5 271.05,-191"/>
<polygon fill="#bc2f2f" stroke="black" points="273.28,-193.7 278.88,-184.7 268.89,-188.24 273.28,-193.7"/>
</g>
<!-- eko_output -->
<g id="node13" class="node">
<title>eko_output</title><style>.edge>path:hover{stroke-width:8}</style>
<ellipse fill="#b03a3a" stroke="black" cx="185.86" cy="-165.21" rx="40.06" ry="18"/>
<text text-anchor="middle" x="185.86" y="-162.71" font-family="Helvetica,sans-Serif" font-size="10.00" fill="#ffffff">eko.output</text>
</g>
<!-- eko_evolution_operator&#45;&gt;eko_output -->
<g id="edge9" class="edge">
<title>eko_evolution_operator&#45;&gt;eko_output</title><style>.edge>path:hover{stroke-width:8}</style>
<path fill="none" stroke="black" d="M201.23,-222.16C198.77,-213.2 195.85,-202.56 193.22,-192.99"/>
<polygon fill="#bc2f2f" stroke="black" points="196.54,-191.85 190.51,-183.14 189.79,-193.71 196.54,-191.85"/>
</g>
<!-- eko_flavours -->
<g id="node8" class="node">
<title>eko_flavours</title><style>.edge>path:hover{stroke-width:8}</style>
<ellipse fill="#c24747" stroke="black" cx="993.86" cy="-412.84" rx="45.15" ry="18"/>
<text text-anchor="middle" x="993.86" y="-410.34" font-family="Helvetica,sans-Serif" font-size="10.00" fill="#ffffff">eko.flavours</text>
</g>
<!-- eko_thresholds -->
<g id="node16" class="node">
<title>eko_thresholds</title><style>.edge>path:hover{stroke-width:8}</style>
<ellipse fill="#c43131" stroke="black" cx="993.86" cy="-329.84" rx="51.61" ry="18"/>
<text text-anchor="middle" x="993.86" y="-327.34" font-family="Helvetica,sans-Serif" font-size="10.00" fill="#ffffff">eko.thresholds</text>
</g>
<!-- eko_flavours&#45;&gt;eko_thresholds -->
<g id="edge10" class="edge">
<title>eko_flavours&#45;&gt;eko_thresholds</title><style>.edge>path:hover{stroke-width:8}</style>
<path fill="none" stroke="black" d="M993.86,-394.66C993.86,-384.03 993.86,-370.15 993.86,-358.04"/>
<polygon fill="#c24747" stroke="black" points="997.36,-358 993.86,-348 990.36,-358 997.36,-358"/>
</g>
<!-- eko_interpolation -->
<g id="node9" class="node">
<title>eko_interpolation</title><style>.edge>path:hover{stroke-width:8}</style>
<ellipse fill="#cc3333" stroke="black" cx="55.86" cy="-243.64" rx="55.72" ry="21.43"/>
<text text-anchor="middle" x="55.86" y="-246.64" font-family="Helvetica,sans-Serif" font-size="10.00" fill="#ffffff">eko.</text>
<text text-anchor="middle" x="55.86" y="-235.64" font-family="Helvetica,sans-Serif" font-size="10.00" fill="#ffffff">interpolation</text>
</g>
<!-- eko_interpolation&#45;&gt;eko_output -->
<g id="edge11" class="edge">
<title>eko_interpolation&#45;&gt;eko_output</title><style>.edge>path:hover{stroke-width:8}</style>
<path fill="none" stroke="black" d="M85.04,-225.49C105.38,-213.53 132.54,-197.56 153.54,-185.21"/>
<polygon fill="#cc3333" stroke="black" points="155.57,-188.08 162.42,-180 152.02,-182.05 155.57,-188.08"/>
</g>
<!-- eko_interpolation&#45;&gt;eko_runner -->
<g id="edge12" class="edge">
<title>eko_interpolation&#45;&gt;eko_runner</title><style>.edge>path:hover{stroke-width:8}</style>
<path fill="none" stroke="black" d="M67.33,-222.71C81.11,-200.44 106.26,-164.8 136.86,-144 172.42,-119.83 219.69,-106.13 254.52,-98.74"/>
<polygon fill="#cc3333" stroke="black" points="255.34,-102.15 264.45,-96.73 253.95,-95.28 255.34,-102.15"/>
</g>
<!-- eko_kernel_generation&#45;&gt;eko_runner -->
<g id="edge13" class="edge">
<title>eko_kernel_generation&#45;&gt;eko_runner</title><style>.edge>path:hover{stroke-width:8}</style>
<path fill="none" stroke="black" d="M539.96,-150.7C484.04,-136.68 397.64,-115.01 345.74,-102"/>
<polygon fill="#913030" stroke="black" points="346.39,-98.56 335.84,-99.52 344.68,-105.35 346.39,-98.56"/>
</g>
<!-- eko_mellin -->
<g id="node11" class="node">
<title>eko_mellin</title><style>.edge>path:hover{stroke-width:8}</style>
<ellipse fill="#cc3333" stroke="black" cx="274.86" cy="-329.84" rx="40.06" ry="18"/>
<text text-anchor="middle" x="274.86" y="-327.34" font-family="Helvetica,sans-Serif" font-size="10.00" fill="#ffffff">eko.mellin</text>
</g>
<!-- eko_mellin&#45;&gt;eko_evolution_operator -->
<g id="edge14" class="edge">
<title>eko_mellin&#45;&gt;eko_evolution_operator</title><style>.edge>path:hover{stroke-width:8}</style>
<path fill="none" stroke="black" d="M261.75,-312.61C252.61,-301.29 240.18,-285.9 229.46,-272.62"/>
<polygon fill="#cc3333" stroke="black" points="232.06,-270.27 223.05,-264.69 226.61,-274.67 232.06,-270.27"/>
</g>
<!-- eko_mellin&#45;&gt;eko_kernel_generation -->
<g id="edge15" class="edge">
<title>eko_mellin&#45;&gt;eko_kernel_generation</title><style>.edge>path:hover{stroke-width:8}</style>
<path fill="none" stroke="black" d="M298.72,-315.06C306.69,-310.5 315.64,-305.42 323.86,-300.85 369.79,-275.33 385.82,-276.15 427.86,-244.64"/>
<path fill="none" stroke="black" d="M427.86,-242.64C461.02,-217.79 503.55,-198.4 537.26,-185.37"/>
<polygon fill="#cc3333" stroke="black" points="538.86,-188.51 546.97,-181.7 536.38,-181.96 538.86,-188.51"/>
</g>
<!-- eko_operator_grid&#45;&gt;eko_runner -->
<g id="edge16" class="edge">
<title>eko_operator_grid&#45;&gt;eko_runner</title><style>.edge>path:hover{stroke-width:8}</style>
<path fill="none" stroke="black" d="M301.86,-143.82C301.86,-135.97 301.86,-126.86 301.86,-118.45"/>
<polygon fill="#b83d3d" stroke="black" points="305.36,-118.31 301.86,-108.31 298.36,-118.31 305.36,-118.31"/>
</g>
<!-- eko_output&#45;&gt;eko_runner -->
<g id="edge17" class="edge">
<title>eko_output&#45;&gt;eko_runner</title><style>.edge>path:hover{stroke-width:8}</style>
<path fill="none" stroke="black" d="M208.23,-150.1C226.04,-138.85 251.17,-122.99 270.92,-110.53"/>
<polygon fill="#b03a3a" stroke="black" points="272.98,-113.37 279.56,-105.07 269.24,-107.45 272.98,-113.37"/>
</g>
<!-- eko_runner&#45;&gt;eko -->
<g id="edge18" class="edge">
<title>eko_runner&#45;&gt;eko</title><style>.edge>path:hover{stroke-width:8}</style>
<path fill="none" stroke="black" d="M301.86,-71.7C301.86,-63.98 301.86,-54.71 301.86,-46.11"/>
<polygon fill="#8a2e2e" stroke="black" points="305.36,-46.1 301.86,-36.1 298.36,-46.1 305.36,-46.1"/>
</g>
<!-- eko_strong_coupling&#45;&gt;eko_kernel_generation -->
<g id="edge19" class="edge">
<title>eko_strong_coupling&#45;&gt;eko_kernel_generation</title><style>.edge>path:hover{stroke-width:8}</style>
<path fill="none" stroke="black" d="M848.99,-229.93C796.56,-216.84 714.7,-196.39 657.9,-182.21"/>
<polygon fill="#b42d2d" stroke="black" points="658.5,-178.75 647.95,-179.72 656.8,-185.54 658.5,-178.75"/>
</g>
<!-- eko_strong_coupling&#45;&gt;eko_runner -->
<g id="edge20" class="edge">
<title>eko_strong_coupling&#45;&gt;eko_runner</title><style>.edge>path:hover{stroke-width:8}</style>
<path fill="none" stroke="black" d="M906.55,-222.2C910.73,-205.13 913.12,-181.24 899.86,-166.21"/>
</g>
<!-- eko_thresholds&#45;&gt;eko_runner -->
<g id="edge21" class="edge">
<title>eko_thresholds&#45;&gt;eko_runner</title><style>.edge>path:hover{stroke-width:8}</style>
<path fill="none" stroke="black" d="M994.53,-311.64C994.61,-289.4 991.99,-250.23 974.86,-222.43 953.01,-186.96 928.46,-196.5 899.86,-166.21"/>
</g>
<!-- eko_thresholds&#45;&gt;eko_strong_coupling -->
<g id="edge22" class="edge">
<title>eko_thresholds&#45;&gt;eko_strong_coupling</title><style>.edge>path:hover{stroke-width:8}</style>
<path fill="none" stroke="black" d="M975.74,-312.61C962.47,-300.73 944.19,-284.35 928.9,-270.65"/>
<polygon fill="#c43131" stroke="black" points="931,-267.84 921.22,-263.77 926.33,-273.05 931,-267.84"/>
</g>
<!-- numba -->
<g id="node17" class="node">
<title>numba</title><style>.edge>path:hover{stroke-width:8}</style>
<ellipse fill="#06f9f9" stroke="black" cx="636.86" cy="-593.84" rx="29.37" ry="18"/>
<text text-anchor="middle" x="636.86" y="-591.34" font-family="Helvetica,sans-Serif" font-size="10.00" fill="#000000">numba</text>
</g>
<!-- numba&#45;&gt;eko_anomalous_dimensions_lo -->
<g id="edge23" class="edge">
<title>numba&#45;&gt;eko_anomalous_dimensions_lo</title><style>.edge>path:hover{stroke-width:8}</style>
<path fill="none" stroke="black" d="M350.86,-411.84C335.07,-394.81 350.88,-375.99 372.2,-360.79"/>
<polygon fill="#06f9f9" stroke="black" points="374.24,-363.64 380.58,-355.15 370.33,-357.83 374.24,-363.64"/>
</g>
<!-- numba&#45;&gt;eko_anomalous_dimensions_nlo -->
<g id="edge24" class="edge">
<title>numba&#45;&gt;eko_anomalous_dimensions_nlo</title><style>.edge>path:hover{stroke-width:8}</style>
<path fill="none" stroke="black" d="M636.86,-538.84C628.53,-510.44 671.18,-522.97 692.86,-502.84 729.14,-469.14 742.61,-460.24 759.86,-413.84"/>
<path fill="none" stroke="black" d="M759.86,-411.84C769.95,-384.7 747.05,-365.72 718.36,-352.99"/>
<polygon fill="#06f9f9" stroke="black" points="719.46,-349.66 708.88,-349.08 716.79,-356.13 719.46,-349.66"/>
</g>
<!-- numba&#45;&gt;eko_ekomath -->
<g id="edge25" class="edge">
<title>numba&#45;&gt;eko_ekomath</title><style>.edge>path:hover{stroke-width:8}</style>
<path fill="none" stroke="black" d="M636.86,-538.84C634.46,-530.64 633.8,-521.42 633.93,-513"/>
<polygon fill="#06f9f9" stroke="black" points="637.43,-513.06 634.45,-502.89 630.44,-512.7 637.43,-513.06"/>
</g>
<!-- numba&#45;&gt;eko_evolution_operator -->
<g id="edge26" class="edge">
<title>numba&#45;&gt;eko_evolution_operator</title><style>.edge>path:hover{stroke-width:8}</style>
<path fill="none" stroke="black" d="M206.86,-328.84C191.61,-316.33 192.44,-293.59 196.64,-274.9"/>
<polygon fill="#06f9f9" stroke="black" points="200.08,-275.58 199.23,-265.02 193.31,-273.8 200.08,-275.58"/>
</g>
<!-- numba&#45;&gt;eko_interpolation -->
<g id="edge27" class="edge">
<title>numba&#45;&gt;eko_interpolation</title><style>.edge>path:hover{stroke-width:8}</style>
<path fill="none" stroke="black" d="M639.27,-575.78C640.17,-565.22 640.28,-551.49 636.86,-539.84"/>
<path fill="none" stroke="black" d="M636.86,-538.84C627.1,-505.56 374.44,-439.26 350.86,-413.84"/>
<path fill="none" stroke="black" d="M350.86,-411.84C305.33,-372.23 272.49,-397.14 225.86,-358.84 214.24,-349.29 218.48,-340.38 206.86,-330.84"/>
<path fill="none" stroke="black" d="M206.86,-328.84C174.48,-302.27 132.53,-279.65 101.06,-264.56"/>
<polygon fill="#06f9f9" stroke="black" points="102.19,-261.22 91.66,-260.13 99.21,-267.56 102.19,-261.22"/>
</g>
<!-- numba&#45;&gt;eko_kernel_generation -->
<g id="edge28" class="edge">
<title>numba&#45;&gt;eko_kernel_generation</title><style>.edge>path:hover{stroke-width:8}</style>
<path fill="none" stroke="black" d="M759.86,-411.84C784.23,-341.63 778.6,-316.55 759.86,-244.64"/>
</g>
<!-- numba&#45;&gt;eko_mellin -->
<g id="edge29" class="edge">
<title>numba&#45;&gt;eko_mellin</title><style>.edge>path:hover{stroke-width:8}</style>
<path fill="none" stroke="black" d="M350.86,-411.84C332.72,-392.27 311.99,-370.2 296.77,-354.04"/>
<polygon fill="#06f9f9" stroke="black" points="299.18,-351.5 289.77,-346.62 294.08,-356.3 299.18,-351.5"/>
</g>
<!-- numba&#45;&gt;eko_strong_coupling -->
<g id="edge30" class="edge">
<title>numba&#45;&gt;eko_strong_coupling</title><style>.edge>path:hover{stroke-width:8}</style>
<path fill="none" stroke="black" d="M759.86,-411.84C782.32,-351.42 857.4,-411.29 894.86,-358.84 912.12,-334.67 910.91,-299.75 906.93,-274.89"/>
<polygon fill="#06f9f9" stroke="black" points="910.35,-274.12 905.1,-264.91 903.46,-275.38 910.35,-274.12"/>
</g>
</g>
</svg>
