<?xml version="1.0" encoding="UTF-8" standalone="no"?>
<!DOCTYPE svg PUBLIC "-//W3C//DTD SVG 1.1//EN"
 "http://www.w3.org/Graphics/SVG/1.1/DTD/svg11.dtd">
<!-- Generated by graphviz version 2.43.0 (0)
 -->
<!-- Title: G Pages: 1 -->
<svg width="1179pt" height="777pt"
 viewBox="0.00 0.00 1178.92 777.23" xmlns="http://www.w3.org/2000/svg" xmlns:xlink="http://www.w3.org/1999/xlink">
<g id="graph0" class="graph" transform="scale(1 1) rotate(0) translate(4 773.23)">
<title>G</title><style>.edge>path:hover{stroke-width:8}</style>
<polygon fill="white" stroke="transparent" points="-4,4 -4,-773.23 1174.92,-773.23 1174.92,4 -4,4"/>
<!-- banana -->
<g id="node1" class="node">
<title>banana</title><style>.edge>path:hover{stroke-width:8}</style>
<ellipse fill="#f90606" stroke="black" cx="812.03" cy="-604.01" rx="31.4" ry="18"/>
<text text-anchor="middle" x="812.03" y="-601.51" font-family="Helvetica,sans-Serif" font-size="10.00" fill="#ffffff">banana</text>
</g>
<!-- ekobox_gen_op -->
<g id="node12" class="node">
<title>ekobox_gen_op</title><style>.edge>path:hover{stroke-width:8}</style>
<ellipse fill="#309148" stroke="black" cx="835.03" cy="-93.21" rx="52.96" ry="18"/>
<text text-anchor="middle" x="835.03" y="-90.71" font-family="Helvetica,sans-Serif" font-size="10.00" fill="#ffffff">ekobox.gen_op</text>
</g>
<!-- banana&#45;&gt;ekobox_gen_op -->
<g id="edge1" class="edge">
<title>banana&#45;&gt;ekobox_gen_op</title><style>.edge>path:hover{stroke-width:8}</style>
<path fill="none" stroke="black" d="M831.98,-590.04C852.29,-575.49 882.52,-549.84 895.03,-518.81"/>
<path fill="none" stroke="black" d="M895.03,-516.81C931.14,-427.24 888.74,-395.79 871.03,-300.85 866.56,-276.9 854.27,-272.06 857.03,-247.85"/>
</g>
<!-- ekobox_gen_theory -->
<g id="node13" class="node">
<title>ekobox_gen_theory</title><style>.edge>path:hover{stroke-width:8}</style>
<ellipse fill="#35a150" stroke="black" cx="916.03" cy="-171.64" rx="50.41" ry="21.43"/>
<text text-anchor="middle" x="916.03" y="-174.64" font-family="Helvetica,sans-Serif" font-size="10.00" fill="#ffffff">ekobox.</text>
<text text-anchor="middle" x="916.03" y="-163.64" font-family="Helvetica,sans-Serif" font-size="10.00" fill="#ffffff">gen_theory</text>
</g>
<!-- banana&#45;&gt;ekobox_gen_theory -->
<g id="edge2" class="edge">
<title>banana&#45;&gt;ekobox_gen_theory</title><style>.edge>path:hover{stroke-width:8}</style>
<path fill="none" stroke="black" d="M895.03,-516.81C911.57,-475.79 928.63,-468.84 933.03,-424.83"/>
<path fill="none" stroke="black" d="M933.03,-422.83C937.1,-382.15 948.51,-368.68 933.03,-330.84"/>
<path fill="none" stroke="black" d="M933.03,-328.84C917.98,-292.04 889.63,-287.25 895.03,-247.85"/>
</g>
<!-- ekobox_genpdf -->
<g id="node14" class="node">
<title>ekobox_genpdf</title><style>.edge>path:hover{stroke-width:8}</style>
<ellipse fill="#0f8a2e" stroke="black" cx="433.03" cy="-246.85" rx="52.28" ry="18"/>
<text text-anchor="middle" x="433.03" y="-244.35" font-family="Helvetica,sans-Serif" font-size="10.00" fill="#ffffff">ekobox.genpdf</text>
</g>
<!-- banana&#45;&gt;ekobox_genpdf -->
<g id="edge3" class="edge">
<title>banana&#45;&gt;ekobox_genpdf</title><style>.edge>path:hover{stroke-width:8}</style>
<path fill="none" stroke="black" d="M798.72,-587.68C785.03,-571.39 763.7,-544.49 749.03,-518.81"/>
<path fill="none" stroke="black" d="M749.03,-516.81C694.35,-421.09 714.01,-368.58 627.03,-300.85 588.86,-271.13 535.17,-258.05 493.94,-252.31"/>
<polygon fill="#f90606" stroke="black" points="494.38,-248.84 484.02,-251.04 493.49,-255.78 494.38,-248.84"/>
</g>
<!-- ekomark_data_operators -->
<g id="node24" class="node">
<title>ekomark_data_operators</title><style>.edge>path:hover{stroke-width:8}</style>
<ellipse fill="#3d8f8f" stroke="black" cx="784.03" cy="-329.84" rx="44.6" ry="28.98"/>
<text text-anchor="middle" x="784.03" y="-338.34" font-family="Helvetica,sans-Serif" font-size="10.00" fill="#ffffff">ekomark.</text>
<text text-anchor="middle" x="784.03" y="-327.34" font-family="Helvetica,sans-Serif" font-size="10.00" fill="#ffffff">data.</text>
<text text-anchor="middle" x="784.03" y="-316.34" font-family="Helvetica,sans-Serif" font-size="10.00" fill="#ffffff">operators</text>
</g>
<!-- banana&#45;&gt;ekomark_data_operators -->
<g id="edge4" class="edge">
<title>banana&#45;&gt;ekomark_data_operators</title><style>.edge>path:hover{stroke-width:8}</style>
<path fill="none" stroke="black" d="M749.03,-516.81C722.68,-469.44 744.84,-405.87 763.92,-366.67"/>
<polygon fill="#f90606" stroke="black" points="767.29,-367.75 768.68,-357.25 761.05,-364.6 767.29,-367.75"/>
</g>
<!-- banana_data -->
<g id="node2" class="node">
<title>banana_data</title><style>.edge>path:hover{stroke-width:8}</style>
<ellipse fill="#e72222" stroke="black" cx="822.03" cy="-517.81" rx="45.15" ry="18"/>
<text text-anchor="middle" x="822.03" y="-515.31" font-family="Helvetica,sans-Serif" font-size="10.00" fill="#ffffff">banana.data</text>
</g>
<!-- banana_data&#45;&gt;ekobox_gen_op -->
<g id="edge5" class="edge">
<title>banana_data&#45;&gt;ekobox_gen_op</title><style>.edge>path:hover{stroke-width:8}</style>
<path fill="none" stroke="black" d="M819.03,-422.83C818.68,-378.6 843.76,-373.04 857.03,-330.84"/>
<path fill="none" stroke="black" d="M857.03,-328.84C867.83,-294.51 852.95,-283.62 857.03,-247.85"/>
</g>
<!-- banana_data&#45;&gt;ekobox_gen_theory -->
<g id="edge6" class="edge">
<title>banana_data&#45;&gt;ekobox_gen_theory</title><style>.edge>path:hover{stroke-width:8}</style>
<path fill="none" stroke="black" d="M857.03,-328.84C868.96,-290.91 889.63,-287.25 895.03,-247.85"/>
<path fill="none" stroke="black" d="M895.03,-245.85C897.01,-231.38 901.19,-215.77 905.31,-202.69"/>
<polygon fill="#e72222" stroke="black" points="908.76,-203.41 908.55,-192.82 902.1,-201.23 908.76,-203.41"/>
</g>
<!-- banana_data&#45;&gt;ekomark_data_operators -->
<g id="edge7" class="edge">
<title>banana_data&#45;&gt;ekomark_data_operators</title><style>.edge>path:hover{stroke-width:8}</style>
<path fill="none" stroke="black" d="M821.21,-499.52C820.4,-481.04 819.24,-450.87 819.03,-424.83"/>
<path fill="none" stroke="black" d="M819.03,-422.83C818.88,-403.4 811.96,-383.09 804.31,-366.51"/>
<polygon fill="#e72222" stroke="black" points="807.3,-364.66 799.77,-357.21 801.01,-367.73 807.3,-364.66"/>
</g>
<!-- banana_data_sql -->
<g id="node3" class="node">
<title>banana_data_sql</title><style>.edge>path:hover{stroke-width:8}</style>
<ellipse fill="#c82323" stroke="black" cx="1001.03" cy="-517.81" rx="39.7" ry="28.98"/>
<text text-anchor="middle" x="1001.03" y="-526.31" font-family="Helvetica,sans-Serif" font-size="10.00" fill="#ffffff">banana.</text>
<text text-anchor="middle" x="1001.03" y="-515.31" font-family="Helvetica,sans-Serif" font-size="10.00" fill="#ffffff">data.</text>
<text text-anchor="middle" x="1001.03" y="-504.31" font-family="Helvetica,sans-Serif" font-size="10.00" fill="#ffffff">sql</text>
</g>
<!-- banana_data_theories -->
<g id="node4" class="node">
<title>banana_data_theories</title><style>.edge>path:hover{stroke-width:8}</style>
<ellipse fill="#9d4343" stroke="black" cx="1001.03" cy="-423.83" rx="39.7" ry="28.98"/>
<text text-anchor="middle" x="1001.03" y="-432.33" font-family="Helvetica,sans-Serif" font-size="10.00" fill="#ffffff">banana.</text>
<text text-anchor="middle" x="1001.03" y="-421.33" font-family="Helvetica,sans-Serif" font-size="10.00" fill="#ffffff">data.</text>
<text text-anchor="middle" x="1001.03" y="-410.33" font-family="Helvetica,sans-Serif" font-size="10.00" fill="#ffffff">theories</text>
</g>
<!-- banana_data_sql&#45;&gt;banana_data_theories -->
<g id="edge8" class="edge">
<title>banana_data_sql&#45;&gt;banana_data_theories</title><style>.edge>path:hover{stroke-width:8}</style>
<path fill="none" stroke="black" d="M1001.03,-488.71C1001.03,-480.67 1001.03,-471.77 1001.03,-463.23"/>
<polygon fill="#c82323" stroke="black" points="1004.53,-463.07 1001.03,-453.07 997.53,-463.07 1004.53,-463.07"/>
</g>
<!-- banana_data_sql&#45;&gt;ekobox_gen_op -->
<g id="edge9" class="edge">
<title>banana_data_sql&#45;&gt;ekobox_gen_op</title><style>.edge>path:hover{stroke-width:8}</style>
<path fill="none" stroke="black" d="M1069.03,-245.85C1040.9,-193.39 1024.58,-183.42 975.03,-150.43 947.14,-131.86 912.17,-117.81 884.15,-108.4"/>
<polygon fill="#c82323" stroke="black" points="885.15,-105.05 874.56,-105.27 882.98,-111.7 885.15,-105.05"/>
</g>
<!-- banana_data_sql&#45;&gt;ekobox_gen_theory -->
<g id="edge10" class="edge">
<title>banana_data_sql&#45;&gt;ekobox_gen_theory</title><style>.edge>path:hover{stroke-width:8}</style>
<path fill="none" stroke="black" d="M1023.66,-493.89C1033.5,-482.49 1044.12,-467.93 1050.03,-452.82 1083.37,-367.62 1104.4,-332.23 1069.03,-247.85"/>
<path fill="none" stroke="black" d="M1069.03,-245.85C1050.02,-210.39 1007.7,-191.92 972.39,-182.42"/>
<polygon fill="#c82323" stroke="black" points="973.19,-179.01 962.64,-179.97 971.48,-185.8 973.19,-179.01"/>
</g>
<!-- banana_data_sql&#45;&gt;ekomark_data_operators -->
<g id="edge11" class="edge">
<title>banana_data_sql&#45;&gt;ekomark_data_operators</title><style>.edge>path:hover{stroke-width:8}</style>
<path fill="none" stroke="black" d="M974.05,-496.54C957.87,-484.18 937,-467.92 919.03,-452.82 883.15,-422.68 843.52,-386.51 816.53,-361.42"/>
<polygon fill="#c82323" stroke="black" points="818.63,-358.59 808.93,-354.33 813.86,-363.71 818.63,-358.59"/>
</g>
<!-- banana_data_theories&#45;&gt;ekobox_gen_theory -->
<g id="edge12" class="edge">
<title>banana_data_theories&#45;&gt;ekobox_gen_theory</title><style>.edge>path:hover{stroke-width:8}</style>
<path fill="none" stroke="black" d="M978.61,-399.51C963.18,-382.03 943.63,-356.76 933.03,-330.84"/>
</g>
<!-- banana_toy -->
<g id="node5" class="node">
<title>banana_toy</title><style>.edge>path:hover{stroke-width:8}</style>
<ellipse fill="#b65353" stroke="black" cx="413.03" cy="-423.83" rx="41.59" ry="18"/>
<text text-anchor="middle" x="413.03" y="-421.33" font-family="Helvetica,sans-Serif" font-size="10.00" fill="#ffffff">banana.toy</text>
</g>
<!-- banana_toy&#45;&gt;ekobox_genpdf -->
<g id="edge13" class="edge">
<title>banana_toy&#45;&gt;ekobox_genpdf</title><style>.edge>path:hover{stroke-width:8}</style>
<path fill="none" stroke="black" d="M411.83,-405.8C410.81,-387.29 409.94,-356.85 413.03,-330.84"/>
</g>
<!-- click -->
<g id="node6" class="node">
<title>click</title><style>.edge>path:hover{stroke-width:8}</style>
<ellipse fill="#b69d53" stroke="black" cx="1132.03" cy="-751.23" rx="27" ry="18"/>
<text text-anchor="middle" x="1132.03" y="-748.73" font-family="Helvetica,sans-Serif" font-size="10.00" fill="#000000">click</text>
</g>
<!-- ekobox_genpdf_cli -->
<g id="node15" class="node">
<title>ekobox_genpdf_cli</title><style>.edge>path:hover{stroke-width:8}</style>
<ellipse fill="#46a45e" stroke="black" cx="1132.03" cy="-517.81" rx="38.78" ry="28.98"/>
<text text-anchor="middle" x="1132.03" y="-526.31" font-family="Helvetica,sans-Serif" font-size="10.00" fill="#000000">ekobox.</text>
<text text-anchor="middle" x="1132.03" y="-515.31" font-family="Helvetica,sans-Serif" font-size="10.00" fill="#000000">genpdf.</text>
<text text-anchor="middle" x="1132.03" y="-504.31" font-family="Helvetica,sans-Serif" font-size="10.00" fill="#000000">cli</text>
</g>
<!-- click&#45;&gt;ekobox_genpdf_cli -->
<g id="edge14" class="edge">
<title>click&#45;&gt;ekobox_genpdf_cli</title><style>.edge>path:hover{stroke-width:8}</style>
<path fill="none" stroke="black" d="M1132.03,-733.21C1132.03,-696.37 1132.03,-608.46 1132.03,-557.38"/>
<polygon fill="#b69d53" stroke="black" points="1135.53,-557.07 1132.03,-547.07 1128.53,-557.07 1135.53,-557.07"/>
</g>
<!-- eko -->
<g id="node7" class="node">
<title>eko</title><style>.edge>path:hover{stroke-width:8}</style>
<ellipse fill="#80f906" stroke="black" cx="316.03" cy="-604.01" rx="27" ry="18"/>
<text text-anchor="middle" x="316.03" y="-601.51" font-family="Helvetica,sans-Serif" font-size="10.00" fill="#000000">eko</text>
</g>
<!-- ekobox_evol_pdf -->
<g id="node10" class="node">
<title>ekobox_evol_pdf</title><style>.edge>path:hover{stroke-width:8}</style>
<ellipse fill="#309148" stroke="black" cx="118.03" cy="-93.21" rx="41.94" ry="21.43"/>
<text text-anchor="middle" x="118.03" y="-96.21" font-family="Helvetica,sans-Serif" font-size="10.00" fill="#ffffff">ekobox.</text>
<text text-anchor="middle" x="118.03" y="-85.21" font-family="Helvetica,sans-Serif" font-size="10.00" fill="#ffffff">evol_pdf</text>
</g>
<!-- eko&#45;&gt;ekobox_evol_pdf -->
<g id="edge15" class="edge">
<title>eko&#45;&gt;ekobox_evol_pdf</title><style>.edge>path:hover{stroke-width:8}</style>
<path fill="none" stroke="black" d="M305.03,-422.83C301.35,-380.85 319.51,-372.11 328.03,-330.84"/>
<path fill="none" stroke="black" d="M328.03,-328.84C335.01,-295.04 297.63,-296.57 284.03,-264.85 267.54,-226.39 298.8,-197.36 265.03,-172.64"/>
<path fill="none" stroke="black" d="M265.03,-170.64C231.3,-146.86 189.21,-125.73 158.72,-111.75"/>
<polygon fill="#80f906" stroke="black" points="159.81,-108.4 149.25,-107.46 156.92,-114.77 159.81,-108.4"/>
</g>
<!-- eko&#45;&gt;ekobox_genpdf -->
<g id="edge16" class="edge">
<title>eko&#45;&gt;ekobox_genpdf</title><style>.edge>path:hover{stroke-width:8}</style>
<path fill="none" stroke="black" d="M328.03,-328.84C334.29,-298.52 362.95,-277.71 388.75,-264.78"/>
<polygon fill="#80f906" stroke="black" points="390.53,-267.81 398.07,-260.37 387.54,-261.48 390.53,-267.81"/>
</g>
<!-- ekobox_genpdf_flavors -->
<g id="node17" class="node">
<title>ekobox_genpdf_flavors</title><style>.edge>path:hover{stroke-width:8}</style>
<ellipse fill="#3ab058" stroke="black" cx="261.03" cy="-329.84" rx="38.78" ry="28.98"/>
<text text-anchor="middle" x="261.03" y="-338.34" font-family="Helvetica,sans-Serif" font-size="10.00" fill="#000000">ekobox.</text>
<text text-anchor="middle" x="261.03" y="-327.34" font-family="Helvetica,sans-Serif" font-size="10.00" fill="#000000">genpdf.</text>
<text text-anchor="middle" x="261.03" y="-316.34" font-family="Helvetica,sans-Serif" font-size="10.00" fill="#000000">flavors</text>
</g>
<!-- eko&#45;&gt;ekobox_genpdf_flavors -->
<g id="edge17" class="edge">
<title>eko&#45;&gt;ekobox_genpdf_flavors</title><style>.edge>path:hover{stroke-width:8}</style>
<path fill="none" stroke="black" d="M314.9,-585.82C312.82,-554.03 308.32,-483.93 305.03,-424.83"/>
<path fill="none" stroke="black" d="M305.03,-422.83C303.23,-402.29 293.96,-381.41 284.4,-364.74"/>
<polygon fill="#80f906" stroke="black" points="287.26,-362.7 279.1,-355.95 281.26,-366.32 287.26,-362.7"/>
</g>
<!-- ekomark -->
<g id="node21" class="node">
<title>ekomark</title><style>.edge>path:hover{stroke-width:8}</style>
<ellipse fill="#24d0d0" stroke="black" cx="328.03" cy="-246.85" rx="34.96" ry="18"/>
<text text-anchor="middle" x="328.03" y="-244.35" font-family="Helvetica,sans-Serif" font-size="10.00" fill="#000000">ekomark</text>
</g>
<!-- eko&#45;&gt;ekomark -->
<g id="edge18" class="edge">
<title>eko&#45;&gt;ekomark</title><style>.edge>path:hover{stroke-width:8}</style>
<path fill="none" stroke="black" d="M328.03,-328.84C331.66,-311.28 331.67,-291.11 330.77,-275.29"/>
<polygon fill="#80f906" stroke="black" points="334.24,-274.84 330.03,-265.12 327.26,-275.35 334.24,-274.84"/>
</g>
<!-- ekomark_apply -->
<g id="node22" class="node">
<title>ekomark_apply</title><style>.edge>path:hover{stroke-width:8}</style>
<ellipse fill="#3ab0b0" stroke="black" cx="83.03" cy="-423.83" rx="52.28" ry="18"/>
<text text-anchor="middle" x="83.03" y="-421.33" font-family="Helvetica,sans-Serif" font-size="10.00" fill="#000000">ekomark.apply</text>
</g>
<!-- eko&#45;&gt;ekomark_apply -->
<g id="edge19" class="edge">
<title>eko&#45;&gt;ekomark_apply</title><style>.edge>path:hover{stroke-width:8}</style>
<path fill="none" stroke="black" d="M298.9,-589.91C259.16,-559.52 160.38,-483.98 111.44,-446.55"/>
<polygon fill="#80f906" stroke="black" points="113.53,-443.75 103.46,-440.45 109.28,-449.31 113.53,-443.75"/>
</g>
<!-- eko&#45;&gt;ekomark_data_operators -->
<g id="edge20" class="edge">
<title>eko&#45;&gt;ekomark_data_operators</title><style>.edge>path:hover{stroke-width:8}</style>
<path fill="none" stroke="black" d="M334.99,-591.12C340.36,-588.1 346.3,-585.07 352.03,-582.8 413.76,-558.33 440.82,-582.15 497.03,-546.8 525.35,-528.99 520.14,-511.17 545.03,-488.82 607.39,-432.82 691.21,-382.09 741.22,-353.96"/>
<polygon fill="#80f906" stroke="black" points="743.12,-356.91 750.15,-348.98 739.71,-350.8 743.12,-356.91"/>
</g>
<!-- eko_basis_rotation -->
<g id="node8" class="node">
<title>eko_basis_rotation</title><style>.edge>path:hover{stroke-width:8}</style>
<ellipse fill="#80e619" stroke="black" cx="172.03" cy="-604.01" rx="60.62" ry="21.43"/>
<text text-anchor="middle" x="172.03" y="-607.01" font-family="Helvetica,sans-Serif" font-size="10.00" fill="#000000">eko.</text>
<text text-anchor="middle" x="172.03" y="-596.01" font-family="Helvetica,sans-Serif" font-size="10.00" fill="#000000">basis_rotation</text>
</g>
<!-- eko_basis_rotation&#45;&gt;ekobox_evol_pdf -->
<g id="edge21" class="edge">
<title>eko_basis_rotation&#45;&gt;ekobox_evol_pdf</title><style>.edge>path:hover{stroke-width:8}</style>
<path fill="none" stroke="black" d="M163.5,-582.69C156.12,-565.47 144.95,-540.25 134.03,-518.81"/>
<path fill="none" stroke="black" d="M134.03,-516.81C108.01,-465.72 54.55,-500.03 22.03,-452.82 -9.09,-407.63 3.03,-385.71 3.03,-330.84 3.03,-330.84 3.03,-330.84 3.03,-245.85 3.03,-191.03 51.35,-143.56 85.34,-116.95"/>
<polygon fill="#80e619" stroke="black" points="87.8,-119.49 93.64,-110.65 83.56,-113.91 87.8,-119.49"/>
</g>
<!-- eko_basis_rotation&#45;&gt;ekobox_genpdf -->
<g id="edge22" class="edge">
<title>eko_basis_rotation&#45;&gt;ekobox_genpdf</title><style>.edge>path:hover{stroke-width:8}</style>
<path fill="none" stroke="black" d="M181.41,-582.97C195.75,-550.53 221.61,-484.18 223.03,-424.83"/>
<path fill="none" stroke="black" d="M223.03,-422.83C229.18,-368.78 179.08,-343.35 213.03,-300.85 258.25,-244.24 301.78,-282.58 372.03,-264.85 376.05,-263.84 380.2,-262.76 384.37,-261.64"/>
<polygon fill="#80e619" stroke="black" points="385.32,-265.01 394.06,-259.02 383.49,-258.26 385.32,-265.01"/>
</g>
<!-- eko_basis_rotation&#45;&gt;ekobox_genpdf_flavors -->
<g id="edge23" class="edge">
<title>eko_basis_rotation&#45;&gt;ekobox_genpdf_flavors</title><style>.edge>path:hover{stroke-width:8}</style>
<path fill="none" stroke="black" d="M223.03,-422.83C223.51,-402.71 231.42,-381.87 239.89,-365.12"/>
<polygon fill="#80e619" stroke="black" points="243,-366.73 244.62,-356.26 236.82,-363.44 243,-366.73"/>
</g>
<!-- eko_basis_rotation&#45;&gt;ekomark -->
<g id="edge24" class="edge">
<title>eko_basis_rotation&#45;&gt;ekomark</title><style>.edge>path:hover{stroke-width:8}</style>
<path fill="none" stroke="black" d="M134.03,-516.81C131.33,-511.3 175.99,-305.47 180.03,-300.85 206.24,-270.87 250.65,-257.85 284,-252.19"/>
<polygon fill="#80e619" stroke="black" points="284.61,-255.64 293.96,-250.66 283.55,-248.72 284.61,-255.64"/>
</g>
<!-- eko_basis_rotation&#45;&gt;ekomark_apply -->
<g id="edge25" class="edge">
<title>eko_basis_rotation&#45;&gt;ekomark_apply</title><style>.edge>path:hover{stroke-width:8}</style>
<path fill="none" stroke="black" d="M134.03,-516.81C122.8,-493.92 108.64,-468.63 98.1,-450.37"/>
<polygon fill="#80e619" stroke="black" points="101,-448.4 92.94,-441.51 94.95,-451.92 101,-448.4"/>
</g>
<!-- ekobox -->
<g id="node9" class="node">
<title>ekobox</title><style>.edge>path:hover{stroke-width:8}</style>
<ellipse fill="#13af3a" stroke="black" cx="345.03" cy="-18" rx="30.72" ry="18"/>
<text text-anchor="middle" x="345.03" y="-15.5" font-family="Helvetica,sans-Serif" font-size="10.00" fill="#ffffff">ekobox</text>
</g>
<!-- ekobox_evol_pdf&#45;&gt;ekobox -->
<g id="edge26" class="edge">
<title>ekobox_evol_pdf&#45;&gt;ekobox</title><style>.edge>path:hover{stroke-width:8}</style>
<path fill="none" stroke="black" d="M152.51,-81.09C194.76,-67.47 266.03,-44.48 308.98,-30.63"/>
<polygon fill="#309148" stroke="black" points="310.3,-33.88 318.74,-27.48 308.15,-27.22 310.3,-33.88"/>
</g>
<!-- ekobox_gen_info -->
<g id="node11" class="node">
<title>ekobox_gen_info</title><style>.edge>path:hover{stroke-width:8}</style>
<ellipse fill="#31c456" stroke="black" cx="415.03" cy="-171.64" rx="41.94" ry="21.43"/>
<text text-anchor="middle" x="415.03" y="-174.64" font-family="Helvetica,sans-Serif" font-size="10.00" fill="#000000">ekobox.</text>
<text text-anchor="middle" x="415.03" y="-163.64" font-family="Helvetica,sans-Serif" font-size="10.00" fill="#000000">gen_info</text>
</g>
<!-- ekobox_gen_info&#45;&gt;ekobox -->
<g id="edge27" class="edge">
<title>ekobox_gen_info&#45;&gt;ekobox</title><style>.edge>path:hover{stroke-width:8}</style>
<path fill="none" stroke="black" d="M390.03,-154.39C372.2,-140.86 350.47,-119.73 345.03,-94.21"/>
</g>
<!-- ekobox_gen_info&#45;&gt;ekobox_evol_pdf -->
<g id="edge28" class="edge">
<title>ekobox_gen_info&#45;&gt;ekobox_evol_pdf</title><style>.edge>path:hover{stroke-width:8}</style>
<path fill="none" stroke="black" d="M378.61,-161.27C324.73,-147.4 223.77,-121.42 164.58,-106.19"/>
<polygon fill="#31c456" stroke="black" points="165.3,-102.76 154.75,-103.66 163.56,-109.54 165.3,-102.76"/>
</g>
<!-- ekobox_gen_op&#45;&gt;ekobox -->
<g id="edge29" class="edge">
<title>ekobox_gen_op&#45;&gt;ekobox</title><style>.edge>path:hover{stroke-width:8}</style>
<path fill="none" stroke="black" d="M787.6,-85.13C691.15,-70.71 473.72,-38.23 384.43,-24.89"/>
<polygon fill="#309148" stroke="black" points="384.85,-21.41 374.45,-23.4 383.82,-28.33 384.85,-21.41"/>
</g>
<!-- ekobox_gen_theory&#45;&gt;ekobox -->
<g id="edge30" class="edge">
<title>ekobox_gen_theory&#45;&gt;ekobox</title><style>.edge>path:hover{stroke-width:8}</style>
<path fill="none" stroke="black" d="M918.55,-150.27C920.1,-127.6 918.57,-91.6 897.03,-72 859.4,-37.77 507.6,-23.93 386.08,-20.15"/>
<polygon fill="#35a150" stroke="black" points="385.82,-16.64 375.72,-19.83 385.61,-23.64 385.82,-16.64"/>
</g>
<!-- ekobox_genpdf&#45;&gt;ekobox_evol_pdf -->
<g id="edge31" class="edge">
<title>ekobox_genpdf&#45;&gt;ekobox_evol_pdf</title><style>.edge>path:hover{stroke-width:8}</style>
<path fill="none" stroke="black" d="M394.49,-234.49C358.7,-222.73 305.08,-201.96 265.03,-172.64"/>
</g>
<!-- ekobox_genpdf&#45;&gt;ekobox_gen_info -->
<g id="edge32" class="edge">
<title>ekobox_genpdf&#45;&gt;ekobox_gen_info</title><style>.edge>path:hover{stroke-width:8}</style>
<path fill="none" stroke="black" d="M428.86,-228.87C426.94,-221.08 424.61,-211.6 422.41,-202.66"/>
<polygon fill="#0f8a2e" stroke="black" points="425.8,-201.79 420.01,-192.91 419,-203.46 425.8,-201.79"/>
</g>
<!-- ekobox_genpdf_export -->
<g id="node16" class="node">
<title>ekobox_genpdf_export</title><style>.edge>path:hover{stroke-width:8}</style>
<ellipse fill="#3db85c" stroke="black" cx="483.03" cy="-329.84" rx="38.78" ry="28.98"/>
<text text-anchor="middle" x="483.03" y="-338.34" font-family="Helvetica,sans-Serif" font-size="10.00" fill="#000000">ekobox.</text>
<text text-anchor="middle" x="483.03" y="-327.34" font-family="Helvetica,sans-Serif" font-size="10.00" fill="#000000">genpdf.</text>
<text text-anchor="middle" x="483.03" y="-316.34" font-family="Helvetica,sans-Serif" font-size="10.00" fill="#000000">export</text>
</g>
<!-- ekobox_genpdf_export&#45;&gt;ekobox_genpdf -->
<g id="edge33" class="edge">
<title>ekobox_genpdf_export&#45;&gt;ekobox_genpdf</title><style>.edge>path:hover{stroke-width:8}</style>
<path fill="none" stroke="black" d="M467.21,-303.22C461.31,-293.67 454.62,-282.83 448.74,-273.29"/>
<polygon fill="#3db85c" stroke="black" points="451.62,-271.3 443.39,-264.63 445.66,-274.98 451.62,-271.3"/>
</g>
<!-- ekobox_genpdf_flavors&#45;&gt;ekobox_genpdf -->
<g id="edge34" class="edge">
<title>ekobox_genpdf_flavors&#45;&gt;ekobox_genpdf</title><style>.edge>path:hover{stroke-width:8}</style>
<path fill="none" stroke="black" d="M291.96,-312.06C299.16,-308.28 306.82,-304.36 314.03,-300.85 339.66,-288.39 368.89,-275.36 391.96,-265.34"/>
<polygon fill="#3ab058" stroke="black" points="393.66,-268.42 401.45,-261.23 390.88,-261.99 393.66,-268.42"/>
</g>
<!-- ekobox_genpdf_load -->
<g id="node18" class="node">
<title>ekobox_genpdf_load</title><style>.edge>path:hover{stroke-width:8}</style>
<ellipse fill="#2fbc52" stroke="black" cx="579.03" cy="-329.84" rx="38.78" ry="28.98"/>
<text text-anchor="middle" x="579.03" y="-338.34" font-family="Helvetica,sans-Serif" font-size="10.00" fill="#000000">ekobox.</text>
<text text-anchor="middle" x="579.03" y="-327.34" font-family="Helvetica,sans-Serif" font-size="10.00" fill="#000000">genpdf.</text>
<text text-anchor="middle" x="579.03" y="-316.34" font-family="Helvetica,sans-Serif" font-size="10.00" fill="#000000">load</text>
</g>
<!-- ekobox_genpdf_load&#45;&gt;ekobox_gen_info -->
<g id="edge35" class="edge">
<title>ekobox_genpdf_load&#45;&gt;ekobox_gen_info</title><style>.edge>path:hover{stroke-width:8}</style>
<path fill="none" stroke="black" d="M560.66,-303.92C544.4,-282.72 519.38,-252.11 494.03,-228.85 480.37,-216.32 463.84,-204.17 449.44,-194.38"/>
<polygon fill="#2fbc52" stroke="black" points="451.05,-191.25 440.79,-188.62 447.17,-197.08 451.05,-191.25"/>
</g>
<!-- ekobox_genpdf_load&#45;&gt;ekobox_genpdf -->
<g id="edge36" class="edge">
<title>ekobox_genpdf_load&#45;&gt;ekobox_genpdf</title><style>.edge>path:hover{stroke-width:8}</style>
<path fill="none" stroke="black" d="M549.16,-311.22C543.17,-307.75 536.92,-304.16 531.03,-300.85 510.83,-289.51 488.08,-277.18 469.59,-267.27"/>
<polygon fill="#2fbc52" stroke="black" points="471.09,-264.1 460.62,-262.47 467.79,-270.27 471.09,-264.1"/>
</g>
<!-- ekobox_mock -->
<g id="node19" class="node">
<title>ekobox_mock</title><style>.edge>path:hover{stroke-width:8}</style>
<ellipse fill="#4cb366" stroke="black" cx="409.03" cy="-604.01" rx="48.04" ry="18"/>
<text text-anchor="middle" x="409.03" y="-601.51" font-family="Helvetica,sans-Serif" font-size="10.00" fill="#000000">ekobox.mock</text>
</g>
<!-- ekobox_utils -->
<g id="node20" class="node">
<title>ekobox_utils</title><style>.edge>path:hover{stroke-width:8}</style>
<ellipse fill="#4cb366" stroke="black" cx="1059.03" cy="-604.01" rx="44.98" ry="18"/>
<text text-anchor="middle" x="1059.03" y="-601.51" font-family="Helvetica,sans-Serif" font-size="10.00" fill="#000000">ekobox.utils</text>
</g>
<!-- ekomark&#45;&gt;ekobox -->
<g id="edge37" class="edge">
<title>ekomark&#45;&gt;ekobox</title><style>.edge>path:hover{stroke-width:8}</style>
<path fill="none" stroke="black" d="M333.45,-228.85C341.67,-200.62 355.3,-142.41 345.03,-94.21"/>
<path fill="none" stroke="black" d="M345.03,-92.21C341.81,-77.31 341.61,-60.3 342.3,-46.43"/>
<polygon fill="#24d0d0" stroke="black" points="345.82,-46.3 343.01,-36.08 338.84,-45.82 345.82,-46.3"/>
</g>
<!-- ekomark&#45;&gt;ekobox_evol_pdf -->
<g id="edge38" class="edge">
<title>ekomark&#45;&gt;ekobox_evol_pdf</title><style>.edge>path:hover{stroke-width:8}</style>
<path fill="none" stroke="black" d="M317.44,-229.68C306.12,-213.43 286.81,-188.59 265.03,-172.64"/>
</g>
<!-- ekomark&#45;&gt;ekobox_gen_op -->
<g id="edge39" class="edge">
<title>ekomark&#45;&gt;ekobox_gen_op</title><style>.edge>path:hover{stroke-width:8}</style>
<path fill="none" stroke="black" d="M353.74,-234.69C359.66,-232.47 365.99,-230.36 372.03,-228.85 472.8,-203.7 778.93,-259.4 836.03,-172.64"/>
<path fill="none" stroke="black" d="M836.03,-170.64C845.45,-156.32 845.11,-136.99 842.46,-121.35"/>
<polygon fill="#24d0d0" stroke="black" points="845.82,-120.3 840.35,-111.22 838.96,-121.73 845.82,-120.3"/>
</g>
<!-- ekomark_apply&#45;&gt;ekobox -->
<g id="edge40" class="edge">
<title>ekomark_apply&#45;&gt;ekobox</title><style>.edge>path:hover{stroke-width:8}</style>
<path fill="none" stroke="black" d="M89.51,-405.69C104.03,-364.97 136.49,-259.29 118.03,-172.64"/>
<path fill="none" stroke="black" d="M118.03,-170.64C109.91,-137.9 79.18,-145.9 67.03,-114.43 60.24,-96.84 55.01,-86.53 67.03,-72 96.67,-36.17 234.46,-24.35 304.27,-20.62"/>
<polygon fill="#3ab0b0" stroke="black" points="304.64,-24.11 314.46,-20.11 304.29,-17.12 304.64,-24.11"/>
</g>
<!-- ekomark_apply&#45;&gt;ekobox_evol_pdf -->
<g id="edge41" class="edge">
<title>ekomark_apply&#45;&gt;ekobox_evol_pdf</title><style>.edge>path:hover{stroke-width:8}</style>
<path fill="none" stroke="black" d="M118.03,-170.64C114.86,-155.75 114.53,-138.85 115.13,-124.74"/>
<polygon fill="#3ab0b0" stroke="black" points="118.64,-124.76 115.74,-114.57 111.65,-124.34 118.64,-124.76"/>
</g>
<!-- ekomark_data -->
<g id="node23" class="node">
<title>ekomark_data</title><style>.edge>path:hover{stroke-width:8}</style>
<ellipse fill="#47c2c2" stroke="black" cx="780.03" cy="-246.85" rx="49.4" ry="18"/>
<text text-anchor="middle" x="780.03" y="-244.35" font-family="Helvetica,sans-Serif" font-size="10.00" fill="#000000">ekomark.data</text>
</g>
<!-- ekomark_data&#45;&gt;ekobox_gen_op -->
<g id="edge42" class="edge">
<title>ekomark_data&#45;&gt;ekobox_gen_op</title><style>.edge>path:hover{stroke-width:8}</style>
<path fill="none" stroke="black" d="M793.63,-229.48C805.42,-214.96 822.66,-192.96 836.03,-172.64"/>
</g>
<!-- ekomark_data_operators&#45;&gt;ekobox_gen_op -->
<g id="edge43" class="edge">
<title>ekomark_data_operators&#45;&gt;ekobox_gen_op</title><style>.edge>path:hover{stroke-width:8}</style>
<path fill="none" stroke="black" d="M815.19,-309C833.7,-294.69 854.12,-273.43 857.03,-247.85"/>
</g>
<!-- lhapdf -->
<g id="node25" class="node">
<title>lhapdf</title><style>.edge>path:hover{stroke-width:8}</style>
<ellipse fill="#4766c2" stroke="black" cx="503.03" cy="-604.01" rx="27.84" ry="18"/>
<text text-anchor="middle" x="503.03" y="-601.51" font-family="Helvetica,sans-Serif" font-size="10.00" fill="#ffffff">lhapdf</text>
</g>
<!-- lhapdf&#45;&gt;ekobox_genpdf -->
<g id="edge44" class="edge">
<title>lhapdf&#45;&gt;ekobox_genpdf</title><style>.edge>path:hover{stroke-width:8}</style>
<path fill="none" stroke="black" d="M499.49,-586.12C495.79,-569.04 489.63,-541.93 483.03,-518.81"/>
<path fill="none" stroke="black" d="M483.03,-516.81C466.33,-458.31 393.42,-504.93 362.03,-452.82 348.73,-430.74 353.52,-419.16 362.03,-394.84 374.04,-360.51 408.74,-366.96 413.03,-330.84"/>
<path fill="none" stroke="black" d="M413.03,-328.84C414.71,-310.56 419.63,-290.53 424.17,-274.96"/>
<polygon fill="#4766c2" stroke="black" points="427.65,-275.56 427.21,-264.97 420.95,-273.52 427.65,-275.56"/>
</g>
<!-- lhapdf&#45;&gt;ekobox_genpdf_load -->
<g id="edge45" class="edge">
<title>lhapdf&#45;&gt;ekobox_genpdf_load</title><style>.edge>path:hover{stroke-width:8}</style>
<path fill="none" stroke="black" d="M483.03,-516.81C468.47,-465.82 543.51,-475.54 559.03,-424.83"/>
<path fill="none" stroke="black" d="M559.03,-422.83C564.38,-405.36 568.87,-385.6 572.23,-368.89"/>
<polygon fill="#4766c2" stroke="black" points="575.69,-369.41 574.18,-358.93 568.82,-368.07 575.69,-369.41"/>
</g>
<!-- numpy -->
<g id="node26" class="node">
<title>numpy</title><style>.edge>path:hover{stroke-width:8}</style>
<ellipse fill="#7f06f9" stroke="black" cx="631.03" cy="-751.23" rx="29.37" ry="18"/>
<text text-anchor="middle" x="631.03" y="-748.73" font-family="Helvetica,sans-Serif" font-size="10.00" fill="#ffffff">numpy</text>
</g>
<!-- numpy&#45;&gt;banana_data_sql -->
<g id="edge46" class="edge">
<title>numpy&#45;&gt;banana_data_sql</title><style>.edge>path:hover{stroke-width:8}</style>
<path fill="none" stroke="black" d="M659.97,-747.85C735.22,-741.14 934.77,-719.97 986.03,-680.23"/>
<path fill="none" stroke="black" d="M986.03,-678.23C1004.55,-663.87 1005.18,-599.28 1003.45,-556.85"/>
<polygon fill="#7f06f9" stroke="black" points="1006.95,-556.67 1002.99,-546.84 999.96,-557 1006.95,-556.67"/>
</g>
<!-- numpy&#45;&gt;eko_basis_rotation -->
<g id="edge47" class="edge">
<title>numpy&#45;&gt;eko_basis_rotation</title><style>.edge>path:hover{stroke-width:8}</style>
<path fill="none" stroke="black" d="M261.03,-678.23C250.5,-657.35 231.03,-640.27 212.99,-627.88"/>
<polygon fill="#7f06f9" stroke="black" points="214.57,-624.73 204.29,-622.18 210.73,-630.59 214.57,-624.73"/>
</g>
<!-- numpy&#45;&gt;ekobox_genpdf -->
<g id="edge48" class="edge">
<title>numpy&#45;&gt;ekobox_genpdf</title><style>.edge>path:hover{stroke-width:8}</style>
<path fill="none" stroke="black" d="M261.03,-678.23C203.7,-565.78 451.28,-714.97 540.03,-625.23 573.81,-591.07 568.2,-565.97 559.03,-518.81"/>
<path fill="none" stroke="black" d="M559.03,-516.81C553.45,-480.3 529.53,-481.3 506.03,-452.82 495.78,-440.4 491.01,-438.81 483.03,-424.83"/>
<path fill="none" stroke="black" d="M483.03,-422.83C465.42,-391.94 457.17,-386.66 435.03,-358.84 425.18,-346.45 411.58,-346.6 413.03,-330.84"/>
</g>
<!-- numpy&#45;&gt;ekobox_genpdf_export -->
<g id="edge49" class="edge">
<title>numpy&#45;&gt;ekobox_genpdf_export</title><style>.edge>path:hover{stroke-width:8}</style>
<path fill="none" stroke="black" d="M483.03,-422.83C473.77,-406.59 472.98,-385.98 474.85,-368.38"/>
<polygon fill="#7f06f9" stroke="black" points="478.32,-368.81 476.21,-358.42 471.38,-367.86 478.32,-368.81"/>
</g>
<!-- numpy&#45;&gt;ekobox_genpdf_flavors -->
<g id="edge50" class="edge">
<title>numpy&#45;&gt;ekobox_genpdf_flavors</title><style>.edge>path:hover{stroke-width:8}</style>
<path fill="none" stroke="black" d="M261.03,-678.23C234.74,-624.83 248.99,-447.25 256.9,-368.74"/>
<polygon fill="#7f06f9" stroke="black" points="260.38,-369.09 257.92,-358.78 253.41,-368.37 260.38,-369.09"/>
</g>
<!-- numpy&#45;&gt;ekobox_genpdf_load -->
<g id="edge51" class="edge">
<title>numpy&#45;&gt;ekobox_genpdf_load</title><style>.edge>path:hover{stroke-width:8}</style>
<path fill="none" stroke="black" d="M559.03,-516.81C551.22,-476.68 547.07,-463.92 559.03,-424.83"/>
</g>
<!-- numpy&#45;&gt;ekobox_mock -->
<g id="edge52" class="edge">
<title>numpy&#45;&gt;ekobox_mock</title><style>.edge>path:hover{stroke-width:8}</style>
<path fill="none" stroke="black" d="M261.03,-678.23C255.59,-667.44 321.44,-639.13 367.08,-621.04"/>
<polygon fill="#7f06f9" stroke="black" points="368.46,-624.26 376.48,-617.35 365.9,-617.75 368.46,-624.26"/>
</g>
<!-- numpy&#45;&gt;ekobox_utils -->
<g id="edge53" class="edge">
<title>numpy&#45;&gt;ekobox_utils</title><style>.edge>path:hover{stroke-width:8}</style>
<path fill="none" stroke="black" d="M986.03,-678.23C1005.12,-663.43 1024.3,-643.96 1038.22,-628.82"/>
<polygon fill="#7f06f9" stroke="black" points="1040.87,-631.11 1044.98,-621.35 1035.67,-626.41 1040.87,-631.11"/>
</g>
<!-- numpy&#45;&gt;ekomark_apply -->
<g id="edge54" class="edge">
<title>numpy&#45;&gt;ekomark_apply</title><style>.edge>path:hover{stroke-width:8}</style>
<path fill="none" stroke="black" d="M601.6,-750.19C519.48,-749.3 291.83,-741.3 261.03,-680.23"/>
<path fill="none" stroke="black" d="M261.03,-678.23C227.48,-611.72 148.39,-683.53 102.03,-625.23 62.11,-575.03 69.66,-493.81 77.14,-451.85"/>
<polygon fill="#7f06f9" stroke="black" points="80.61,-452.31 79.06,-441.83 73.74,-450.99 80.61,-452.31"/>
</g>
<!-- yaml -->
<g id="node27" class="node">
<title>yaml</title><style>.edge>path:hover{stroke-width:8}</style>
<ellipse fill="#e722b6" stroke="black" cx="791.03" cy="-679.23" rx="27" ry="18"/>
<text text-anchor="middle" x="791.03" y="-676.73" font-family="Helvetica,sans-Serif" font-size="10.00" fill="#ffffff">yaml</text>
</g>
<!-- yaml&#45;&gt;banana_data_theories -->
<g id="edge55" class="edge">
<title>yaml&#45;&gt;banana_data_theories</title><style>.edge>path:hover{stroke-width:8}</style>
<path fill="none" stroke="black" d="M933.03,-516.81C937.28,-492.55 953.37,-470.21 968.83,-453.62"/>
<polygon fill="#e722b6" stroke="black" points="971.38,-456.03 975.85,-446.42 966.36,-451.14 971.38,-456.03"/>
</g>
<!-- yaml&#45;&gt;ekobox_gen_op -->
<g id="edge56" class="edge">
<title>yaml&#45;&gt;ekobox_gen_op</title><style>.edge>path:hover{stroke-width:8}</style>
<path fill="none" stroke="black" d="M635.03,-516.81C617.51,-467.4 691.28,-336.17 730.03,-300.85 775.24,-259.65 848.93,-308.48 857.03,-247.85"/>
<path fill="none" stroke="black" d="M857.03,-245.85C861.62,-212.31 817.42,-200.92 836.03,-172.64"/>
</g>
<!-- yaml&#45;&gt;ekobox_gen_theory -->
<g id="edge57" class="edge">
<title>yaml&#45;&gt;ekobox_gen_theory</title><style>.edge>path:hover{stroke-width:8}</style>
<path fill="none" stroke="black" d="M810.63,-666.64C846.63,-643.81 920.71,-589.09 933.03,-518.81"/>
<path fill="none" stroke="black" d="M933.03,-516.81C949.98,-479.61 928.96,-465.51 933.03,-424.83"/>
</g>
<!-- yaml&#45;&gt;ekobox_genpdf_export -->
<g id="edge58" class="edge">
<title>yaml&#45;&gt;ekobox_genpdf_export</title><style>.edge>path:hover{stroke-width:8}</style>
<path fill="none" stroke="black" d="M769.69,-668.02C728.81,-646.83 642.78,-593.73 635.03,-518.81"/>
<path fill="none" stroke="black" d="M635.03,-516.81C618.08,-470.75 577.08,-489.99 545.03,-452.82 523.3,-427.61 506.78,-393.46 496.28,-367.71"/>
<polygon fill="#e722b6" stroke="black" points="499.49,-366.3 492.56,-358.29 492.98,-368.87 499.49,-366.3"/>
</g>
<!-- yaml&#45;&gt;ekobox_genpdf_load -->
<g id="edge59" class="edge">
<title>yaml&#45;&gt;ekobox_genpdf_load</title><style>.edge>path:hover{stroke-width:8}</style>
<path fill="none" stroke="black" d="M635.03,-516.81C631.41,-462.92 610.4,-403.66 595.17,-366.85"/>
<polygon fill="#e722b6" stroke="black" points="598.36,-365.39 591.25,-357.54 591.91,-368.11 598.36,-365.39"/>
</g>
</g>
</svg>
